<?xml version="1.0" encoding="utf-8"?>
<!-- Generator: Adobe Illustrator 16.0.0, SVG Export Plug-In . SVG Version: 6.00 Build 0)  -->
<!DOCTYPE svg PUBLIC "-//W3C//DTD SVG 1.1//EN" "http://www.w3.org/Graphics/SVG/1.1/DTD/svg11.dtd">
<svg version="1.1" id="Layer_1" xmlns="http://www.w3.org/2000/svg" xmlns:xlink="http://www.w3.org/1999/xlink" x="0px" y="0px"
	 width="1030px" height="620px" viewBox="0 0 1030 620" enable-background="new 0 0 1030 620" xml:space="preserve">
<rect fill="#141414" width="1030" height="622"/>
<g>
	<path fill="#4B4B4B" d="M85.737,138.544c-2.868-0.115-5.216-0.9-7.051-2.357c-0.35-0.277-1.185-1.114-1.464-1.467
		c-0.745-0.935-1.25-1.845-1.588-2.856c-1.039-3.109-0.504-7.191,1.529-11.67c1.74-3.835,4.425-7.638,9.11-12.906
		c0.69-0.775,2.745-3.042,2.758-3.042c0.006,0-0.106,0.194-0.248,0.431c-1.217,2.04-2.26,4.444-2.828,6.523
		c-0.912,3.34-0.802,6.205,0.323,8.426c0.775,1.532,2.105,2.856,3.6,3.589c2.618,1.283,6.45,1.389,11.13,0.311
		c0.322-0.073,16.289-4.312,35.481-9.419c19.193-5.106,34.899-9.282,34.901-9.277c0.005,0.003-44.59,19.086-67.74,28.987
		c-3.667,1.567-4.647,1.963-6.37,2.568C92.873,137.934,88.927,138.671,85.737,138.544"/>
	<path fill="#4B4B4B" d="M344.577,129.689l-11.64,6.258c1.054-0.779,1.754-2.11,1.754-3.407v-16.777c0-1.139-0.47-2.575-1.144-3.492
		l-1.527-2.08l0.005-0.003l5.078,6.915h-0.402c-1.107,0-2.01,0.902-2.01,2.01c0,1.107,0.903,2.008,2.01,2.008h2.847
		c0.661,0,1.202,0.54,1.202,1.203c0,0.663-0.541,1.202-1.202,1.202h-2.847c-1.107,0-2.01,0.903-2.01,2.011s0.903,2.01,2.01,2.01
		h7.876V129.689L344.577,129.689z M331.687,134.757l-2.883,1.55l-0.585-1.123c-0.043-0.077-0.114-0.13-0.192-0.152l2.521-1.596
		c0.599-0.322,0.93-1.142,0.93-1.822v-15.317c0-0.68-0.352-1.719-0.756-2.267l-1.434-2.011c0.102,0.049,0.227,0.044,0.326-0.028
		l1.053-0.783l1.527,2.078c0.497,0.655,0.819,1.647,0.819,2.477v16.777C333.013,133.399,332.443,134.351,331.687,134.757
		 M324.568,131.491c-2.051-0.066-3.531-0.94-3.86-1.129c-0.071-0.04-0.102-0.141-0.091-0.261c0.012-0.122,0.062-1.295,0.062-1.707
		c0-0.411-0.037-0.79-0.037-0.886c0-0.097,0.024-0.254,0.168-0.249c0.147,0.004,0.352,0,0.426,0.002
		c0.072,0.002,0.265,0.033,0.315,0.325c0.047,0.292,0.327,2.361,2.691,2.415c2.364,0.056,3.356-1.731,3.333-2.847
		c-0.025-1.115-0.606-2.698-2.509-2.761c-1.903-0.061-2.435,1.446-2.435,1.446s-0.042,0.15-0.268,0.138
		c-0.267-0.014-1.042-0.07-1.042-0.07c-0.096-0.021-0.147-0.054-0.147-0.188c0-0.134,0.016-7.759,0.016-8.001
		c0-0.243,0.097-0.311,0.231-0.308c0.134,0.004,7.211-0.025,7.333-0.025c0.23-0.001,0.365,0.122,0.365,0.328
		c0,0.205-0.085,2.459-0.09,2.544c-0.006,0.094-0.045,0.153-0.186,0.149c-0.17-0.003-0.383-0.01-0.479-0.017
		c-0.083-0.003-0.205-0.001-0.205-0.162c0-0.135,0.085-0.774-1.054-0.775c-0.979,0-3.592,0.021-4.311-0.002
		c-0.163-0.006-0.189,0.147-0.189,0.147l0.061,4.063c0,0,0.933-0.794,2.617-0.738c1.686,0.056,4.425,0.837,4.376,4.048
		C329.61,130.179,326.896,131.568,324.568,131.491 M316.469,126.206c-0.635-0.022-2.027,0.007-2.182,0.001
		c-0.154-0.005-0.218-0.079-0.221-0.207c-0.002-0.128,0.013-0.309,0.012-0.398c-0.001-0.091,0.031-0.254,0.231-0.283
		c0.199-0.031,0.999-0.059,1.001-1.022c0.003-0.964,0.016-8.807,0.004-9.481c-0.006-0.337,0.016-0.468-0.148-0.635
		c-0.164-0.168-0.673-0.099-0.828-0.104c-0.154-0.006-0.276-0.173-0.279-0.392c-0.005-0.308-0.02-0.497,0.226-0.573
		c0.271-0.084,2.548-0.898,2.839-0.998c0.287-0.099,0.543-0.054,0.534,0.435c-0.015,0.672-0.127,10.858-0.093,11.823
		c0.034,0.963,0.832,0.846,1.032,0.889c0.201,0.042,0.24,0.206,0.243,0.298c0.002,0.089,0.026,0.337,0.028,0.466
		c0.003,0.127-0.06,0.197-0.215,0.191C318.497,126.212,317.105,126.228,316.469,126.206 M303.852,131.355
		c-0.274,0.015-0.298-0.319-0.049-0.705c0.082-0.127,3.87-6.035,4.631-7.169c0.74-1.106,0.934-1.485,0.921-2.462
		c-0.02-1.502-1.069-2.154-2.594-2.048c-1.654,0.115-2.084,2.038-2.084,2.328c0,0.312-0.248,0.475-0.51,0.466
		c-0.217-0.006-0.474-0.211-0.484-0.403c-0.016-0.269,0.023-2.565,0.023-2.711c0-0.143,0.004-0.228,0.08-0.282
		c0.215-0.143,1.422-1.049,3.872-1.186c2.448-0.139,3.968,1.83,4.024,3.137c0.054,1.293-0.331,2.035-0.776,2.783
		c-0.242,0.405-4.117,5.936-4.224,6.07c-0.074,0.094-0.074,0.212,0.049,0.221c0.537,0.031,1.74,0.021,3.241,0
		c1.505-0.024,2.188-1.138,2.256-1.259c0.058-0.104,0.111-0.145,0.217-0.115c0.089,0.023,0.294,0.08,0.438,0.136
		c0.17,0.066,0.123,0.181,0.097,0.269c-0.036,0.117-0.921,2.466-1.02,2.705c-0.095,0.241-0.202,0.23-0.264,0.235
		C311.633,131.372,303.852,131.355,303.852,131.355 M322.949,139.455c-0.668,0.359-1.783,0.64-2.541,0.64h-1.564v-0.081
		c0-0.084-0.07-0.154-0.155-0.154h-1.109v-1.303h0.307v-0.066h2.521c0.681,0,1.728-0.265,2.328-0.586l2.786-1.512
		c-0.024,0.081-0.02,0.168,0.023,0.247l0.597,1.099L322.949,139.455z M322.414,141.621c-2.243,1.227-5.036,2.756-5.036,6.775v1.223
		h-0.012v-6.347h0.06c0.085,0,0.154-0.071,0.154-0.155v-1.111h1.109c0.085,0,0.155-0.067,0.155-0.153v-0.079h1.564
		c0.833,0,1.912-0.232,2.774-0.579C322.936,141.336,322.682,141.474,322.414,141.621 M315.648,149.619h-0.022v-1.223
		c0-4.019-2.794-5.547-5.036-6.775c-0.275-0.149-0.534-0.293-0.795-0.441c0.869,0.355,1.965,0.594,2.808,0.594h1.566v0.079
		c0,0.086,0.069,0.153,0.154,0.153h1.11v1.111c0,0.084,0.07,0.155,0.155,0.155h0.06V149.619L315.648,149.619z M306.872,137.739
		l0.571-1.134c0.041-0.077,0.047-0.167,0.022-0.245l2.995,1.556c0.599,0.322,1.646,0.586,2.324,0.586h2.342v0.066h0.307v1.292h-1.11
		c-0.085,0-0.154,0.07-0.154,0.154v0.081h-1.566c-0.756,0-1.872-0.281-2.538-0.64L306.872,137.739z M304.751,135.248l-0.543,1.059
		l-2.883-1.55c-0.756-0.406-1.326-1.359-1.326-2.217v-16.777c0-0.788,0.353-1.862,0.821-2.499l1.527-2.079l0.137,0.1
		c0.098,0.073,0.984,0.828,1.088,0.778l-1.43,2.041c-0.403,0.549-0.733,1.554-0.733,2.233l0.019,15.636
		c0,0.68,0.489,1.501,1.089,1.822l2.426,1.298C304.864,135.117,304.794,135.169,304.751,135.248 M288.426,129.689v-2.142h7.876
		c1.107,0,2.008-0.902,2.008-2.01s-0.901-2.011-2.008-2.011h-2.847c-0.662,0-1.201-0.539-1.201-1.202
		c0-0.663,0.539-1.203,1.201-1.203h2.847c1.107,0,2.008-0.901,2.008-2.008c0-1.108-0.901-2.01-2.008-2.01h-0.403l5.083-6.92
		l0.012,0.008l-1.527,2.08c-0.675,0.918-1.147,2.354-1.147,3.492v16.777c0,1.311,0.718,2.656,1.789,3.429L288.426,129.689z
		 M310.512,97.208l0.012,0.008l-7.741,10.539l-0.012-0.008L310.512,97.208z M311.877,98.212l0.137,0.1
		c0.848,0.636,0.934,0.629,1.173,0.535l-7.882,10.805c0.017-0.113-0.934-0.731-1.032-0.803l-0.137-0.1L311.877,98.212z
		 M312.89,93.972l0.618-0.84c0.05-0.067,0.078-0.152,0.078-0.238v-1.172c0-3.995-0.284-6.39-0.456-7.822
		c-0.026-0.226-0.052-0.431-0.072-0.617V83.28v-0.001c-0.039-0.355-0.064-0.644-0.064-0.88c0-0.128,0.163-0.269,0.397-0.269h2.141
		v0.283c0,0.128-0.02,0.812,0.64,1.32h-1.211v9.516c0,0,0.683,0.418,0.787,1.39c0.088,0.816-0.936,2.216-0.936,2.216
		c0.025-0.299,0.002-0.241-1.009-0.98l-0.136-0.101c0,0,0.511-0.634,0.305-1.131c-0.208-0.496-0.978-0.834-0.978-0.834l-0.691,0.963
		L312.89,93.972z M312.5,81.679c-0.159-0.275-0.343-0.538-0.557-0.781c-0.713-0.815-1.694-1.313-2.771-1.413
		c0.431-0.037,0.938-0.268,1.222-0.572l1.282-1.373c0.156-0.167,0.517-0.324,0.746-0.324h3.099v4.108h-2.13
		C313.037,81.324,312.72,81.46,312.5,81.679 M316.716,83.729c0.106-0.057,0.648-0.511,0.648-1.316V82.13h2.247
		c0.228,0,0.399,0.141,0.399,0.269c0,0.234-0.026,0.521-0.063,0.874v0.007c-0.002,0.005,0,0.008-0.002,0.011
		c-0.02,0.185-0.043,0.386-0.071,0.609c-0.17,1.432-0.455,3.827-0.455,7.822v1.172c0,0.086,0.026,0.171,0.078,0.238l1.208,1.644
		l-0.005,0.005l-0.71-1.04c0,0-0.798,0.368-0.93,0.96c-0.121,0.538,0.286,1.073,0.286,1.073l-0.954,0.75
		c-0.097,0.071-0.14,0.191-0.123,0.305c0,0-1.106-1.246-0.936-2.337c0.134-0.861,0.679-1.279,0.679-1.279v-9.484H316.716z
		 M317.364,77.216h3.227c0.228,0,0.59,0.157,0.746,0.324l1.282,1.373c0.283,0.303,0.786,0.534,1.217,0.572
		c-1.078,0.099-2.061,0.596-2.777,1.413c-0.214,0.243-0.398,0.506-0.554,0.781c-0.221-0.219-0.539-0.355-0.894-0.355h-2.247V77.216z
		 M320.05,98.924l1.086-0.713l7.742,10.538l-1.041,0.757c-0.098,0.073-0.141,0.191-0.123,0.303l-7.99-10.802
		C319.827,99.057,319.954,98.995,320.05,98.924 M322.493,97.213l7.742,10.539l-0.004,0.003l-7.742-10.539L322.493,97.213z
		 M344.981,126.74h-8.28c-0.662,0-1.203-0.54-1.203-1.203c0-0.665,0.541-1.203,1.203-1.203h2.847c1.107,0,2.008-0.903,2.008-2.01
		c0-1.108-0.901-2.009-2.008-2.009h-2.847c-0.662,0-1.203-0.538-1.203-1.202c0-0.664,0.541-1.203,1.203-1.203h1.2
		c0.152,0,0.291-0.086,0.36-0.221c0.069-0.137,0.055-0.299-0.036-0.422l-5.55-7.557l0.206-0.152c0.139-0.103,0.17-0.301,0.067-0.44
		l-1.416-1.929c-0.101-0.139-0.301-0.169-0.441-0.067l-0.205,0.151l-7.742-10.538l0.206-0.151c0.14-0.103,0.171-0.301,0.068-0.441
		l-1.417-1.929c-0.102-0.14-0.301-0.17-0.44-0.067l-0.207,0.151l-0.591-0.805l-0.539-0.732v-1.039c0-3.947,0.272-6.222,0.451-7.726
		c0.026-0.223,0.05-0.422,0.069-0.607c0.117-0.727,0.434-1.404,0.92-1.958c0.6-0.682,1.43-1.092,2.336-1.151
		c0.907-0.059,1.782,0.238,2.466,0.837c0.001,0.002,0.003,0.004,0.005,0.005c0.553,0.488,0.883,1.161,0.931,1.896
		c0.048,0.739-0.194,1.453-0.682,2.009h-0.001c-0.391,0.446-0.931,0.711-1.522,0.75c-0.591,0.039-1.161-0.155-1.606-0.547
		c-0.55-0.481-0.605-1.322-0.123-1.872v-0.002c0.175-0.197,0.415-0.316,0.678-0.332c0.262-0.019,0.516,0.069,0.715,0.242
		c0.168,0.147,0.422,0.131,0.569-0.036c0.148-0.168,0.131-0.423-0.037-0.57c-0.36-0.315-0.82-0.472-1.299-0.441
		c-0.479,0.03-0.916,0.246-1.233,0.605v0.002c-0.775,0.884-0.686,2.235,0.198,3.011c0.556,0.489,1.256,0.751,1.99,0.751
		c0.066,0,0.135-0.001,0.201-0.006c0.807-0.052,1.544-0.415,2.076-1.023c0.631-0.719,0.943-1.64,0.881-2.593
		c-0.063-0.955-0.493-1.829-1.211-2.458c-0.003-0.004-0.009-0.007-0.014-0.011c-0.652-0.566-1.446-0.912-2.287-1.006h3.666
		c0.224,0,0.405-0.18,0.405-0.402c0-0.224-0.181-0.404-0.405-0.404h-4.406c-0.229,0-0.592-0.156-0.747-0.323l-1.281-1.373
		c-0.309-0.33-0.883-0.58-1.336-0.58h-3.216l-0.011-0.461c0-0.183-0.154-0.335-0.344-0.335h-0.582h-0.574
		c-0.189,0-0.343,0.152-0.343,0.335l0.011,0.461h-3.11c-0.452,0-1.027,0.25-1.337,0.58l-1.281,1.373
		c-0.156,0.167-0.518,0.323-0.746,0.323h-4.407c-0.222,0-0.404,0.18-0.404,0.404c0,0.222,0.182,0.402,0.404,0.402h3.657
		c-0.841,0.094-1.632,0.438-2.284,1.004c-0.005,0.005-0.011,0.008-0.017,0.013c-1.483,1.301-1.632,3.566-0.331,5.051h0.001
		c0.597,0.681,1.433,1.028,2.275,1.028c0.708,0,1.419-0.247,1.993-0.75h0.001c0.884-0.776,0.972-2.127,0.196-3.011
		c-0.001,0-0.001,0-0.001-0.002c-0.316-0.359-0.752-0.575-1.231-0.605c-0.478-0.032-0.94,0.126-1.3,0.441
		c-0.167,0.147-0.184,0.402-0.037,0.569c0.147,0.168,0.4,0.184,0.569,0.037c0.198-0.173,0.452-0.259,0.715-0.242
		c0.263,0.016,0.504,0.135,0.677,0.332c0.484,0.551,0.429,1.393-0.122,1.874c-0.917,0.807-2.322,0.715-3.129-0.203
		c-1.005-1.146-0.893-2.895,0.248-3.904c0.002-0.002,0.005-0.003,0.006-0.006c0.684-0.599,1.559-0.896,2.466-0.837
		c0.908,0.059,1.736,0.469,2.334,1.15c0.489,0.558,0.808,1.237,0.922,1.964c0.021,0.184,0.044,0.381,0.071,0.602
		c0.178,1.504,0.449,3.779,0.449,7.726v1.039l-1.126,1.533l-0.2-0.147c-0.141-0.103-0.339-0.073-0.442,0.067l-1.416,1.929
		c-0.103,0.14-0.071,0.338,0.069,0.441l0.199,0.146l-7.742,10.538l-0.199-0.146c-0.14-0.102-0.339-0.072-0.442,0.067l-1.415,1.929
		c-0.103,0.139-0.074,0.337,0.066,0.44l0.201,0.147l-5.556,7.562c-0.089,0.123-0.104,0.285-0.034,0.422
		c0.067,0.135,0.208,0.221,0.359,0.221h1.201c0.662,0,1.201,0.539,1.201,1.203c0,0.664-0.539,1.202-1.201,1.202h-2.847
		c-1.107,0-2.008,0.901-2.008,2.009c0,1.107,0.901,2.01,2.008,2.01h2.847c0.662,0,1.201,0.538,1.201,1.203
		c0,0.663-0.539,1.203-1.201,1.203h-8.279c-0.223,0-0.404,0.18-0.404,0.403v2.787c0,0.149,0.082,0.284,0.213,0.355l15.216,8.181
		l-0.116,0.214c-0.082,0.154-0.024,0.347,0.129,0.428l2.106,1.133c0.153,0.082,0.346,0.024,0.429-0.128l0.115-0.217l3.584,1.928
		c0.294,0.171,0.592,0.333,0.906,0.505c2.27,1.242,4.618,2.526,4.618,6.067v1.223h-0.351c-0.172,0-0.31,0.141-0.31,0.309v2.347
		c0,0.168,0.138,0.308,0.31,0.308h0.351v2.644l-4.544,3.586l-2.469-2.812c0,0,0-0.002-0.003-0.003
		c-0.473-0.544-0.733-1.24-0.733-1.961c0-1.429,1.161-2.591,2.589-2.591h0.008c1.151,0.004,2.086,0.943,2.086,2.095
		c0,0.913-0.742,1.655-1.655,1.658c-0.001,0-0.002-0.001-0.004-0.001c-0.81,0-1.47-0.656-1.479-1.464v-0.012
		c0-0.527,0.431-0.958,0.961-0.958c0.381,0,0.69,0.309,0.69,0.691c0,0.191-0.156,0.347-0.349,0.347c-0.223,0-0.404,0.18-0.404,0.403
		c0,0.222,0.181,0.403,0.404,0.403c0.638,0,1.156-0.518,1.156-1.153c0-0.828-0.672-1.498-1.497-1.498
		c-0.956,0-1.735,0.762-1.764,1.71c-0.002,0.017-0.006,0.032-0.006,0.05c0,1.257,1.019,2.281,2.276,2.288
		c0.004,0,0.008,0.001,0.012,0.001c1.36,0,2.466-1.107,2.466-2.465c0-1.601-1.302-2.902-2.902-2.902
		c-0.01,0-0.019,0.002-0.027,0.002c-1.86,0.015-3.369,1.532-3.369,3.396c0,0.919,0.334,1.804,0.938,2.495
		c0.001,0.001,0.001,0.002,0.003,0.003l2.717,3.098c0.01,0.012,0.021,0.02,0.03,0.028c0.011,0.011,0.02,0.02,0.03,0.027
		c0.015,0.012,0.03,0.019,0.045,0.029c0.011,0.005,0.02,0.013,0.03,0.017c0.019,0.008,0.039,0.013,0.058,0.02
		c0.007,0.003,0.016,0.006,0.025,0.007c0.029,0.007,0.057,0.01,0.086,0.01c0.023,0,0.045-0.001,0.069-0.005
		c0.007-0.002,0.015-0.005,0.021-0.006c0.015-0.003,0.03-0.006,0.045-0.013c0.009-0.003,0.017-0.007,0.026-0.01
		c0.014-0.006,0.025-0.011,0.038-0.018c0.008-0.006,0.018-0.012,0.026-0.018c0.007-0.005,0.018-0.011,0.024-0.017l4.999-3.944
		c0.098-0.075,0.154-0.193,0.154-0.317v-2.84h0.022v7.844c-1.481,0.382-2.578,1.729-2.578,3.327c0,1.898,1.539,3.437,3.437,3.437
		c1.898,0,3.436-1.539,3.436-3.437c0-1.599-1.095-2.945-2.577-3.327v-7.844h0.012v2.84c0,0.124,0.056,0.242,0.154,0.317l4.997,3.944
		c0.009,0.006,0.018,0.012,0.025,0.017c0.009,0.006,0.019,0.012,0.028,0.018c0.011,0.007,0.023,0.012,0.035,0.018
		c0.01,0.003,0.019,0.007,0.027,0.01c0.015,0.007,0.03,0.01,0.045,0.013c0.007,0.001,0.015,0.004,0.022,0.006
		c0.023,0.004,0.045,0.005,0.068,0.005c0.029,0,0.058-0.003,0.087-0.01c0.008-0.001,0.019-0.006,0.027-0.007
		c0.018-0.007,0.037-0.012,0.056-0.02c0.011-0.004,0.02-0.012,0.03-0.018c0.015-0.009,0.03-0.016,0.045-0.028
		c0.01-0.007,0.019-0.016,0.029-0.027c0.01-0.008,0.02-0.016,0.03-0.028l2.715-3.096c0.002-0.001,0.005-0.003,0.005-0.005
		c0.605-0.691,0.938-1.576,0.938-2.495c0-1.864-1.509-3.381-3.369-3.396c-0.01,0-0.017-0.002-0.027-0.002
		c-1.599,0-2.901,1.301-2.901,2.902c0,1.358,1.104,2.465,2.465,2.465c0.005,0,0.009-0.001,0.013-0.001
		c1.256-0.007,2.274-1.031,2.274-2.288c0-0.021-0.003-0.038-0.005-0.056c-0.033-0.945-0.811-1.704-1.765-1.704
		c-0.825,0-1.495,0.67-1.495,1.498c0,0.635,0.518,1.153,1.154,1.153c0.223,0,0.404-0.181,0.404-0.403
		c0-0.223-0.181-0.403-0.404-0.403c-0.191,0-0.348-0.156-0.348-0.347c0-0.382,0.31-0.691,0.688-0.691
		c0.53,0,0.961,0.431,0.961,0.958c0,0.004,0.001,0.01,0.001,0.015c-0.011,0.806-0.668,1.461-1.479,1.461
		c-0.001,0-0.002,0.001-0.002,0.001c-0.916-0.003-1.657-0.745-1.657-1.658c0-1.152,0.935-2.091,2.087-2.095h0.007
		c1.428,0,2.591,1.162,2.591,2.591c0,0.721-0.261,1.416-0.734,1.959c-0.003,0.002-0.004,0.003-0.006,0.005l-2.466,2.812
		l-4.544-3.586v-2.644h0.361c0.17,0,0.309-0.14,0.309-0.308v-2.347c0-0.168-0.139-0.309-0.309-0.309h-0.361v-1.223
		c0-3.541,2.347-4.825,4.618-6.068c0.315-0.171,0.612-0.334,0.894-0.497l3.603-1.938l0.119,0.22c0.082,0.152,0.274,0.21,0.426,0.128
		l2.107-1.133c0.154-0.081,0.211-0.274,0.128-0.428l-0.117-0.218l15.21-8.177c0.131-0.071,0.212-0.206,0.212-0.355v-2.787
		C345.384,126.92,345.203,126.74,344.981,126.74"/>
	<polygon fill="#4B4B4B" points="563.137,135.013 552.618,120.764 562.22,107.815 558.62,107.815 550.806,118.378 542.993,107.815 
		539.416,107.815 548.994,120.766 538.498,135.013 542.099,135.013 550.805,123.221 559.537,135.013 	"/>
	<polygon fill="#4B4B4B" points="491.502,135.013 481.007,120.764 490.584,107.815 487.008,107.815 479.194,118.378 
		471.383,107.815 467.782,107.815 477.383,120.766 466.864,135.013 470.463,135.013 479.194,123.221 487.901,135.013 	"/>
	<path fill="#4B4B4B" d="M511.483,121.793c-0.566-0.488-1.179-0.859-1.79-1.135c1.977-1.073,3.271-3.091,3.271-5.444
		c0-1.736-0.635-7.4-8.872-7.4h-11.085v11.732h-3.693c-0.495,0.618-1.577,2.112-2.002,2.723h5.695v12.742h11.085
		c6.024,0,9.767-3.041,9.767-7.94C513.859,124.933,513.036,123.111,511.483,121.793 M496.067,110.655h8.025
		c2.165,0,5.813,0.544,5.813,4.325c0,2.861-2.118,4.561-5.813,4.561h-8.025V110.655z M504.093,132.173h-8.025v-9.896h8.025
		c3.06,0,6.684,0.832,6.684,4.733C510.776,131.496,506.588,132.173,504.093,132.173"/>
	<path fill="#4B4B4B" d="M528.285,107.191c-7.696,0-13.062,5.841-13.062,14.208c0,8.37,5.365,14.214,13.062,14.214
		c7.647,0,13.015-5.844,13.015-14.214C541.3,113.032,535.934,107.191,528.285,107.191 M528.285,132.735
		c-5.86,0-9.955-4.659-9.955-11.337c0-6.672,4.095-11.329,9.955-11.329c5.836,0,9.906,4.657,9.906,11.329
		C538.192,128.076,534.121,132.735,528.285,132.735"/>
	<path fill="#4B4B4B" d="M643.574,123.782c-0.055-0.266,0.013-0.413,0.145-0.413c0.188,0,0.188,0.16,0.251,0.44
		c0.159,0.615,0.954,2.004,2.785,2.004c1.259,0,2.491-0.708,2.491-2.113c0-2.581-5.379-1.137-5.379-4.627
		c0-1.699,1.418-2.513,2.939-2.513c1.604,0,2.041,0.48,2.229,0.48c0.118,0,0.144-0.147,0.275-0.147c0.079,0,0.146,0.04,0.158,0.186
		l0.2,1.82c0.013,0.107-0.014,0.2-0.146,0.2c-0.146,0-0.237-0.281-0.277-0.401c-0.396-1.15-1.365-1.738-2.53-1.738
		c-1.048,0-2.16,0.508-2.16,1.738c0,2.514,5.378,1.043,5.378,4.734c0,1.123-0.779,2.813-3.787,2.813c-0.979,0-2.187-0.5-2.237-0.74
		L643.574,123.782z"/>
	<path fill="#4B4B4B" d="M643.574,123.782c-0.055-0.266,0.013-0.413,0.145-0.413c0.188,0,0.188,0.16,0.251,0.44
		c0.159,0.615,0.954,2.004,2.785,2.004c1.259,0,2.491-0.708,2.491-2.113c0-2.581-5.379-1.137-5.379-4.627
		c0-1.699,1.418-2.513,2.939-2.513c1.604,0,2.041,0.48,2.229,0.48c0.118,0,0.144-0.147,0.275-0.147c0.079,0,0.146,0.04,0.158,0.186
		l0.2,1.82c0.013,0.107-0.014,0.2-0.146,0.2c-0.146,0-0.237-0.281-0.277-0.401c-0.396-1.15-1.365-1.738-2.53-1.738
		c-1.048,0-2.16,0.508-2.16,1.738c0,2.514,5.378,1.043,5.378,4.734c0,1.123-0.779,2.813-3.787,2.813c-0.979,0-2.187-0.5-2.237-0.74
		L643.574,123.782z"/>
	<path fill="#4B4B4B" d="M658.062,123.857c0.134,0.326,0.414,0.879,0.414,1.144c0,0.457-0.801,0.337-0.801,0.624
		c0,0.119,0.213,0.119,0.292,0.119c0.361,0,0.724-0.052,1.083-0.052c0.549,0,1.098,0.052,1.646,0.052c0.093,0,0.187,0,0.187-0.108
		c0-0.298-0.775-0.035-1.176-0.588c-0.309-0.421-0.468-0.926-0.668-1.372l-2.779-6.176c-0.04-0.096-0.134-0.443-0.281-0.443
		c-0.174,0-0.214,0.192-1,1.703l-3.2,6.12c-0.348,0.684-0.977,0.48-0.977,0.733c0,0.071,0.04,0.131,0.12,0.131
		c0.347,0,0.708-0.052,1.069-0.052c0.375,0,0.748,0.052,1.12,0.052c0.176,0,0.362,0.036,0.362-0.18c0-0.312-0.948,0.049-0.948-0.793
		c0-0.155,0.055-0.336,0.094-0.421l0.854-1.686c0.134-0.252,0.375-0.252,0.628-0.252h2.941c0.373,0,0.454,0.18,0.587,0.457
		L658.062,123.857z M655.537,118.76c0.081-0.144,0.146-0.144,0.215,0l1.309,2.891c0.067,0.155,0.082,0.24-0.213,0.24h-2.646
		c-0.174,0-0.267-0.048-0.174-0.215L655.537,118.76z"/>
	<path fill="#4B4B4B" d="M658.062,123.857c0.134,0.326,0.414,0.879,0.414,1.144c0,0.457-0.801,0.337-0.801,0.624
		c0,0.119,0.213,0.119,0.292,0.119c0.361,0,0.724-0.052,1.083-0.052c0.549,0,1.098,0.052,1.646,0.052c0.093,0,0.187,0,0.187-0.108
		c0-0.298-0.775-0.035-1.176-0.588c-0.309-0.421-0.468-0.926-0.668-1.372l-2.779-6.176c-0.04-0.096-0.134-0.443-0.281-0.443
		c-0.174,0-0.214,0.192-1,1.703l-3.2,6.12c-0.348,0.684-0.977,0.48-0.977,0.733c0,0.071,0.04,0.131,0.12,0.131
		c0.347,0,0.708-0.052,1.069-0.052c0.375,0,0.748,0.052,1.12,0.052c0.176,0,0.362,0.036,0.362-0.18c0-0.312-0.948,0.049-0.948-0.793
		c0-0.155,0.055-0.336,0.094-0.421l0.854-1.686c0.134-0.252,0.375-0.252,0.628-0.252h2.941c0.373,0,0.454,0.18,0.587,0.457
		L658.062,123.857z M655.537,118.76c0.081-0.144,0.146-0.144,0.215,0l1.309,2.891c0.067,0.155,0.082,0.24-0.213,0.24h-2.646
		c-0.174,0-0.267-0.048-0.174-0.215L655.537,118.76z"/>
	<path fill="#4B4B4B" d="M668.633,123.857c0.135,0.326,0.415,0.879,0.415,1.144c0,0.457-0.802,0.337-0.802,0.624
		c0,0.119,0.213,0.119,0.295,0.119c0.359,0,0.72-0.052,1.082-0.052c0.547,0,1.095,0.052,1.643,0.052c0.094,0,0.188,0,0.188-0.108
		c0-0.298-0.775-0.035-1.175-0.588c-0.31-0.421-0.468-0.926-0.669-1.372l-2.779-6.176c-0.039-0.096-0.133-0.443-0.28-0.443
		c-0.175,0-0.214,0.192-1.002,1.703l-3.198,6.12c-0.349,0.684-0.977,0.48-0.977,0.733c0,0.071,0.04,0.131,0.12,0.131
		c0.347,0,0.708-0.052,1.068-0.052c0.374,0,0.749,0.052,1.124,0.052c0.174,0,0.358,0.036,0.358-0.18
		c0-0.312-0.948,0.049-0.948-0.793c0-0.155,0.055-0.336,0.094-0.421l0.854-1.686c0.134-0.252,0.375-0.252,0.63-0.252h2.94
		c0.372,0,0.452,0.18,0.587,0.457L668.633,123.857z M666.107,118.76c0.08-0.144,0.146-0.144,0.215,0l1.308,2.891
		c0.068,0.155,0.081,0.24-0.213,0.24h-2.646c-0.174,0-0.269-0.048-0.174-0.215L666.107,118.76z"/>
	<path fill="#4B4B4B" d="M668.633,123.857c0.135,0.326,0.415,0.879,0.415,1.144c0,0.457-0.802,0.337-0.802,0.624
		c0,0.119,0.213,0.119,0.295,0.119c0.359,0,0.72-0.052,1.082-0.052c0.547,0,1.095,0.052,1.643,0.052c0.094,0,0.188,0,0.188-0.108
		c0-0.298-0.775-0.035-1.175-0.588c-0.31-0.421-0.468-0.926-0.669-1.372l-2.779-6.176c-0.039-0.096-0.133-0.443-0.28-0.443
		c-0.175,0-0.214,0.192-1.002,1.703l-3.198,6.12c-0.349,0.684-0.977,0.48-0.977,0.733c0,0.071,0.04,0.131,0.12,0.131
		c0.347,0,0.708-0.052,1.068-0.052c0.374,0,0.749,0.052,1.124,0.052c0.174,0,0.358,0.036,0.358-0.18
		c0-0.312-0.948,0.049-0.948-0.793c0-0.155,0.055-0.336,0.094-0.421l0.854-1.686c0.134-0.252,0.375-0.252,0.63-0.252h2.94
		c0.372,0,0.452,0.18,0.587,0.457L668.633,123.857z M666.107,118.76c0.08-0.144,0.146-0.144,0.215,0l1.308,2.891
		c0.068,0.155,0.081,0.24-0.213,0.24h-2.646c-0.174,0-0.269-0.048-0.174-0.215L666.107,118.76z"/>
	<path fill="#4B4B4B" d="M674.188,118.362c0-0.083,0.056-0.54-0.133-0.552h-2.165c-0.821,0-0.849,0.18-1.088,0.841
		c-0.04,0.12-0.054,0.276-0.227,0.276c-0.082,0-0.136-0.084-0.136-0.144l0.147-1.165c0.013-0.144,0-0.466,0.24-0.466
		c1.036,0,2.059,0.05,3.772,0.05c2.42,0,3.648-0.05,3.915-0.05c0.306,0,0.37,0.07,0.384,0.346l0.066,0.96
		c0.013,0.121,0.026,0.264-0.146,0.264c-0.489,0,0.227-0.912-1.134-0.912h-1.909c-0.603,0-0.534-0.048-0.534,0.588v6.125
		c0,1.008,1.083,0.611,1.083,0.985c0,0.036,0.013,0.144-0.121,0.144c-0.32,0-0.694-0.052-1.081-0.052
		c-1.493,0-1.746,0.052-1.826,0.052c-0.12,0-0.159-0.037-0.159-0.157c0-0.288,1.049-0.168,1.049-0.888v-6.245H674.188z"/>
	<path fill="#4B4B4B" d="M674.188,118.362c0-0.083,0.056-0.54-0.133-0.552h-2.165c-0.821,0-0.849,0.18-1.088,0.841
		c-0.04,0.12-0.054,0.276-0.227,0.276c-0.082,0-0.136-0.084-0.136-0.144l0.147-1.165c0.013-0.144,0-0.466,0.24-0.466
		c1.036,0,2.059,0.05,3.772,0.05c2.42,0,3.648-0.05,3.915-0.05c0.306,0,0.37,0.07,0.384,0.346l0.066,0.96
		c0.013,0.121,0.026,0.264-0.146,0.264c-0.489,0,0.227-0.912-1.134-0.912h-1.909c-0.603,0-0.534-0.048-0.534,0.588v6.125
		c0,1.008,1.083,0.611,1.083,0.985c0,0.036,0.013,0.144-0.121,0.144c-0.32,0-0.694-0.052-1.081-0.052
		c-1.493,0-1.746,0.052-1.826,0.052c-0.12,0-0.159-0.037-0.159-0.157c0-0.288,1.049-0.168,1.049-0.888v-6.245H674.188z"/>
	<path fill="#4B4B4B" d="M684.499,117.054c2.507,0,3.201,0.924,3.587,0.924c0.108,0,0.188-0.12,0.321-0.12
		c0.146,0,0.146,0.192,0.187,0.974c0.026,0.638,0.146,1.034-0.079,1.034c-0.159,0-0.254-0.313-0.308-0.396
		c-0.827-1.287-1.773-2.07-3.494-2.07c-2.601,0-3.854,1.564-3.854,3.801c0,2.092,1.334,4.183,3.895,4.183
		c2.094,0,3.4-1.201,3.602-1.755c0.025-0.084,0.105-0.157,0.187-0.157c0.067,0,0.134,0.073,0.121,0.133l-0.308,1.203
		c-0.015,0.048-0.959,0.942-3.961,0.942c-2.734,0-4.694-1.688-4.694-4.177C679.698,119.085,681.686,117.054,684.499,117.054"/>
	<path fill="#4B4B4B" d="M684.499,117.054c2.507,0,3.201,0.924,3.587,0.924c0.108,0,0.188-0.12,0.321-0.12
		c0.146,0,0.146,0.192,0.187,0.974c0.026,0.638,0.146,1.034-0.079,1.034c-0.159,0-0.254-0.313-0.308-0.396
		c-0.827-1.287-1.773-2.07-3.494-2.07c-2.601,0-3.854,1.564-3.854,3.801c0,2.092,1.334,4.183,3.895,4.183
		c2.094,0,3.4-1.201,3.602-1.755c0.025-0.084,0.105-0.157,0.187-0.157c0.067,0,0.134,0.073,0.121,0.133l-0.308,1.203
		c-0.015,0.048-0.959,0.942-3.961,0.942c-2.734,0-4.694-1.688-4.694-4.177C679.698,119.085,681.686,117.054,684.499,117.054z"/>
	<path fill="#4B4B4B" d="M690.689,118.18c-0.013-0.874-1.161-0.635-1.161-0.899c0-0.108,0.105-0.131,0.213-0.131
		c0.494,0,0.975,0.051,1.471,0.051c0.415,0,0.829-0.051,1.242-0.051c0.226,0,0.253,0.071,0.253,0.12c0,0.24-0.959,0.011-0.959,0.91
		v2.59c0,0.167,0,0.216,0.198,0.216h4.88c0.133,0,0.105-0.301,0.105-0.349v-2.457c0-0.826-1-0.624-1-0.899
		c0-0.071,0.026-0.131,0.227-0.131c0.439,0,1.137,0.051,1.39,0.051c0.496,0,0.696-0.051,0.964-0.051c0.348,0,0.373,0.12,0.373,0.192
		c0,0.214-0.896,0.012-0.896,0.838v6.365c0,0.878,1.217,0.661,1.217,0.962c0,0.036-0.055,0.143-0.147,0.143
		c-0.36,0-0.774-0.052-1.257-0.052c-0.855,0-1.229,0.052-1.481,0.052c-0.121,0-0.32,0.036-0.32-0.157
		c0-0.287,0.934-0.119,0.934-0.876v-2.884c0-0.192,0.054-0.3-0.105-0.3h-4.919c-0.159,0-0.159,0.072-0.159,0.204v2.992
		c0,0.817,1.266,0.552,1.266,0.925c0,0.059-0.093,0.096-0.214,0.096c-0.173,0-1.146-0.052-1.854-0.052
		c-0.948,0-1.098,0.052-1.149,0.052c-0.105,0-0.146-0.059-0.146-0.18c0-0.348,1.042,0.049,1.042-1.142v-6.148H690.689z"/>
	<path fill="#4B4B4B" d="M690.689,118.18c-0.013-0.874-1.161-0.635-1.161-0.899c0-0.108,0.105-0.131,0.213-0.131
		c0.494,0,0.975,0.051,1.471,0.051c0.415,0,0.829-0.051,1.242-0.051c0.226,0,0.253,0.071,0.253,0.12c0,0.24-0.959,0.011-0.959,0.91
		v2.59c0,0.167,0,0.216,0.198,0.216h4.88c0.133,0,0.105-0.301,0.105-0.349v-2.457c0-0.826-1-0.624-1-0.899
		c0-0.071,0.026-0.131,0.227-0.131c0.439,0,1.137,0.051,1.39,0.051c0.496,0,0.696-0.051,0.964-0.051c0.348,0,0.373,0.12,0.373,0.192
		c0,0.214-0.896,0.012-0.896,0.838v6.365c0,0.878,1.217,0.661,1.217,0.962c0,0.036-0.055,0.143-0.147,0.143
		c-0.36,0-0.774-0.052-1.257-0.052c-0.855,0-1.229,0.052-1.481,0.052c-0.121,0-0.32,0.036-0.32-0.157
		c0-0.287,0.934-0.119,0.934-0.876v-2.884c0-0.192,0.054-0.3-0.105-0.3h-4.919c-0.159,0-0.159,0.072-0.159,0.204v2.992
		c0,0.817,1.266,0.552,1.266,0.925c0,0.059-0.093,0.096-0.214,0.096c-0.173,0-1.146-0.052-1.854-0.052
		c-0.948,0-1.098,0.052-1.149,0.052c-0.105,0-0.146-0.059-0.146-0.18c0-0.348,1.042,0.049,1.042-1.142v-6.148H690.689z"/>
	<path fill="#4B4B4B" d="M701.35,118.183c-0.013-0.876-1.047-0.636-1.047-0.9c0-0.108,0.026-0.131,0.129-0.131
		c0.479,0,0.944,0.05,1.424,0.05c0.4,0,0.802-0.05,1.201-0.05c0.207,0,0.245,0.023,0.245,0.119c0,0.287-0.93,0.012-0.93,0.912v6.448
		c0,0.817,1.149,0.541,1.149,0.9c0,0.084-0.039,0.121-0.259,0.121c-0.297,0-0.853-0.052-1.409-0.052
		c-0.789,0-1.06,0.052-1.239,0.052c-0.233,0-0.272-0.06-0.272-0.181c0-0.348,1.008,0.049,1.008-1.14V118.183L701.35,118.183z"/>
	<path fill="#4B4B4B" d="M701.35,118.183c-0.013-0.876-1.047-0.636-1.047-0.9c0-0.108,0.026-0.131,0.129-0.131
		c0.479,0,0.944,0.05,1.424,0.05c0.4,0,0.802-0.05,1.201-0.05c0.207,0,0.245,0.023,0.245,0.119c0,0.287-0.93,0.012-0.93,0.912v6.448
		c0,0.817,1.149,0.541,1.149,0.9c0,0.084-0.039,0.121-0.259,0.121c-0.297,0-0.853-0.052-1.409-0.052
		c-0.789,0-1.06,0.052-1.239,0.052c-0.233,0-0.272-0.06-0.272-0.181c0-0.348,1.008,0.049,1.008-1.14V118.183L701.35,118.183z"/>
	<path fill="#4B4B4B" d="M714.073,117.235c0-0.12,0.026-0.373-0.16-0.373c-0.121,0-0.174,0.12-0.241,0.12
		c-0.066,0-0.574-0.361-1.432-0.361c-1.084,0-2.169,0.6-2.169,1.816c0,0.561,0.269,1.095,0.614,1.522
		c-1.431,0.305-2.132,1.409-2.132,2.843c0,2.089,1.718,3.381,3.687,3.381c1.312,0,2.328-0.451,3.293-1.345
		c0.734,0.582,1.468,1.345,2.471,1.345c0.441,0,1.11-0.201,1.11-0.428c0-0.026-0.014-0.107-0.106-0.107s-0.228,0.066-0.495,0.066
		c-0.602,0-1.859-1.297-2.364-1.697c0.427-0.764,0.533-1.619,0.625-2.462c0.066-0.588,0.575-0.442,0.575-0.654
		c0-0.133-0.064-0.16-0.187-0.16c-0.456,0-0.682,0.053-0.854,0.053c-0.2,0-0.67-0.053-1.164-0.053c-0.106,0-0.308-0.026-0.308,0.12
		c0,0.427,1.259-0.106,1.259,1.457c0,0.562-0.055,1.043-0.39,1.417c-2.891-2.675-4.872-4.786-4.872-5.682
		c0-0.643,0.495-1.085,1.11-1.085c0.817,0,1.514,0.709,1.834,1.405c0.041,0.081,0.08,0.241,0.2,0.241
		c0.055,0,0.134-0.04,0.134-0.107L714.073,117.235z M712.695,125.401c-1.728,0-3.428-1.5-3.428-3.283
		c0-0.777,0.616-1.828,1.459-1.828c0.481,0,1.5,1.801,4.362,4.253C714.436,125.106,713.553,125.401,712.695,125.401"/>
	<path fill="#4B4B4B" d="M714.073,117.235c0-0.12,0.026-0.373-0.16-0.373c-0.121,0-0.174,0.12-0.241,0.12
		c-0.066,0-0.574-0.361-1.432-0.361c-1.084,0-2.169,0.6-2.169,1.816c0,0.561,0.269,1.095,0.614,1.522
		c-1.431,0.305-2.132,1.409-2.132,2.843c0,2.089,1.718,3.381,3.687,3.381c1.312,0,2.328-0.451,3.293-1.345
		c0.734,0.582,1.468,1.345,2.471,1.345c0.441,0,1.11-0.201,1.11-0.428c0-0.026-0.014-0.107-0.106-0.107s-0.228,0.066-0.495,0.066
		c-0.602,0-1.859-1.297-2.364-1.697c0.427-0.764,0.533-1.619,0.625-2.462c0.066-0.588,0.575-0.442,0.575-0.654
		c0-0.133-0.064-0.16-0.187-0.16c-0.456,0-0.682,0.053-0.854,0.053c-0.2,0-0.67-0.053-1.164-0.053c-0.106,0-0.308-0.026-0.308,0.12
		c0,0.427,1.259-0.106,1.259,1.457c0,0.562-0.055,1.043-0.39,1.417c-2.891-2.675-4.872-4.786-4.872-5.682
		c0-0.643,0.495-1.085,1.11-1.085c0.817,0,1.514,0.709,1.834,1.405c0.041,0.081,0.08,0.241,0.2,0.241
		c0.055,0,0.134-0.04,0.134-0.107L714.073,117.235z M712.695,125.401c-1.728,0-3.428-1.5-3.428-3.283
		c0-0.777,0.616-1.828,1.459-1.828c0.481,0,1.5,1.801,4.362,4.253C714.436,125.106,713.553,125.401,712.695,125.401z"/>
	<path fill="#4B4B4B" d="M723.494,123.782c-0.052-0.266,0.014-0.413,0.145-0.413c0.188,0,0.188,0.16,0.252,0.44
		c0.158,0.615,0.953,2.004,2.785,2.004c1.258,0,2.491-0.708,2.491-2.113c0-2.581-5.378-1.137-5.378-4.627
		c0-1.699,1.416-2.513,2.938-2.513c1.604,0,2.041,0.48,2.229,0.48c0.118,0,0.145-0.147,0.277-0.147c0.078,0,0.146,0.04,0.158,0.186
		l0.198,1.82c0.013,0.107-0.014,0.2-0.145,0.2c-0.147,0-0.239-0.281-0.278-0.401c-0.398-1.15-1.364-1.738-2.531-1.738
		c-1.047,0-2.16,0.508-2.16,1.738c0,2.514,5.381,1.043,5.381,4.734c0,1.123-0.782,2.813-3.788,2.813c-0.981,0-2.188-0.5-2.24-0.74
		L723.494,123.782z"/>
	<path fill="#4B4B4B" d="M723.494,123.782c-0.052-0.266,0.014-0.413,0.145-0.413c0.188,0,0.188,0.16,0.252,0.44
		c0.158,0.615,0.953,2.004,2.785,2.004c1.258,0,2.491-0.708,2.491-2.113c0-2.581-5.378-1.137-5.378-4.627
		c0-1.699,1.416-2.513,2.938-2.513c1.604,0,2.041,0.48,2.229,0.48c0.118,0,0.145-0.147,0.277-0.147c0.078,0,0.146,0.04,0.158,0.186
		l0.198,1.82c0.013,0.107-0.014,0.2-0.145,0.2c-0.147,0-0.239-0.281-0.278-0.401c-0.398-1.15-1.364-1.738-2.531-1.738
		c-1.047,0-2.16,0.508-2.16,1.738c0,2.514,5.381,1.043,5.381,4.734c0,1.123-0.782,2.813-3.788,2.813c-0.981,0-2.188-0.5-2.24-0.74
		L723.494,123.782z"/>
	<path fill="#4B4B4B" d="M737.996,123.857c0.132,0.326,0.413,0.879,0.413,1.144c0,0.457-0.802,0.337-0.802,0.624
		c0,0.119,0.214,0.119,0.294,0.119c0.359,0,0.722-0.052,1.083-0.052c0.548,0,1.096,0.052,1.644,0.052c0.094,0,0.188,0,0.188-0.108
		c0-0.298-0.776-0.035-1.179-0.588c-0.307-0.421-0.467-0.926-0.667-1.372l-2.778-6.176c-0.039-0.096-0.134-0.443-0.28-0.443
		c-0.174,0-0.214,0.192-1.002,1.703l-3.2,6.12c-0.346,0.684-0.975,0.48-0.975,0.733c0,0.071,0.04,0.131,0.12,0.131
		c0.347,0,0.707-0.052,1.067-0.052c0.374,0,0.748,0.052,1.123,0.052c0.174,0,0.36,0.036,0.36-0.18c0-0.312-0.948,0.049-0.948-0.793
		c0-0.155,0.053-0.336,0.093-0.421l0.855-1.686c0.134-0.252,0.375-0.252,0.628-0.252h2.939c0.375,0,0.455,0.18,0.589,0.457
		L737.996,123.857z M735.47,118.76c0.079-0.144,0.147-0.144,0.214,0l1.311,2.891c0.064,0.155,0.08,0.24-0.214,0.24h-2.646
		c-0.174,0-0.267-0.048-0.174-0.215L735.47,118.76z"/>
	<path fill="#4B4B4B" d="M737.996,123.857c0.132,0.326,0.413,0.879,0.413,1.144c0,0.457-0.802,0.337-0.802,0.624
		c0,0.119,0.214,0.119,0.294,0.119c0.359,0,0.722-0.052,1.083-0.052c0.548,0,1.096,0.052,1.644,0.052c0.094,0,0.188,0,0.188-0.108
		c0-0.298-0.776-0.035-1.179-0.588c-0.307-0.421-0.467-0.926-0.667-1.372l-2.778-6.176c-0.039-0.096-0.134-0.443-0.28-0.443
		c-0.174,0-0.214,0.192-1.002,1.703l-3.2,6.12c-0.346,0.684-0.975,0.48-0.975,0.733c0,0.071,0.04,0.131,0.12,0.131
		c0.347,0,0.707-0.052,1.067-0.052c0.374,0,0.748,0.052,1.123,0.052c0.174,0,0.36,0.036,0.36-0.18c0-0.312-0.948,0.049-0.948-0.793
		c0-0.155,0.053-0.336,0.093-0.421l0.855-1.686c0.134-0.252,0.375-0.252,0.628-0.252h2.939c0.375,0,0.455,0.18,0.589,0.457
		L737.996,123.857z M735.47,118.76c0.079-0.144,0.147-0.144,0.214,0l1.311,2.891c0.064,0.155,0.08,0.24-0.214,0.24h-2.646
		c-0.174,0-0.267-0.048-0.174-0.215L735.47,118.76z"/>
	<path fill="#4B4B4B" d="M748.564,123.857c0.134,0.326,0.414,0.879,0.414,1.144c0,0.457-0.802,0.337-0.802,0.624
		c0,0.119,0.216,0.119,0.293,0.119c0.361,0,0.724-0.052,1.084-0.052c0.548,0,1.097,0.052,1.644,0.052c0.094,0,0.187,0,0.187-0.108
		c0-0.298-0.773-0.035-1.176-0.588c-0.307-0.421-0.467-0.926-0.668-1.372l-2.78-6.176c-0.039-0.096-0.132-0.443-0.277-0.443
		c-0.176,0-0.215,0.192-1.004,1.703l-3.198,6.12c-0.348,0.684-0.976,0.48-0.976,0.733c0,0.071,0.039,0.131,0.118,0.131
		c0.351,0,0.71-0.052,1.07-0.052c0.374,0,0.749,0.052,1.123,0.052c0.174,0,0.359,0.036,0.359-0.18c0-0.312-0.947,0.049-0.947-0.793
		c0-0.155,0.053-0.336,0.093-0.421l0.854-1.686c0.134-0.252,0.375-0.252,0.63-0.252h2.938c0.374,0,0.455,0.18,0.588,0.457
		L748.564,123.857z M746.04,118.76c0.081-0.144,0.147-0.144,0.214,0l1.311,2.891c0.065,0.155,0.08,0.24-0.215,0.24h-2.646
		c-0.175,0-0.269-0.048-0.175-0.215L746.04,118.76z"/>
	<path fill="#4B4B4B" d="M748.564,123.857c0.134,0.326,0.414,0.879,0.414,1.144c0,0.457-0.802,0.337-0.802,0.624
		c0,0.119,0.216,0.119,0.293,0.119c0.361,0,0.724-0.052,1.084-0.052c0.548,0,1.097,0.052,1.644,0.052c0.094,0,0.187,0,0.187-0.108
		c0-0.298-0.773-0.035-1.176-0.588c-0.307-0.421-0.467-0.926-0.668-1.372l-2.78-6.176c-0.039-0.096-0.132-0.443-0.277-0.443
		c-0.176,0-0.215,0.192-1.004,1.703l-3.198,6.12c-0.348,0.684-0.976,0.48-0.976,0.733c0,0.071,0.039,0.131,0.118,0.131
		c0.351,0,0.71-0.052,1.07-0.052c0.374,0,0.749,0.052,1.123,0.052c0.174,0,0.359,0.036,0.359-0.18c0-0.312-0.947,0.049-0.947-0.793
		c0-0.155,0.053-0.336,0.093-0.421l0.854-1.686c0.134-0.252,0.375-0.252,0.63-0.252h2.938c0.374,0,0.455,0.18,0.588,0.457
		L748.564,123.857z M746.04,118.76c0.081-0.144,0.147-0.144,0.214,0l1.311,2.891c0.065,0.155,0.08,0.24-0.215,0.24h-2.646
		c-0.175,0-0.269-0.048-0.175-0.215L746.04,118.76z"/>
	<path fill="#4B4B4B" d="M754.109,118.362c0-0.083,0.053-0.54-0.133-0.552h-2.164c-0.823,0-0.853,0.18-1.091,0.841
		c-0.04,0.12-0.054,0.276-0.227,0.276c-0.081,0-0.134-0.084-0.134-0.144l0.147-1.165c0.013-0.144,0-0.466,0.238-0.466
		c1.036,0,2.06,0.05,3.774,0.05c2.418,0,3.646-0.05,3.914-0.05c0.305,0,0.37,0.07,0.385,0.346l0.065,0.96
		c0.013,0.121,0.025,0.264-0.146,0.264c-0.492,0,0.227-0.912-1.133-0.912h-1.911c-0.601,0-0.534-0.048-0.534,0.588v6.125
		c0,1.008,1.083,0.611,1.083,0.985c0,0.036,0.014,0.144-0.122,0.144c-0.318,0-0.692-0.052-1.081-0.052
		c-1.492,0-1.745,0.052-1.824,0.052c-0.12,0-0.159-0.037-0.159-0.157c0-0.288,1.05-0.168,1.05-0.888L754.109,118.362
		L754.109,118.362z"/>
	<path fill="#4B4B4B" d="M754.109,118.362c0-0.083,0.053-0.54-0.133-0.552h-2.164c-0.823,0-0.853,0.18-1.091,0.841
		c-0.04,0.12-0.054,0.276-0.227,0.276c-0.081,0-0.134-0.084-0.134-0.144l0.147-1.165c0.013-0.144,0-0.466,0.238-0.466
		c1.036,0,2.06,0.05,3.774,0.05c2.418,0,3.646-0.05,3.914-0.05c0.305,0,0.37,0.07,0.385,0.346l0.065,0.96
		c0.013,0.121,0.025,0.264-0.146,0.264c-0.492,0,0.227-0.912-1.133-0.912h-1.911c-0.601,0-0.534-0.048-0.534,0.588v6.125
		c0,1.008,1.083,0.611,1.083,0.985c0,0.036,0.014,0.144-0.122,0.144c-0.318,0-0.692-0.052-1.081-0.052
		c-1.492,0-1.745,0.052-1.824,0.052c-0.12,0-0.159-0.037-0.159-0.157c0-0.288,1.05-0.168,1.05-0.888L754.109,118.362
		L754.109,118.362z"/>
	<path fill="#4B4B4B" d="M764.421,117.054c2.507,0,3.199,0.924,3.587,0.924c0.106,0,0.188-0.12,0.319-0.12
		c0.146,0,0.146,0.192,0.188,0.974c0.025,0.638,0.146,1.034-0.08,1.034c-0.161,0-0.253-0.313-0.308-0.396
		c-0.826-1.287-1.773-2.07-3.493-2.07c-2.603,0-3.854,1.564-3.854,3.801c0,2.092,1.334,4.183,3.896,4.183
		c2.093,0,3.399-1.201,3.601-1.755c0.027-0.084,0.107-0.157,0.188-0.157c0.067,0,0.134,0.073,0.12,0.133l-0.308,1.203
		c-0.014,0.048-0.961,0.942-3.961,0.942c-2.733,0-4.694-1.688-4.694-4.177C759.618,119.085,761.605,117.054,764.421,117.054"/>
	<path fill="#4B4B4B" d="M764.421,117.054c2.507,0,3.199,0.924,3.587,0.924c0.106,0,0.188-0.12,0.319-0.12
		c0.146,0,0.146,0.192,0.188,0.974c0.025,0.638,0.146,1.034-0.08,1.034c-0.161,0-0.253-0.313-0.308-0.396
		c-0.826-1.287-1.773-2.07-3.493-2.07c-2.603,0-3.854,1.564-3.854,3.801c0,2.092,1.334,4.183,3.896,4.183
		c2.093,0,3.399-1.201,3.601-1.755c0.027-0.084,0.107-0.157,0.188-0.157c0.067,0,0.134,0.073,0.12,0.133l-0.308,1.203
		c-0.014,0.048-0.961,0.942-3.961,0.942c-2.733,0-4.694-1.688-4.694-4.177C759.618,119.085,761.605,117.054,764.421,117.054z"/>
	<path fill="#4B4B4B" d="M770.61,118.18c-0.014-0.874-1.16-0.635-1.16-0.899c0-0.108,0.104-0.131,0.213-0.131
		c0.493,0,0.974,0.051,1.469,0.051c0.416,0,0.83-0.051,1.242-0.051c0.228,0,0.254,0.071,0.254,0.12c0,0.24-0.96,0.011-0.96,0.91
		v2.59c0,0.167,0,0.216,0.2,0.216h4.878c0.135,0,0.105-0.301,0.105-0.349v-2.457c0-0.826-1-0.624-1-0.899
		c0-0.071,0.027-0.131,0.229-0.131c0.439,0,1.134,0.051,1.388,0.051c0.496,0,0.698-0.051,0.964-0.051
		c0.348,0,0.375,0.12,0.375,0.192c0,0.214-0.896,0.012-0.896,0.838v6.365c0,0.878,1.215,0.661,1.215,0.962
		c0,0.036-0.053,0.143-0.146,0.143c-0.36,0-0.773-0.052-1.257-0.052c-0.855,0-1.229,0.052-1.481,0.052
		c-0.12,0-0.321,0.036-0.321-0.157c0-0.287,0.935-0.119,0.935-0.876v-2.884c0-0.192,0.055-0.3-0.106-0.3h-4.918
		c-0.16,0-0.16,0.072-0.16,0.204v2.992c0,0.817,1.267,0.552,1.267,0.925c0,0.059-0.094,0.096-0.214,0.096
		c-0.174,0-1.146-0.052-1.854-0.052c-0.949,0-1.097,0.052-1.149,0.052c-0.105,0-0.146-0.059-0.146-0.18
		c0-0.348,1.042,0.049,1.042-1.142v-6.148H770.61z"/>
	<path fill="#4B4B4B" d="M770.61,118.18c-0.014-0.874-1.16-0.635-1.16-0.899c0-0.108,0.104-0.131,0.213-0.131
		c0.493,0,0.974,0.051,1.469,0.051c0.416,0,0.83-0.051,1.242-0.051c0.228,0,0.254,0.071,0.254,0.12c0,0.24-0.96,0.011-0.96,0.91
		v2.59c0,0.167,0,0.216,0.2,0.216h4.878c0.135,0,0.105-0.301,0.105-0.349v-2.457c0-0.826-1-0.624-1-0.899
		c0-0.071,0.027-0.131,0.229-0.131c0.439,0,1.134,0.051,1.388,0.051c0.496,0,0.698-0.051,0.964-0.051
		c0.348,0,0.375,0.12,0.375,0.192c0,0.214-0.896,0.012-0.896,0.838v6.365c0,0.878,1.215,0.661,1.215,0.962
		c0,0.036-0.053,0.143-0.146,0.143c-0.36,0-0.773-0.052-1.257-0.052c-0.855,0-1.229,0.052-1.481,0.052
		c-0.12,0-0.321,0.036-0.321-0.157c0-0.287,0.935-0.119,0.935-0.876v-2.884c0-0.192,0.055-0.3-0.106-0.3h-4.918
		c-0.16,0-0.16,0.072-0.16,0.204v2.992c0,0.817,1.267,0.552,1.267,0.925c0,0.059-0.094,0.096-0.214,0.096
		c-0.174,0-1.146-0.052-1.854-0.052c-0.949,0-1.097,0.052-1.149,0.052c-0.105,0-0.146-0.059-0.146-0.18
		c0-0.348,1.042,0.049,1.042-1.142v-6.148H770.61z"/>
	<path fill="#4B4B4B" d="M781.27,118.183c-0.013-0.876-1.046-0.636-1.046-0.9c0-0.108,0.026-0.131,0.13-0.131
		c0.479,0,0.942,0.05,1.422,0.05c0.4,0,0.802-0.05,1.201-0.05c0.207,0,0.246,0.023,0.246,0.119c0,0.287-0.931,0.012-0.931,0.912
		v6.448c0,0.817,1.149,0.541,1.149,0.9c0,0.084-0.038,0.121-0.26,0.121c-0.297,0-0.851-0.052-1.408-0.052
		c-0.789,0-1.061,0.052-1.239,0.052c-0.233,0-0.272-0.06-0.272-0.181c0-0.348,1.008,0.049,1.008-1.14V118.183z"/>
	<path fill="#4B4B4B" d="M781.27,118.183c-0.013-0.876-1.046-0.636-1.046-0.9c0-0.108,0.026-0.131,0.13-0.131
		c0.479,0,0.942,0.05,1.422,0.05c0.4,0,0.802-0.05,1.201-0.05c0.207,0,0.246,0.023,0.246,0.119c0,0.287-0.931,0.012-0.931,0.912
		v6.448c0,0.817,1.149,0.541,1.149,0.9c0,0.084-0.038,0.121-0.26,0.121c-0.297,0-0.851-0.052-1.408-0.052
		c-0.789,0-1.061,0.052-1.239,0.052c-0.233,0-0.272-0.06-0.272-0.181c0-0.348,1.008,0.049,1.008-1.14V118.183z"/>
	<rect x="895.636" y="115.296" fill="#4B4B4B" width="4.191" height="15.986"/>
	<polygon fill="#4B4B4B" points="956.952,124.466 956.952,131.22 952.736,131.205 952.736,114.803 960.328,121.338 960.328,115.296 
		964.511,115.296 964.511,131.871 	"/>
	<path fill="#4B4B4B" d="M874.559,123.246c0-4.537,3.685-8.219,8.222-8.219c2.045,0,3.916,0.752,5.354,1.988l-2.717,3.082
		c-0.712-0.6-1.632-0.96-2.639-0.96c-2.271,0-4.109,1.841-4.109,4.109s1.84,4.109,4.109,4.109c1.021,0,1.958-0.377,2.68-0.996
		l2.711,3.087c-1.439,1.256-3.326,2.014-5.391,2.014C878.242,131.459,874.559,127.782,874.559,123.246"/>
	<polygon fill="#4B4B4B" points="907.807,134.938 899.877,113.872 893.251,113.872 893.251,131.341 888.912,131.341 
		888.912,113.872 879.311,113.872 881.538,109.677 902.977,109.677 907.807,122.299 912.645,109.677 933.398,109.677 
		935.688,113.872 915.741,113.872 	"/>
	<path fill="#4B4B4B" d="M921.203,131.22v-3.529h2.879c0.469,0,1.357-0.036,1.581-0.779c0.464-1.545-4.278-4.053-4.278-7.898
		c0-2.91,2.107-3.779,3.537-3.779h4.361v3.469h-2.693c0,0-0.773,0-0.986,0.31c-1.17,1.673,4.332,4.12,4.332,8.615
		c0,2.35-2.014,3.591-4.022,3.591H921.203z"/>
	<rect x="915.801" y="115.235" fill="#4B4B4B" width="4.197" height="15.985"/>
	<rect x="930.616" y="115.235" fill="#4B4B4B" width="4.196" height="15.985"/>
	<path fill="#4B4B4B" d="M866.331,124.033h2.477l-1.241-4.09L866.331,124.033z M871.376,131.281l-1.114-2.975h-5.203l-1.112,2.975
		h-4.461l8.179-23.416l8.178,23.416H871.376z"/>
	<path fill="#4B4B4B" d="M939.72,123.24c0,2.258,1.832,4.089,4.091,4.089c2.254,0,4.084-1.831,4.084-4.089
		c0-2.253-1.83-4.084-4.084-4.084C941.552,119.156,939.72,120.987,939.72,123.24 M935.576,123.24c0-4.542,3.687-8.229,8.234-8.229
		c4.541,0,8.229,3.688,8.229,8.229c0,4.547-3.688,8.234-8.229,8.234C939.263,131.474,935.576,127.787,935.576,123.24"/>
	<polygon fill="#4B4B4B" points="69.866,305.325 69.866,329.577 74.051,329.577 74.051,318.904 80.909,318.904 80.909,314.982 
		74.085,314.982 74.085,309.282 81.469,309.282 81.469,305.325 	"/>
	<path fill="#4B4B4B" d="M84.937,305.325l-5.454,24.252h4.435l1.364-6.054h4.726l1.33,6.054h4.473l-5.456-24.252H84.937z
		 M89.491,319.636h-3.689l1.835-8.189l0.004-0.025c0.001-0.008,0.004-0.018,0.005-0.024L89.491,319.636z"/>
	<polygon fill="#4B4B4B" points="97.943,305.325 95.716,307.552 95.716,327.35 97.943,329.577 106.719,329.577 108.876,327.42 
		108.876,319.453 104.674,320.124 104.674,325.794 99.918,325.794 99.918,309.107 104.674,309.107 104.674,314.224 108.876,313.554 
		108.876,307.55 106.611,305.325 	"/>
	<polygon fill="#4B4B4B" points="109.373,309.317 114.132,309.317 114.132,329.577 118.334,329.577 118.334,309.317 
		123.128,309.317 123.128,305.325 109.373,305.325 	"/>
	<path fill="#4B4B4B" d="M125.815,305.325l-2.192,2.19v19.871l2.23,2.19h9.226l2.229-2.19v-19.871l-2.192-2.19H125.815z
		 M127.826,309.107h5.28v16.687h-5.28V309.107z"/>
	<path fill="#4B4B4B" d="M138.009,305.325v24.252h4.201v-10.778H147v10.778h4.203v-11.148l-1.523-1.46l1.523-1.554v-7.823
		l-2.188-2.267H138.009L138.009,305.325z M147,315.122h-4.79v-6.12H147V315.122z"/>
	<polygon fill="#4B4B4B" points="161.583,305.325 158.444,314.322 155.303,305.325 150.747,305.325 156.343,319.967 
		156.343,329.577 160.544,329.577 160.544,319.967 166.139,305.325 	"/>
	<polygon fill="#4B4B4B" points="288.259,297.497 288.306,297.497 292.992,311.641 294.951,311.641 299.132,296.052 
		297.746,296.052 294.071,310.237 294.028,310.237 289.185,296.052 287.447,296.052 282.802,310.237 282.758,310.237 
		279.061,296.052 277.543,296.052 281.681,311.641 283.706,311.641 	"/>
	<polygon fill="#4B4B4B" points="288.259,297.497 288.306,297.497 292.992,311.641 294.951,311.641 299.132,296.052 
		297.746,296.052 294.071,310.237 294.028,310.237 289.185,296.052 287.447,296.052 282.802,310.237 282.758,310.237 
		279.061,296.052 277.543,296.052 281.681,311.641 283.706,311.641 	"/>
	<path fill="#4B4B4B" d="M302.655,296.052h-1.392v1.619h1.392V296.052z M301.364,311.641h1.191v-10.84h-1.191V311.641z"/>
	<path fill="#4B4B4B" d="M302.655,296.052h-1.392v1.619h1.392V296.052z M301.364,311.641h1.191v-10.84h-1.191V311.641z"/>
	<path fill="#4B4B4B" d="M307.198,305.364c0.175-1.891,1.311-3.656,3.454-3.656c2.273,0,3.41,1.57,3.564,3.656H307.198z
		 M315.637,306.548c0-3.375-1.333-6.023-5.006-6.023c-3.257,0-4.897,2.797-4.897,5.721c0,2.949,1.529,5.722,4.81,5.722
		c2.643,0,4.284-1.183,4.96-3.763h-1.376c-0.327,1.483-1.616,2.58-3.17,2.58c-2.688,0-3.759-1.937-3.803-4.237H315.637z"/>
	<path fill="#4B4B4B" d="M307.198,305.364c0.175-1.891,1.311-3.656,3.454-3.656c2.273,0,3.41,1.57,3.564,3.656H307.198z
		 M315.637,306.548c0-3.375-1.333-6.023-5.006-6.023c-3.257,0-4.897,2.797-4.897,5.721c0,2.949,1.529,5.722,4.81,5.722
		c2.643,0,4.284-1.183,4.96-3.763h-1.376c-0.327,1.483-1.616,2.58-3.17,2.58c-2.688,0-3.759-1.937-3.803-4.237H315.637z"/>
	<path fill="#4B4B4B" d="M326.319,311.643h1.355c-0.044-0.732-0.109-1.599-0.109-2.438v-13.152h-1.309v6.349l-0.044,0.043
		c-0.766-1.273-2.295-1.966-3.757-1.966c-3.257,0-4.501,2.896-4.501,5.703c0,2.721,1.244,5.786,4.501,5.786
		c1.529,0,2.86-0.711,3.757-2.007l0.044,0.084L326.319,311.643z M326.212,305.964c0,2.461-0.876,4.816-3.736,4.816
		c-2.513,0-3.102-2.743-3.102-4.75c0-2.073,0.808-4.364,3.297-4.364C325.228,301.666,326.212,303.762,326.212,305.964"/>
	<path fill="#4B4B4B" d="M326.319,311.643h1.355c-0.044-0.732-0.109-1.599-0.109-2.438v-13.152h-1.309v6.349l-0.044,0.043
		c-0.766-1.273-2.295-1.966-3.757-1.966c-3.257,0-4.501,2.896-4.501,5.703c0,2.721,1.244,5.786,4.501,5.786
		c1.529,0,2.86-0.711,3.757-2.007l0.044,0.084L326.319,311.643z M326.212,305.964c0,2.461-0.876,4.816-3.736,4.816
		c-2.513,0-3.102-2.743-3.102-4.75c0-2.073,0.808-4.364,3.297-4.364C325.228,301.666,326.212,303.762,326.212,305.964z"/>
	<path fill="#4B4B4B" d="M331.939,305.364c0.176-1.891,1.312-3.656,3.455-3.656c2.274,0,3.41,1.57,3.563,3.656H331.939z
		 M340.378,306.548c0-3.375-1.333-6.023-5.007-6.023c-3.256,0-4.897,2.797-4.897,5.721c0,2.949,1.531,5.722,4.811,5.722
		c2.644,0,4.284-1.183,4.96-3.763h-1.375c-0.329,1.483-1.618,2.58-3.171,2.58c-2.688,0-3.76-1.937-3.803-4.237H340.378z"/>
	<path fill="#4B4B4B" d="M331.939,305.364c0.176-1.891,1.312-3.656,3.455-3.656c2.274,0,3.41,1.57,3.563,3.656H331.939z
		 M340.378,306.548c0-3.375-1.333-6.023-5.007-6.023c-3.256,0-4.897,2.797-4.897,5.721c0,2.949,1.531,5.722,4.811,5.722
		c2.644,0,4.284-1.183,4.96-3.763h-1.375c-0.329,1.483-1.618,2.58-3.171,2.58c-2.688,0-3.76-1.937-3.803-4.237H340.378z"/>
	<path fill="#4B4B4B" d="M344.885,305.428c0-1.935,0.982-3.721,3.142-3.721c1.785,0,2.876,1.098,2.876,2.968v6.965h1.308v-6.75
		c0-1.246-0.285-4.365-3.859-4.365c-1.415,0-2.66,0.623-3.423,1.958l-0.044-0.044l-0.066-1.592h-1.35
		c0.044,0.732,0.109,1.592,0.109,2.43v8.363h1.307V305.428z"/>
	<path fill="#4B4B4B" d="M344.885,305.428c0-1.935,0.982-3.721,3.142-3.721c1.785,0,2.876,1.098,2.876,2.968v6.965h1.308v-6.75
		c0-1.246-0.285-4.365-3.859-4.365c-1.415,0-2.66,0.623-3.423,1.958l-0.044-0.044l-0.066-1.592h-1.35
		c0.044,0.732,0.109,1.592,0.109,2.43v8.363h1.307V305.428z"/>
	<polygon fill="#4B4B4B" points="269.837,334.659 269.859,326.521 277.366,334.659 279.295,334.659 271.421,326.11 278.644,319.071 
		276.865,319.071 269.859,325.935 269.837,319.071 268.449,319.071 268.449,334.659 	"/>
	<polygon fill="#4B4B4B" points="269.837,334.659 269.859,326.521 277.366,334.659 279.295,334.659 271.421,326.11 278.644,319.071 
		276.865,319.071 269.859,325.935 269.837,319.071 268.449,319.071 268.449,334.659 	"/>
	<path fill="#4B4B4B" d="M282.333,328.384c0.176-1.892,1.312-3.656,3.454-3.656c2.274,0,3.411,1.569,3.564,3.656H282.333z
		 M290.771,329.567c0-3.377-1.332-6.022-5.006-6.022c-3.256,0-4.897,2.796-4.897,5.721c0,2.948,1.53,5.722,4.81,5.722
		c2.645,0,4.284-1.184,4.96-3.764h-1.375c-0.328,1.483-1.617,2.58-3.17,2.58c-2.689,0-3.76-1.936-3.804-4.235L290.771,329.567
		L290.771,329.567z"/>
	<path fill="#4B4B4B" d="M282.333,328.384c0.176-1.892,1.312-3.656,3.454-3.656c2.274,0,3.411,1.569,3.564,3.656H282.333z
		 M290.771,329.567c0-3.377-1.332-6.022-5.006-6.022c-3.256,0-4.897,2.796-4.897,5.721c0,2.948,1.53,5.722,4.81,5.722
		c2.645,0,4.284-1.184,4.96-3.764h-1.375c-0.328,1.483-1.617,2.58-3.17,2.58c-2.689,0-3.76-1.936-3.804-4.235L290.771,329.567
		L290.771,329.567z"/>
	<path fill="#4B4B4B" d="M295.278,328.446c0-1.936,0.981-3.721,3.141-3.721c1.785,0,2.877,1.098,2.877,2.968v6.965h1.307v-6.75
		c0-1.247-0.284-4.363-3.858-4.363c-1.416,0-2.66,0.623-3.424,1.957l-0.043-0.045l-0.066-1.592h-1.35
		c0.044,0.731,0.108,1.592,0.108,2.431v8.362h1.308V328.446z"/>
	<path fill="#4B4B4B" d="M295.278,328.446c0-1.936,0.981-3.721,3.141-3.721c1.785,0,2.877,1.098,2.877,2.968v6.965h1.307v-6.75
		c0-1.247-0.284-4.363-3.858-4.363c-1.416,0-2.66,0.623-3.424,1.957l-0.043-0.045l-0.066-1.592h-1.35
		c0.044,0.731,0.108,1.592,0.108,2.431v8.362h1.308V328.446z"/>
	<path fill="#4B4B4B" d="M307.587,328.446c0-1.936,0.982-3.721,3.141-3.721c1.785,0,2.877,1.098,2.877,2.968v6.965h1.307v-6.75
		c0-1.247-0.284-4.363-3.858-4.363c-1.416,0-2.66,0.623-3.424,1.957l-0.043-0.045l-0.066-1.592h-1.35
		c0.044,0.731,0.109,1.592,0.109,2.431v8.362h1.307V328.446z"/>
	<path fill="#4B4B4B" d="M307.587,328.446c0-1.936,0.982-3.721,3.141-3.721c1.785,0,2.877,1.098,2.877,2.968v6.965h1.307v-6.75
		c0-1.247-0.284-4.363-3.858-4.363c-1.416,0-2.66,0.623-3.424,1.957l-0.043-0.045l-0.066-1.592h-1.35
		c0.044,0.731,0.109,1.592,0.109,2.431v8.362h1.307V328.446z"/>
	<path fill="#4B4B4B" d="M319.508,328.384c0.176-1.892,1.312-3.656,3.454-3.656c2.274,0,3.41,1.569,3.564,3.656H319.508z
		 M327.946,329.567c0-3.377-1.333-6.022-5.006-6.022c-3.256,0-4.898,2.796-4.898,5.721c0,2.948,1.531,5.722,4.811,5.722
		c2.644,0,4.284-1.184,4.96-3.764h-1.375c-0.329,1.483-1.618,2.58-3.17,2.58c-2.689,0-3.76-1.936-3.804-4.235L327.946,329.567
		L327.946,329.567z"/>
	<path fill="#4B4B4B" d="M319.508,328.384c0.176-1.892,1.312-3.656,3.454-3.656c2.274,0,3.41,1.569,3.564,3.656H319.508z
		 M327.946,329.567c0-3.377-1.333-6.022-5.006-6.022c-3.256,0-4.898,2.796-4.898,5.721c0,2.948,1.531,5.722,4.811,5.722
		c2.644,0,4.284-1.184,4.96-3.764h-1.375c-0.329,1.483-1.618,2.58-3.17,2.58c-2.689,0-3.76-1.936-3.804-4.235L327.946,329.567
		L327.946,329.567z"/>
	<path fill="#4B4B4B" d="M338.751,334.662h1.355c-0.044-0.734-0.109-1.601-0.109-2.44v-13.149h-1.309v6.348l-0.044,0.044
		c-0.766-1.273-2.295-1.965-3.757-1.965c-3.257,0-4.501,2.895-4.501,5.702c0,2.72,1.244,5.786,4.501,5.786
		c1.529,0,2.861-0.713,3.757-2.009l0.044,0.085L338.751,334.662z M338.644,328.981c0,2.463-0.876,4.815-3.736,4.815
		c-2.513,0-3.101-2.742-3.101-4.75c0-2.072,0.807-4.363,3.296-4.363C337.661,324.685,338.644,326.781,338.644,328.981"/>
	<path fill="#4B4B4B" d="M338.751,334.662h1.355c-0.044-0.734-0.109-1.601-0.109-2.44v-13.149h-1.309v6.348l-0.044,0.044
		c-0.766-1.273-2.295-1.965-3.757-1.965c-3.257,0-4.501,2.895-4.501,5.702c0,2.72,1.244,5.786,4.501,5.786
		c1.529,0,2.861-0.713,3.757-2.009l0.044,0.085L338.751,334.662z M338.644,328.981c0,2.463-0.876,4.815-3.736,4.815
		c-2.513,0-3.101-2.742-3.101-4.75c0-2.072,0.807-4.363,3.296-4.363C337.661,324.685,338.644,326.781,338.644,328.981z"/>
	<polygon fill="#4B4B4B" points="342.014,323.871 346.532,334.705 344.88,338.848 346.313,338.848 352.328,323.871 350.916,323.871 
		347.271,332.936 343.6,323.871 	"/>
	<polygon fill="#4B4B4B" points="342.014,323.871 346.532,334.705 344.88,338.848 346.313,338.848 352.328,323.871 350.916,323.871 
		347.271,332.936 343.6,323.871 	"/>
	<line fill="none" x1="358.502" y1="309.414" x2="358.502" y2="326.116"/>
	<line fill="none" x1="352.31" y1="317.767" x2="364.639" y2="317.767"/>
	<polygon fill="#4B4B4B" points="488,312.097 487.23,312.097 486.461,312.097 485.691,312.097 485.408,312.097 484.922,306.924 
		484.922,301.751 484.922,296.578 484.922,291.405 485.691,291.405 486.461,291.405 487.23,291.405 488,291.405 488,296.578 
		488,301.751 488,306.924 	"/>
	<rect x="491.159" y="308.272" fill="#4B4B4B" width="2.915" height="13.327"/>
	<path fill="#4B4B4B" d="M477.432,300.93c-5.838,0-10.567,4.732-10.567,10.568c0,5.837,4.729,10.569,10.567,10.569
		S488,317.335,488,311.498C488,305.662,483.27,300.93,477.432,300.93 M477.432,303.846c4.221,0,7.653,3.432,7.653,7.652
		s-3.433,7.653-7.653,7.653c-4.22,0-7.652-3.435-7.652-7.653S473.211,303.846,477.432,303.846"/>
	<path fill="#4B4B4B" d="M494.075,308.57h-2.915c0-0.116,0.004-0.234,0.009-0.352s0.015-0.232,0.026-0.347
		c0.012-0.116,0.026-0.231,0.044-0.345c0.017-0.113,0.038-0.229,0.061-0.34c0.022-0.109,0.048-0.222,0.076-0.331
		c0.028-0.108,0.06-0.219,0.093-0.326c0.032-0.106,0.069-0.214,0.108-0.321c0.038-0.104,0.08-0.209,0.123-0.313
		c0.044-0.102,0.089-0.203,0.137-0.302c0.049-0.101,0.101-0.202,0.152-0.297c0.053-0.097,0.107-0.194,0.165-0.288
		c0.058-0.092,0.117-0.186,0.178-0.277c0.062-0.09,0.127-0.182,0.193-0.27c0.064-0.087,0.133-0.173,0.201-0.258
		c0.071-0.085,0.144-0.17,0.218-0.25c0.073-0.08,0.149-0.16,0.226-0.238c0.078-0.078,0.159-0.153,0.239-0.227
		c0.08-0.072,0.163-0.144,0.248-0.214c0.085-0.071,0.171-0.139,0.259-0.204c0.088-0.066,0.179-0.13,0.268-0.192
		c0.094-0.061,0.186-0.121,0.28-0.178c0.094-0.058,0.19-0.113,0.287-0.165c0.097-0.053,0.198-0.104,0.297-0.152
		c0.101-0.049,0.203-0.095,0.304-0.137c0.103-0.044,0.209-0.085,0.312-0.123c0.104-0.039,0.212-0.075,0.319-0.109
		c0.107-0.033,0.218-0.065,0.327-0.092c0.107-0.028,0.219-0.054,0.331-0.077c0.111-0.023,0.225-0.043,0.339-0.061
		c0.114-0.017,0.229-0.032,0.345-0.043c0.114-0.012,0.23-0.021,0.347-0.027c0.153-0.007,1.553-0.008,1.567-0.008v2.915
		c-0.185,0-1.269,0.003-1.434,0.006c-0.062,0.003-0.125,0.008-0.188,0.015c-0.066,0.006-0.132,0.014-0.199,0.024
		c-0.063,0.01-0.128,0.022-0.19,0.035c-0.066,0.013-0.13,0.028-0.192,0.044c-0.064,0.016-0.125,0.034-0.188,0.053
		c-0.062,0.019-0.122,0.04-0.183,0.062c-0.061,0.022-0.119,0.046-0.179,0.071c-0.06,0.024-0.117,0.051-0.175,0.079
		c-0.058,0.028-0.113,0.056-0.17,0.086c-0.056,0.03-0.11,0.063-0.166,0.096c-0.054,0.033-0.105,0.067-0.158,0.102
		c-0.053,0.036-0.104,0.072-0.154,0.11c-0.052,0.038-0.104,0.078-0.152,0.118c-0.046,0.039-0.094,0.081-0.142,0.123
		c-0.049,0.045-0.094,0.088-0.14,0.132c-0.043,0.045-0.088,0.091-0.13,0.137c-0.044,0.048-0.084,0.096-0.125,0.144
		c-0.04,0.05-0.079,0.099-0.115,0.15c-0.039,0.051-0.076,0.103-0.111,0.154s-0.07,0.104-0.103,0.16
		c-0.033,0.056-0.065,0.11-0.097,0.167c-0.028,0.055-0.058,0.111-0.086,0.169s-0.054,0.117-0.08,0.176
		c-0.023,0.058-0.048,0.117-0.069,0.177c-0.022,0.062-0.043,0.121-0.061,0.181c-0.02,0.064-0.037,0.127-0.054,0.188
		c-0.017,0.064-0.031,0.127-0.044,0.192c-0.014,0.064-0.025,0.129-0.036,0.193c-0.009,0.065-0.017,0.131-0.024,0.198
		c-0.006,0.066-0.012,0.133-0.015,0.202C494.077,308.433,494.075,308.501,494.075,308.57"/>
	<path fill="#4B4B4B" d="M511.083,300.93c-5.838,0-10.569,4.732-10.569,10.568c0,5.837,4.731,10.569,10.569,10.569
		c5.836,0,10.568-4.732,10.568-10.569C521.651,305.662,516.919,300.93,511.083,300.93 M511.083,303.846
		c4.218,0,7.652,3.432,7.652,7.652s-3.436,7.653-7.652,7.653c-4.221,0-7.654-3.435-7.654-7.653S506.862,303.846,511.083,303.846"/>
	<path fill="#4B4B4B" d="M524.939,314.761c0.227-0.049,0.457-0.093,0.687-0.13c0.231-0.037,0.466-0.068,0.699-0.094
		c0.233-0.024,0.471-0.043,0.708-0.057c0.475-0.025,0.958-0.025,1.434,0c0.235,0.014,0.475,0.031,0.707,0.057
		c0.232,0.024,0.469,0.057,0.698,0.094s0.461,0.081,0.688,0.13c0.225,0.048,0.451,0.104,0.675,0.162
		c0.221,0.062,0.443,0.127,0.662,0.199c0.218,0.07,0.435,0.146,0.646,0.229s0.425,0.171,0.634,0.264
		c0.205,0.093,0.413,0.188,0.615,0.292s0.403,0.212,0.601,0.322c0.195,0.112,0.393,0.231,0.582,0.354
		c0.188,0.121,0.378,0.248,0.562,0.38c0.185,0.13,0.367,0.267,0.545,0.406c0.174,0.139,0.353,0.283,0.523,0.433
		c0.17,0.148,0.34,0.302,0.502,0.458c0.163,0.155,0.324,0.317,0.48,0.48c0.156,0.164,0.311,0.336,0.458,0.506
		c0.147,0.173,0.295,0.35,0.434,0.527c0.142,0.18,0.279,0.362,0.41,0.548c0.132,0.185,0.261,0.376,0.386,0.568
		s0.243,0.392,0.357,0.59c0.114,0.196,0.227,0.399,0.331,0.605c0.106,0.204,0.208,0.414,0.307,0.624
		c0.097,0.213,0.188,0.429,0.274,0.643c0.088,0.217,0.17,0.438,0.247,0.658s0.148,0.446,0.216,0.672
		c0.068,0.229,0.131,0.459,0.188,0.688s0.106,0.466,0.152,0.699c0.047,0.233,0.087,0.474,0.12,0.712
		c0.036,0.241,0.066,0.483,0.089,0.724c0.023,0.245,0.042,0.492,0.055,0.733c0.011,0.246,0.017,0.496,0.017,0.74
		c0,0.246-0.006,0.496-0.017,0.743c-0.013,0.241-0.03,0.488-0.055,0.732c-0.021,0.239-0.053,0.481-0.089,0.724
		c-0.033,0.239-0.073,0.479-0.12,0.712c-0.046,0.233-0.097,0.469-0.152,0.7c-0.057,0.229-0.118,0.459-0.188,0.686
		c-0.066,0.228-0.139,0.454-0.216,0.676c-0.077,0.219-0.159,0.439-0.247,0.656c-0.086,0.214-0.18,0.431-0.274,0.642
		c-0.099,0.212-0.198,0.422-0.307,0.626c-0.104,0.205-0.217,0.41-0.331,0.606s-0.232,0.396-0.357,0.588
		c-0.125,0.193-0.254,0.386-0.387,0.569c-0.13,0.185-0.269,0.368-0.409,0.548c-0.139,0.178-0.284,0.354-0.434,0.527
		c-0.147,0.171-0.302,0.34-0.458,0.505c-0.156,0.164-0.317,0.326-0.48,0.481c-0.162,0.155-0.332,0.311-0.502,0.456
		c-0.172,0.149-0.351,0.296-0.523,0.434c-0.178,0.141-0.36,0.278-0.545,0.407c-0.186,0.131-0.374,0.259-0.562,0.38
		c-0.189,0.121-0.387,0.238-0.581,0.353c-0.198,0.11-0.398,0.221-0.601,0.322c-0.203,0.103-0.411,0.2-0.616,0.292
		c-0.209,0.093-0.421,0.182-0.634,0.263c-0.213,0.083-0.43,0.159-0.647,0.23c-0.218,0.072-0.44,0.138-0.661,0.198
		c-0.224,0.06-0.45,0.115-0.675,0.162c-0.228,0.05-0.458,0.094-0.688,0.13c-0.229,0.037-0.466,0.067-0.698,0.094
		c-0.232,0.024-0.472,0.044-0.707,0.056c-0.237,0.014-0.479,0.021-0.717,0.021c-0.239,0-0.479-0.008-0.717-0.021
		c-0.237-0.012-0.475-0.03-0.708-0.056s-0.468-0.057-0.699-0.094c-0.229-0.036-0.46-0.08-0.688-0.13
		c-0.225-0.047-0.451-0.104-0.673-0.162c-0.223-0.062-0.444-0.126-0.661-0.198c-0.219-0.071-0.437-0.148-0.648-0.23l1.047-2.721
		c0.167,0.064,0.337,0.125,0.507,0.181c0.17,0.057,0.345,0.106,0.518,0.153c0.175,0.047,0.352,0.091,0.526,0.128
		c0.178,0.038,0.357,0.072,0.536,0.103c0.183,0.027,0.365,0.053,0.544,0.071c0.186,0.021,0.37,0.034,0.557,0.045
		c0.369,0.021,0.752,0.021,1.123,0c0.185-0.011,0.371-0.024,0.554-0.045c0.18-0.02,0.364-0.044,0.544-0.071
		c0.18-0.029,0.359-0.063,0.537-0.103c0.176-0.037,0.353-0.081,0.525-0.128c0.174-0.047,0.349-0.098,0.519-0.153
		s0.341-0.115,0.506-0.181c0.167-0.063,0.334-0.133,0.497-0.205c0.162-0.072,0.325-0.149,0.484-0.229
		c0.155-0.079,0.314-0.165,0.472-0.254c0.153-0.088,0.306-0.183,0.457-0.276c0.147-0.096,0.297-0.196,0.444-0.3
		c0.145-0.104,0.287-0.211,0.43-0.321c0.139-0.109,0.279-0.225,0.416-0.344c0.135-0.116,0.268-0.238,0.396-0.362
		c0.131-0.124,0.26-0.253,0.385-0.384c0.123-0.131,0.246-0.267,0.363-0.402c0.119-0.138,0.236-0.278,0.346-0.421
		c0.113-0.143,0.224-0.29,0.328-0.438c0.105-0.147,0.209-0.301,0.308-0.454c0.1-0.154,0.196-0.312,0.289-0.472
		c0.091-0.158,0.179-0.321,0.266-0.486c0.084-0.164,0.167-0.332,0.244-0.501c0.077-0.171,0.151-0.344,0.222-0.516
		c0.069-0.175,0.137-0.352,0.198-0.529c0.062-0.177,0.12-0.359,0.174-0.54c0.056-0.184,0.104-0.368,0.149-0.553
		c0.045-0.187,0.087-0.378,0.124-0.564s0.069-0.381,0.098-0.574c0.027-0.193,0.053-0.391,0.07-0.584
		c0.018-0.196,0.034-0.397,0.043-0.592c0.009-0.2,0.015-0.403,0.015-0.604c0-0.198-0.006-0.4-0.015-0.602
		c-0.009-0.195-0.025-0.396-0.043-0.593c-0.019-0.193-0.043-0.392-0.07-0.584c-0.026-0.192-0.061-0.386-0.098-0.573
		c-0.037-0.188-0.079-0.379-0.124-0.566c-0.045-0.182-0.096-0.368-0.149-0.552c-0.054-0.181-0.11-0.362-0.173-0.54
		s-0.13-0.355-0.199-0.528c-0.068-0.173-0.145-0.346-0.222-0.516c-0.077-0.169-0.16-0.338-0.244-0.502
		c-0.087-0.164-0.175-0.328-0.266-0.486c-0.093-0.157-0.189-0.315-0.289-0.471c-0.099-0.155-0.201-0.308-0.306-0.455
		c-0.106-0.147-0.217-0.295-0.328-0.438c-0.11-0.143-0.229-0.282-0.348-0.421c-0.117-0.137-0.24-0.271-0.363-0.401
		c-0.125-0.131-0.254-0.261-0.385-0.383c-0.13-0.124-0.263-0.246-0.396-0.364c-0.137-0.118-0.277-0.232-0.416-0.343
		c-0.143-0.11-0.285-0.219-0.43-0.321c-0.147-0.104-0.297-0.204-0.444-0.3c-0.151-0.097-0.304-0.189-0.458-0.277
		c-0.155-0.088-0.314-0.174-0.473-0.254c-0.157-0.08-0.32-0.158-0.482-0.229c-0.163-0.072-0.33-0.143-0.497-0.206
		c-0.165-0.063-0.336-0.125-0.506-0.181s-0.345-0.105-0.519-0.153c-0.174-0.047-0.351-0.091-0.525-0.128
		c-0.178-0.038-0.357-0.071-0.537-0.102c-0.18-0.028-0.364-0.054-0.544-0.071c-0.183-0.021-0.369-0.035-0.554-0.046
		c-0.371-0.02-0.752-0.02-1.123,0c-0.187,0.011-0.371,0.024-0.555,0.045c-0.181,0.02-0.363,0.044-0.546,0.072
		c-0.179,0.029-0.358,0.062-0.535,0.102c-0.177,0.037-0.963,0.081-1.135,0.128"/>
	
		<rect x="525.507" y="305.254" transform="matrix(-0.988 -0.1542 0.1542 -0.988 999.6841 699.4716)" fill="#4B4B4B" width="2.917" height="11.434"/>
	<polygon fill="#4B4B4B" points="538.105,307.963 526.443,307.963 526.443,305.047 538.47,305.047 	"/>
	<path fill="#4B4B4B" d="M535.496,310.11c0.047-0.189,0.091-0.386,0.131-0.581c0.037-0.188,0.07-0.383,0.102-0.58
		c0.028-0.192,0.053-0.387,0.071-0.577c0.02-0.188,0.034-0.382,0.045-0.577c0.009-0.188,0.016-0.38,0.017-0.57
		c0.001-0.189-0.002-0.381-0.012-0.567c-0.008-0.19-0.021-0.38-0.037-0.563s-0.037-0.372-0.062-0.558l2.767-0.397
		c0.032,0.232,0.182,0.466,0.201,0.694c0.019,0.228,0.035,0.464,0.046,0.7c0.011,0.232,0.014,0.471,0.014,0.707
		c-0.001,0.236-0.009,0.475-0.021,0.71c-0.012,0.242-0.03,0.481-0.056,0.715c-0.022,0.236-0.053,0.476-0.088,0.717
		c-0.038,0.243-0.08,0.495-0.126,0.729"/>
	<path fill="#4B4B4B" d="M552.567,301.053c-5.837,0-10.567,4.731-10.567,10.568c0,5.836,4.73,10.566,10.567,10.566
		s10.568-4.73,10.568-10.566C563.137,305.784,558.404,301.053,552.567,301.053 M552.567,303.967c4.22,0,7.653,3.434,7.653,7.654
		c0,4.22-3.435,7.651-7.653,7.651c-4.22,0-7.652-3.433-7.652-7.651C544.915,307.4,548.348,303.967,552.567,303.967"/>
	<polygon fill="#4B4B4B" points="563.137,321.815 562.427,321.815 561.719,321.815 561.01,321.815 560.302,321.815 560.302,319.088 
		560.302,316.358 560.302,313.631 560.544,310.902 561.01,310.902 561.719,310.902 562.427,310.902 563.137,310.902 
		563.137,313.631 563.137,316.358 563.137,319.088 	"/>
	<path fill="#4B4B4B" d="M737.703,344.537c0,0,0-0.157-0.156-0.157c-0.157,0,0-0.312,0-0.469c0,0,0-0.627,0.156-0.942
		c0.156-0.783,0.156-0.624,0.312-0.937c0-0.157,0.312-0.626,0.782-0.626c0.312,0,0.781-0.627,0.939-1.099
		c0.312-0.312,1.095-1.723,1.095-1.88c0.156-0.469,0.156-0.625,0.314-1.095c0-0.312,0-1.566,0.153-2.193v-0.938
		c-0.153-0.312-0.153-0.939-0.469-1.408c0-0.313-0.626-1.409-0.781-1.409l-0.625-1.096c-0.158-0.157-1.1-0.784-1.253-1.095
		c0-0.315-0.627-0.474-1.1-0.627c-0.311,0-0.311-0.471-0.779-0.471c-0.314,0.155-1.254,0-1.411-0.155
		c-0.469,0.469-0.626,0.469-0.782,0.469c-0.154,0.157-1.096,0.784-1.096,0.938c0,0.155-0.312,1.096-0.158,1.407
		c0.627,2.506-0.938,4.229-1.096,4.855c-0.155,0.312-0.783,1.408-1.096,2.19c-0.156,0.625-0.625,2.192-0.782,2.351
		c-0.155,0.469,0.157,1.095-0.628,1.253c-0.938,0-1.251,0.626-1.251,0.626c-0.157,0.312-0.312,0.152-0.157,0.779
		c0,0.315-0.47,0.628-1.407,0.784c-0.47,0.157-0.627,0.157-0.784,0c-0.156,0-0.156-0.312-0.156-0.469c0,0,0-0.628,0.156-1.096
		c0-0.626,0-0.474,0.157-0.784c0.157-0.157,0.312-0.626,0.782-0.783c0.471,0,0.782-0.627,1.097-0.938
		c0.155-0.471,0.628-1.566,0.628-1.724c0.154-0.47,0.312-0.782,0.312-0.939c0.156-0.156,0.625-1.409,0.625-2.191
		c0-0.312,0.159-0.782,0.159-0.939c-0.159-0.153,0-0.938-0.159-1.406c-0.155-0.315-0.625-1.252-0.781-1.252
		c-0.155,0-0.312-0.316-0.939-0.316c-0.625,0.159-1.251,0.316-1.878,0.316c-0.47,0.152-1.254,0.152-1.722,0.152
		c-0.47,0-1.723-0.152-2.036-0.152c-0.312-0.157-0.628-0.629-1.097-0.784c-0.47,0-1.253-0.157-1.563-0.314
		c-0.473,0-0.627-0.625-1.254-0.779c-0.469,0-1.565,0.154-2.034,0.154c-0.313,0.155-0.628,0.155-1.566,0.155
		c-0.783,0.157-0.94,0.315-1.565,0.315c-0.47,0-0.627,0.153-1.252,0.312c-0.469,0-0.628,0.312-1.096,0.472
		c-0.312,0.153-0.47,0-0.785,0.153c-0.153,0-0.311,0-0.623,0.159c-0.157,0-0.313,0.157-0.313,0.311
		c-0.469,0.473-0.157,1.1-0.314,1.567c-0.153,0.312-0.153,0.938-0.153,1.096c0.153,0.312-0.315,3.285-0.315,4.07
		c0,0.626,0.158,2.505,0.158,2.505c0,0.469,0.157,1.095-0.628,1.567c-0.783,0.152-0.783,0.937-0.783,0.937
		c-0.153,0.159-0.312-0.311-0.153,0.472c0,0.313-0.473,0.627-1.409,0.939c-0.158,0-0.314,0-0.314,0.157h-0.47
		c-0.157-0.157-0.157-0.471-0.157-0.626v-0.942c0-0.782,0-0.311,0.157-0.624c0-0.158,0.313-0.47,0.626-0.47
		c0.471-0.314,0.627-0.784,0.627-1.41c0.158-0.156,0.158-0.312,0.158-0.627v-1.252c0-0.469,0.152-0.938,0-1.252
		c0.152-0.312,0-2.662-0.158-3.287v-1.722c0-0.315,0-0.47-0.313-0.627c-0.312-0.157-0.47-0.157-0.782-0.313
		c-0.156-0.158-0.313-0.158-0.781-0.312h-0.159c-0.312,0.152-0.781,0.152-0.937,0.625c0,0.312,0,0.938-0.158,1.096
		c-0.155,0.312-0.155,1.253-0.155,1.096c0,0.471-0.628,3.133-0.628,4.07c0,0.784-0.156,1.878-0.156,2.036
		c-0.156,0.469,0.156,1.095-0.626,1.252c-0.94,0.158-1.095,0.938-1.095,0.938c-0.157,0.158-0.314-0.153-0.157,0.627
		c0,0.314-0.312,0.627-1.253,0.94c-0.469,0-0.625,0.157-0.782,0c-0.155,0-0.155-0.313-0.155-0.47v-1.099v-0.779
		c0.155-0.158,0.312-0.627,0.78-0.784c0.315,0,0.784-0.469,0.784-0.941c0.154-0.312,0.469-1.406,0.469-1.562v-0.942
		c0.157-0.312,0.314-2.658,0.157-3.285c0-0.782,0.157-1.096,0.157-1.722c0-0.627,0-1.411-0.157-1.724
		c0-0.312-0.472-0.939-0.938-1.095l-0.155-0.155c-0.472-0.315-1.097-0.784-1.253-0.941c-0.315-0.154-0.941-0.312-1.252-0.312
		c-0.473,0-0.941-0.315-1.098-0.315s-0.312-0.157-0.627-0.312c0,0-0.471-0.156-0.627-0.156c-0.47,0-1.252-0.156-1.564-0.626
		c-0.312-0.315-0.625-0.783-0.782-1.097c-0.313-0.472-0.472-0.782-0.472-0.782c-0.152,0-0.312-0.471-0.625-0.941
		c-0.312-0.154-0.469-0.624-0.469-0.938c-0.312-0.471-0.472-1.098-0.627-1.566c-0.156-0.468-0.312-1.095-0.312-1.566
		c0-0.312-0.469-1.407-0.313-1.25c-0.155-0.472-0.312-1.253-0.312-1.253s-0.157-2.035,0-2.506c-0.157,0,0-1.724-0.157-2.349
		c-0.158-0.782-0.313-1.098-0.313-1.565c-0.312-0.626-0.47-1.095-0.625-1.722c0-0.314-0.156-0.784,0-1.096
		c0-0.157-0.156-0.313-0.156-0.47c-0.157-0.313-0.471-0.782-0.627-0.94c-0.157-0.156-1.099-0.156-1.252-0.156
		c-0.469-0.157-1.568-0.157-1.724-0.157c-0.472,0-1.409,0.313-1.879,0.472c-0.626,0-0.626-0.158-0.94-0.314
		c-0.468,0-0.938-0.47-0.938-0.47c-0.313-0.313-0.313-0.625-0.313-0.938c-0.47-0.315-0.938-0.783-0.782-1.409
		c0.157-0.942,0.94-1.566,1.409-2.348c0.312-0.628,1.254-1.254,2.194-2.037c0.624-0.939,0.779-0.939,1.722-1.722
		c0.625-0.783,0.938-1.096,1.406-1.567c0.314-0.469,1.725-1.407,2.037-1.565h0.156c0.312-0.155,0.784-0.313,1.409-0.313
		c0.312,0,0.78-0.469,1.409-0.156c0.156-0.313,0.156-0.784,0.312-0.939c0.158-0.156,0.158-0.156,0.469-0.47
		c0.313-0.313,0.783-0.626,0.94-1.096c0.155-0.626,0.78-0.158,1.096,0.627c0.155,0.469,0.312,0.625,0.312,1.094
		c0.156-0.311,0.312-0.469,0.47-0.782c0.157-0.156,0.313-0.469,0.784-0.783c0.469-0.469,1.253-0.626,1.41-1.096h0.937
		c0.157,0.158,0.157,0.47,0.315,0.782c0.156,0.941,0.47,1.568,0.156,2.35c-0.314,0.94-1.565,1.251,0.155,1.409
		c0.469,0,0.625-0.158,1.409,0c0.626,0,1.253,0.156,1.723,0.783c0.155,0.155,0.312,0.312,0.938,0.312
		c0.472-0.157,0.782,0.314,1.097,0.47c0.627,0.157,0.781,0.157,1.253,0.626c0.47,0.314,0.47,0.314,0.938,0.784
		c0.312,0.157,0.312,0.468,0.627,0.626c0.469,0,0.94,0.313,1.408,0.626c0.156,0,0.312,0.313,0.627,0.47
		c0.471,0.156,1.252,0.313,1.88,0.156c0.78-0.313,2.19,0,3.132,0.313c0.779,0.156,1.095,0.47,1.878,0.47
		c0.781-0.157,1.723,0,2.192-0.157c0.627-0.157,1.095-0.313,1.721-0.626c0.784-0.313,1.724-0.313,2.349-0.313
		c0.783,0,2.349-0.313,3.133-0.156c1.097,0,2.349-0.157,3.442,0c1.409,0.313,2.037-0.157,3.132-0.157
		c1.252-0.157,2.349,0,3.132,0.157c1.566,0.313,1.881,0.313,2.506,0.313c1.565-0.157,2.816,0.313,3.132,0.625
		c0.312,0.157,0.938,0.784,1.721,1.254c0.942,0.47,1.411,1.723,1.723,2.347c0.473,0.47,0.627,1.098,1.097,1.567
		c0.472,0.313,1.096,1.253,1.253,1.565c0.157,0.315,0.472,0.783,0.472,1.097c0.312,0.47,0.624,1.096,0.938,1.408
		c0.783,0.158,1.41,1.88,1.566,2.351c0,0.312,0.312,0.938,0.312,1.252c0.157,0,0.157,0.155,0.157,0.312v0.939v0.783
		c-0.157,0.312,0,0.47,0,0.627c-0.157,0.154-0.157,0.626-0.157,0.781c0,0.157,0,0.472-0.157,0.781
		c-0.154,0.627-0.154,0.94-0.154,1.1c-0.156,0.938-0.313,1.25-0.313,1.722c0,0.312,0.157,1.563-0.156,2.034
		c-0.469,0.782-0.627,1.563-0.782,1.724v0.782c-0.157,0.471-0.157,0.938-0.313,1.252c0,0.312-0.313,0.627-0.625,0.783
		c-0.157,0.156-0.471,0.47-1.098,0.626c-0.313,0.154-0.626,0.47-0.939,0.628c-0.312,0.312-0.469,0.312-0.469,0.779v0.629
		c0.155,0.312,0.782,0.938,0.939,1.406c0.938,2.506-0.314,4.385-0.472,5.012c0,0.471-0.781,2.66-0.781,3.133
		c-0.314,0.626-0.94,2.189-0.94,2.189c-0.153,0.47,0,1.096-0.783,1.254c-0.78,0-1.25,0.624-1.25,0.624c0,0.159-0.313,0-0.157,0.785
		c-0.156,0.312-0.468,0.626-1.409,0.783L737.703,344.537L737.703,344.537z"/>
	<path fill="#4B4B4B" d="M942.63,317.45c0,16.918-13.715,30.633-30.633,30.633c-16.917,0-30.632-13.715-30.632-30.633
		s13.715-30.633,30.632-30.633C928.915,286.817,942.63,300.532,942.63,317.45"/>
	<path fill="#4B4B4B" d="M115.839,515.057c0.647-0.474,1.147-0.943,1.541-1.45c0.347-0.443,0.682-1.077,0.872-1.653
		c0.362-1.093,0.358-2.359-0.005-3.119c-0.198-0.408-0.472-0.663-0.826-0.766c-0.514-0.148-1.082,0.014-1.419,0.406
		c-0.519,0.604-0.757,1.697-0.705,3.242c0.035,1.09,0.117,1.801,0.382,3.275c0.014,0.083,0.031,0.15,0.035,0.15
		C115.719,515.143,115.775,515.104,115.839,515.057 M112.326,527.362c0.553-0.045,1.158-0.234,1.863-0.58
		c0.366-0.182,0.884-0.475,0.884-0.5c0-0.006-0.021-0.043-0.046-0.079c-0.132-0.196-0.434-0.702-0.625-1.046
		c-1.04-1.893-2.059-4.601-2.52-6.699c-0.021-0.09-0.039-0.171-0.042-0.179c-0.014-0.039-0.859,0.478-1.258,0.767
		c-0.915,0.663-1.485,1.298-1.812,2.021c-0.26,0.574-0.389,1.208-0.389,1.914c0,1.138,0.326,2.114,0.973,2.925
		c0.453,0.563,1.043,1.018,1.625,1.25C111.409,527.324,111.89,527.396,112.326,527.362 M108.66,529.621
		c-1.75-0.07-3.044-0.641-4.032-1.776c-0.543-0.625-0.895-1.349-1.022-2.111c-0.05-0.299-0.058-0.425-0.058-0.797
		c0.003-0.939,0.181-1.727,0.561-2.479c0.263-0.519,0.612-0.978,1.153-1.507c0.758-0.745,1.717-1.458,2.858-2.132
		c0.868-0.512,2.011-1.098,3.18-1.63c0.154-0.068,0.283-0.13,0.287-0.135c0.005-0.005-0.007-0.133-0.026-0.287
		c-0.074-0.582-0.144-1.263-0.181-1.756c-0.02-0.276-0.02-1.273,0-1.507c0.082-0.918,0.244-1.638,0.528-2.349
		c0.389-0.976,0.935-1.78,1.73-2.559c1.3-1.269,2.853-1.896,4.579-1.852c1.215,0.031,2.103,0.391,2.829,1.146
		c0.385,0.401,0.664,0.89,0.79,1.371c0.085,0.332,0.115,0.671,0.096,1.064c-0.036,0.696-0.172,1.258-0.439,1.811
		c-0.234,0.488-0.537,0.898-1.033,1.405c-0.69,0.702-1.518,1.31-2.641,1.934c-0.318,0.179-1.044,0.538-1.412,0.701
		c-0.157,0.07-0.313,0.142-0.346,0.154L116,516.362l0.052,0.165c0.577,1.836,0.855,2.695,1.121,3.463
		c0.3,0.863,0.484,1.312,0.835,2.021c0.172,0.343,0.256,0.503,0.45,0.854l0.109,0.194l0.068-0.075
		c0.436-0.479,0.884-1.121,1.131-1.627c0.172-0.347,0.338-0.795,0.43-1.161c0.194-0.757,0.095-1.296-0.306-1.696
		c-0.178-0.177-0.395-0.301-0.715-0.404l-0.184-0.061l0.095-0.289l0.097-0.289h3.094c1.702,0,3.093,0.003,3.093,0.01
		c0,0.005-0.051,0.134-0.115,0.287l-0.117,0.278l-0.07,0.021c-0.601,0.183-0.921,0.331-1.284,0.604
		c-0.427,0.319-1.196,1.232-2.381,2.827c-0.689,0.928-1.369,1.746-2.062,2.484l-0.162,0.174l0.205,0.272
		c0.451,0.604,0.812,1.023,1.236,1.44c0.653,0.642,1.19,0.983,1.76,1.125c0.447,0.109,0.96,0.109,1.346,0.001
		c0.297-0.082,0.584-0.248,0.981-0.567l0.149-0.119l0.256-0.001c0.143,0,0.258,0.003,0.258,0.007c0,0.015-0.205,0.412-0.29,0.563
		c-0.193,0.34-0.49,0.761-0.736,1.038c-0.745,0.846-1.733,1.411-2.837,1.624c-0.787,0.151-1.725,0.126-2.508-0.07
		c-0.759-0.191-1.366-0.504-2.087-1.077c-0.318-0.254-0.754-0.653-1.038-0.953l-0.161-0.168l-0.359,0.239
		c-0.6,0.4-1.075,0.676-1.694,0.979c-1.311,0.644-2.574,1.003-3.892,1.114C109.433,529.621,108.962,529.633,108.66,529.621
		 M136.997,529.751c-2.022-0.043-3.805-0.457-5.309-1.229c-1.738-0.894-3.175-2.365-4.327-4.434
		c-0.899-1.613-1.451-3.429-1.652-5.422c-0.161-1.606-0.094-3.382,0.184-4.983c0.514-2.934,1.774-5.592,3.742-7.884
		c0.573-0.667,1.292-1.389,1.994-2.004c2.679-2.347,5.823-3.89,9.147-4.49c1.044-0.188,1.946-0.276,3.098-0.311
		c0.866-0.025,1.816,0.016,2.55,0.108c0.483,0.062,1.27,0.241,2.557,0.587c0.737,0.196,1.087,0.278,1.434,0.334
		c0.201,0.03,0.641,0.027,0.833-0.007c0.392-0.069,0.695-0.267,0.978-0.639l0.059-0.075h0.365c0.289,0,0.367,0.004,0.361,0.017
		c-0.003,0.008-0.402,1.642-0.888,3.631l-0.881,3.614l-0.375-0.004l-0.374-0.003l-0.008-0.188c-0.047-1.03-0.188-1.779-0.435-2.289
		c-0.172-0.357-0.314-0.543-0.838-1.11c-0.119-0.127-0.305-0.336-0.416-0.462c-0.64-0.73-1.247-1.159-2.085-1.471
		c-0.644-0.239-1.375-0.359-2.197-0.359c-0.378-0.001-0.606,0.014-0.95,0.058c-1.636,0.205-3.309,0.979-4.929,2.274
		c-1.709,1.367-3.2,3.401-4.441,6.062c-1.588,3.396-2.346,6.967-2.273,10.681c0.05,2.429,0.539,4.353,1.478,5.789
		c0.34,0.521,0.851,1.099,1.326,1.501c0.749,0.633,1.585,1.023,2.468,1.151c0.503,0.069,0.967,0.062,1.448-0.03
		c0.314-0.062,0.705-0.171,1.044-0.294c0.183-0.065,0.523-0.2,0.603-0.24l0.048-0.022l1.03-3.886
		c0.566-2.137,1.084-4.105,1.153-4.377c0.33-1.311,0.431-1.948,0.371-2.319c-0.055-0.33-0.194-0.584-0.553-1.016
		c-0.063-0.076-0.165-0.201-0.228-0.28c-0.063-0.076-0.137-0.159-0.166-0.185c-0.146-0.119-0.316-0.159-0.735-0.175l-0.221-0.007
		l0.098-0.404l0.095-0.402l4.943-0.004l4.941-0.003l-0.085,0.399c-0.048,0.22-0.089,0.402-0.091,0.408
		c-0.002,0.008-0.088,0.05-0.19,0.095c-0.208,0.091-0.238,0.106-0.365,0.202c-0.048,0.037-0.142,0.101-0.207,0.142
		c-0.313,0.198-0.532,0.414-0.742,0.732c-0.237,0.357-0.364,0.729-0.701,2.062c-0.071,0.279-0.67,2.519-1.329,4.972l-1.202,4.462
		l-0.314,0.128c-2.03,0.81-4.105,1.307-6.283,1.508C138.734,529.734,137.78,529.768,136.997,529.751 M98.953,514.14
		c1.207-0.104,2.219-0.536,3.098-1.312c0.504-0.443,0.973-1.027,1.392-1.728c0.274-0.456,0.587-1.065,0.778-1.518
		c0.458-1.08,0.734-2.174,0.831-3.304c0.104-1.194-0.003-2.156-0.325-2.941c-0.202-0.49-0.453-0.859-0.849-1.247
		c-0.68-0.663-1.535-1.017-2.664-1.104c-0.31-0.024-1.474,0.005-1.509,0.035c-0.012,0.012-3.724,12.946-3.716,12.954
		c0.018,0.02,1.031,0.119,1.489,0.149c0.393,0.026,0.377,0.025,0.848,0.028C98.623,514.157,98.814,514.152,98.953,514.14
		 M83.099,529.412c0.056-0.19,0.111-0.376,0.121-0.414l0.021-0.066l0.324-0.16c0.178-0.089,0.386-0.19,0.463-0.226
		c0.498-0.232,0.929-0.618,1.271-1.13c0.239-0.36,0.515-1.073,0.898-2.329c0.093-0.301,5.845-20.021,6.058-20.765
		c0.322-1.127,0.477-1.999,0.431-2.433c-0.042-0.396-0.201-0.723-0.498-1.021c-0.108-0.108-0.365-0.316-0.473-0.384
		c-0.029-0.019-0.159-0.126-0.291-0.241c-0.131-0.115-0.24-0.21-0.242-0.211c-0.004-0.003,0.032-0.754,0.039-0.799l0.006-0.038
		l5.728,0.004c4.111,0.003,5.801,0.008,5.988,0.018c0.578,0.03,0.737,0.039,1.032,0.062c2.178,0.166,3.778,0.568,4.887,1.234
		c1.935,1.16,3.025,2.863,3.238,5.053c0.154,1.563-0.121,3.083-0.802,4.44c-0.585,1.17-1.488,2.277-2.656,3.26
		c-1.354,1.142-3.044,1.954-4.962,2.39c-1.007,0.228-1.971,0.351-3.144,0.398c-0.38,0.018-1.585,0.007-1.901-0.012
		c-0.943-0.062-1.938-0.164-2.86-0.296c-0.129-0.021-0.24-0.031-0.242-0.027c-0.008,0.007-2.397,8.212-2.548,8.746
		c-0.287,1.019-0.453,1.873-0.453,2.327c0,0.661,0.227,1.194,0.665,1.552c0.066,0.057,0.16,0.134,0.206,0.178
		c0.098,0.091,0.094,0.089,0.567,0.263c0.201,0.075,0.365,0.14,0.365,0.145c0,0.006-0.058,0.172-0.126,0.369
		c-0.07,0.197-0.134,0.38-0.143,0.409l-0.018,0.05H88.52h-5.526L83.099,529.412z"/>
	<path fill="#4B4B4B" d="M290.452,493.132l1.639,2.828h1.273l-1.407-2.427l3.375-1.958l2.096,3.611h10.496l2.749-2.749l1.582,1.582
		v-1.559l-1.581-1.582l-3.206,3.206h-9.406l-2.33-4.018L290.452,493.132z M287.664,502.757l-3.477,0.003l0.005,6.106l3.556-0.005
		l1.717,2.491v-1.939l-1.139-1.652l-3.034,0.002l-0.003-3.901h2.953l1.223-1.774v-1.941L287.664,502.757z"/>
	<path fill="#4B4B4B" d="M292.382,495.453h0.105l-1.221-2.104l4.249-2.465l2.204,3.798h9.995l2.959-2.959l1.076,1.076v-0.129
		l-1.076-1.077l-2.996,2.998h-9.905l-2.223-3.832l-4.407,2.557L292.382,495.453z M294.242,496.465H291.8l-2.039-3.518l6.155-3.569
		l2.438,4.203h8.904l3.415-3.416l2.087,2.088v2.987l-2.087-2.087l-2.54,2.539h-10.996l-1.989-3.428l-2.5,1.451L294.242,496.465z
		 M288.012,508.358l0.948,1.373v-0.161l-0.9-1.305l-3.273,0.003l-0.004-4.913h3.194l0.983-1.428v-0.16l-1.031,1.493l-3.236,0.003
		l0.004,5.097L288.012,508.358z M289.97,512.977l-2.488-3.606l-3.794,0.003l-0.007-7.117l3.717-0.002l2.572-3.729v3.72l-1.462,2.123
		h-2.713l0.002,2.893l2.793-0.001l1.38,2V512.977z"/>
	<polygon fill="#4B4B4B" points="312.254,494.021 313.432,495.197 312.67,495.96 314.229,495.96 314.967,495.222 314.967,495.175 
		312.254,492.462 	"/>
	<path fill="#4B4B4B" d="M313.89,495.453h0.13l0.257-0.256l-1.517-1.517v0.129l1.387,1.388L313.89,495.453z M314.438,496.465h-2.987
		l1.266-1.268l-0.968-0.969v-2.988l3.722,3.725v0.466L314.438,496.465z"/>
	
		<rect x="311.741" y="496.346" transform="matrix(0.7088 0.7054 -0.7054 0.7088 441.0683 -75.7202)" fill="#4B4B4B" width="1.011" height="0.033"/>
	<path fill="#4B4B4B" d="M292.092,495.96l0.118,0.204l-2.745,3.979v1.941l4.048-5.871l-0.148-0.255L292.092,495.96L292.092,495.96z
		 M293.039,514.597l-3.574-5.183v1.938l2.236,3.243"/>
	<path fill="#4B4B4B" d="M289.97,500.302v0.162l2.757-3.999h-0.11L289.97,500.302z M288.96,503.709v-3.721l2.653-3.849l-0.399-0.687
		h2.442l0.455,0.785L288.96,503.709z M292.623,514.884l-2.653-3.847v0.16l2.146,3.111l-0.831,0.574l-2.325-3.372v-3.72l4.495,6.518
		L292.623,514.884z"/>
	<polyline fill="#4B4B4B" points="314.967,511.444 311.693,511.444 311.693,498.496 314.233,495.957 312.685,495.945 
		310.591,498.04 310.591,512.447 314.967,512.447 	"/>
	<path fill="#4B4B4B" d="M311.096,511.942h0.092v-13.656l1.834-1.833l-0.129-0.001l-1.797,1.797V511.942L311.096,511.942z
		 M314.967,512.952h-4.881V497.83l2.391-2.391l2.966,0.021l-3.244,3.245v12.234h2.768V512.952z"/>
	<path fill="#4B4B4B" d="M296.583,498.312l-5.129,7.438l4.686,6.799h10.135v-14.235L296.583,498.312L296.583,498.312z
		 M292.792,505.749l4.37-6.336h8.012v12.031h-8.455L292.792,505.749z"/>
	<path fill="#4B4B4B" d="M296.984,510.938h7.684v-11.021h-7.242l-4.021,5.832L296.984,510.938z M305.678,511.949h-9.224
		l-4.277-6.199l4.718-6.842h8.783V511.949z M296.405,512.042h9.365v-13.227h-8.922l-4.782,6.935L296.405,512.042z M306.78,513.052
		h-10.906l-5.035-7.302l5.478-7.944h10.463V513.052z"/>
	<rect x="313.873" y="511.445" fill="#4B4B4B" width="1.094" height="3.15"/>
	<path fill="#4B4B4B" d="M314.377,514.091h0.084v-2.142h-0.084V514.091z M315.472,515.102h-2.105v-4.161h2.105V515.102z"/>
	<path fill="#4B4B4B" d="M295.732,538.68l2.33-4.018h9.406l3.205,3.205l1.582-1.581v-1.56l-1.582,1.582l-2.749-2.75h-10.496
		l-2.096,3.612l-3.375-1.956l1.407-2.428h-1.273l-1.639,2.828L295.732,538.68z M289.465,528.604v-1.941l-1.223-1.774h-2.953
		l0.003-3.901l3.034,0.003l1.139-1.653v-1.939l-1.717,2.489l-3.556-0.002l-0.005,6.106l3.477,0.002L289.465,528.604z"/>
	<path fill="#4B4B4B" d="M284.693,525.483l3.236,0.002l1.031,1.493v-0.159l-0.983-1.43h-3.193l0.004-4.911l3.273,0.003l0.899-1.306
		v-0.161l-0.947,1.373l-3.315-0.002L284.693,525.483z M289.97,530.226l-2.571-3.729l-3.718-0.004l0.007-7.117l3.794,0.004
		l2.488-3.607v3.721l-1.379,2l-2.793-0.001l-0.003,2.891h2.713l1.462,2.123L289.97,530.226L289.97,530.226z M291.142,535.432
		l4.407,2.558l2.223-3.831h9.905l2.997,2.997l1.076-1.077v-0.13l-1.077,1.077l-2.958-2.96h-9.996l-2.203,3.798l-4.249-2.463
		l1.221-2.105h-0.106L291.142,535.432z M295.916,539.369l-6.155-3.57l2.04-3.517h2.441l-1.594,2.75l2.501,1.45l1.988-3.43h10.997
		l2.539,2.54l2.087-2.087v2.989l-2.086,2.086l-3.415-3.415h-8.905L295.916,539.369z"/>
	<polygon fill="#4B4B4B" points="312.254,534.729 313.432,533.549 312.67,532.788 314.229,532.788 314.967,533.526 314.967,533.573 
		312.254,536.286 	"/>
	<path fill="#4B4B4B" d="M312.759,534.938v0.13l1.517-1.519l-0.257-0.255h-0.13l0.257,0.255L312.759,534.938z M311.75,537.506
		v-2.987l0.968-0.97l-1.266-1.267h2.987l1.033,1.035v0.465L311.75,537.506z"/>
	
		<rect x="312.232" y="531.887" transform="matrix(0.6993 0.7148 -0.7148 0.6993 474.4666 -63.1116)" fill="#4B4B4B" width="0.031" height="1.011"/>
	<path fill="#4B4B4B" d="M293.364,532.788l0.149-0.256l-4.048-5.87v1.939l2.745,3.98l-0.119,0.205L293.364,532.788L293.364,532.788z
		 M291.7,514.15l-2.235,3.242v1.939l3.573-5.183"/>
	<path fill="#4B4B4B" d="M288.96,520.957v-3.721l2.325-3.372l0.831,0.571l-2.146,3.114v0.159l2.653-3.846l0.832,0.572
		L288.96,520.957z M292.617,532.283h0.11l-2.757-3.999v0.161L292.617,532.283z M293.656,533.294h-2.442l0.399-0.688l-2.653-3.847
		v-3.72l5.151,7.469L293.656,533.294z"/>
	<polyline fill="#4B4B4B" points="314.967,517.304 311.693,517.304 311.693,530.252 314.233,532.791 312.685,532.802 
		310.591,530.709 310.591,516.301 314.967,516.301 	"/>
	<path fill="#4B4B4B" d="M311.096,530.499l1.797,1.796h0.128l-1.833-1.833v-13.657h-0.092L311.096,530.499L311.096,530.499z
		 M312.477,533.308l-2.391-2.391v-15.122h4.881v2.013h-2.768v12.234l3.244,3.245L312.477,533.308z"/>
	<path fill="#4B4B4B" d="M306.275,530.438V516.2H296.14l-4.687,6.797l5.13,7.438h9.692V530.438z M296.719,517.304h8.454v12.031
		h-8.012l-4.369-6.338L296.719,517.304z"/>
	<path fill="#4B4B4B" d="M297.426,528.829h7.242v-11.021h-7.684l-3.579,5.19L297.426,528.829z M305.678,529.839h-8.783l-4.718-6.841
		l4.277-6.2h9.224L305.678,529.839L305.678,529.839z M296.848,529.931h8.922v-13.224h-9.365l-4.339,6.291L296.848,529.931z
		 M306.78,530.942h-10.463l-5.478-7.944l5.035-7.303h10.906V530.942z"/>
	<rect x="313.873" y="514.15" fill="#4B4B4B" width="1.094" height="3.151"/>
	<path fill="#4B4B4B" d="M314.377,516.798h0.084v-2.141h-0.084V516.798z M315.472,517.808h-2.105v-4.163h2.105V517.808z"/>
	<path fill="#4B4B4B" d="M342.553,535.616l-1.64-2.828h-1.273l1.407,2.427l-3.375,1.957l-2.096-3.611H325.08l-2.749,2.749
		l-1.582-1.581v1.559l1.582,1.581l3.205-3.205h9.405l2.331,4.018L342.553,535.616z M345.34,525.99l3.477-0.001l-0.005-6.108
		l-3.555,0.003l-1.718-2.489v1.939l1.14,1.653l3.033-0.003l0.003,3.9h-2.953l-1.223,1.775v1.941L345.34,525.99z"/>
	<path fill="#4B4B4B" d="M344.044,526.819v0.159l1.03-1.493l3.237-0.003l-0.005-5.097l-3.315,0.002l-0.947-1.373v0.161l0.9,1.305
		l3.272-0.002l0.004,4.911h-3.193L344.044,526.819z M343.034,530.226v-3.722l1.462-2.123h2.713l-0.003-2.891l-2.792,0.001l-1.38-2
		v-3.722l2.488,3.608l3.794-0.004l0.006,7.117l-3.717,0.004L343.034,530.226z M325.327,534.157h9.905l2.222,3.831l4.408-2.558
		l-1.24-2.138h-0.106l1.221,2.105l-4.249,2.463l-2.203-3.799h-9.996l-2.958,2.961l-1.077-1.077v0.13l1.077,1.077L325.327,534.157z
		 M337.087,539.369l-2.437-4.202h-8.904l-3.415,3.415l-2.088-2.086v-2.989l2.088,2.087l2.539-2.54h10.997l1.989,3.43l2.5-1.45
		l-1.594-2.75h2.441l2.04,3.517L337.087,539.369z"/>
	<polygon fill="#4B4B4B" points="320.749,534.729 319.572,533.549 320.334,532.788 318.775,532.788 318.037,533.526 
		318.037,533.573 320.749,536.286 	"/>
	<path fill="#4B4B4B" d="M318.727,533.549l1.517,1.519v-0.13l-1.386-1.389l0.256-0.255h-0.129L318.727,533.549z M321.254,537.506
		l-3.722-3.724v-0.465l1.034-1.035h2.988l-1.268,1.267l0.968,0.97V537.506z"/>
	
		<rect x="320.196" y="532.359" transform="matrix(0.7095 0.7047 -0.7047 0.7095 468.3184 -71.3484)" fill="#4B4B4B" width="1.012" height="0.033"/>
	<path fill="#4B4B4B" d="M340.913,532.788l-0.12-0.205l2.746-3.979v-1.94l-4.048,5.87l0.148,0.256L340.913,532.788L340.913,532.788z
		 M339.965,514.15l3.574,5.183v-1.939l-2.235-3.242"/>
	<path fill="#4B4B4B" d="M344.044,520.957l-4.496-6.521l0.832-0.572l2.653,3.846v-0.159l-2.145-3.113l0.831-0.572l2.325,3.372
		V520.957L344.044,520.957z M340.276,532.283h0.111l2.646-3.838v-0.161L340.276,532.283z M341.791,533.294h-2.442l-0.455-0.785
		l5.151-7.469v3.72l-2.653,3.847L341.791,533.294z"/>
	<polyline fill="#4B4B4B" points="318.037,517.304 321.311,517.304 321.311,530.252 318.772,532.791 320.319,532.802 
		322.413,530.709 322.413,516.301 318.037,516.301 	"/>
	<path fill="#4B4B4B" d="M319.982,532.295h0.129l1.796-1.796v-13.694h-0.091v13.657L319.982,532.295z M320.527,533.308l-2.967-0.021
		l3.246-3.245v-12.234h-2.769v-2.013h4.881v15.122L320.527,533.308z"/>
	<path fill="#4B4B4B" d="M336.421,530.438l5.13-7.438l-4.687-6.798h-10.136v14.236H336.421L336.421,530.438z M340.212,522.998
		l-4.37,6.337h-8.012v-12.031h8.455L340.212,522.998z"/>
	<path fill="#4B4B4B" d="M328.336,528.829h7.242l4.021-5.831l-3.579-5.19h-7.684V528.829z M336.108,529.839h-8.782v-13.041h9.224
		l4.276,6.2L336.108,529.839z M327.234,529.931h8.922l4.781-6.933l-4.338-6.291h-9.365V529.931z M336.687,530.942h-10.463v-15.247
		h10.906l5.035,7.303L336.687,530.942z"/>
	<rect x="318.037" y="514.15" fill="#4B4B4B" width="1.095" height="3.151"/>
	<path fill="#4B4B4B" d="M318.543,516.798h0.084v-2.141h-0.084V516.798z M319.637,517.808h-2.104v-4.163h2.104V517.808z"/>
	<path fill="#4B4B4B" d="M337.272,490.068l-2.331,4.018h-9.405l-3.205-3.206l-1.582,1.582v1.56l1.582-1.581l2.749,2.747h10.496
		l2.096-3.611l3.375,1.957l-1.407,2.428h1.273l1.64-2.828L337.272,490.068z M343.539,500.145v1.941l1.223,1.775h2.953l-0.003,3.9
		l-3.033-0.002l-1.14,1.652v1.939l1.718-2.49l3.555,0.003l0.005-6.105l-3.477-0.003L343.539,500.145z"/>
	<path fill="#4B4B4B" d="M340.517,495.453h0.105l1.24-2.138l-4.407-2.557l-2.223,3.832h-9.905l-2.996-2.998l-1.077,1.077v0.129
		l1.077-1.076l2.958,2.959h9.997l2.202-3.798l4.25,2.465L340.517,495.453z M341.204,496.465h-2.442l1.594-2.748l-2.5-1.451
		l-1.989,3.428H324.87l-2.539-2.539l-2.087,2.087v-2.987l2.087-2.088l3.415,3.416h8.904l2.437-4.203l6.156,3.569L341.204,496.465z
		 M344.045,509.57v0.161l0.947-1.373l3.315,0.002l0.005-5.097l-3.237-0.003l-1.03-1.493v0.16l0.983,1.428h3.193l-0.004,4.914
		l-3.273-0.004L344.045,509.57z M343.034,512.977v-3.72l1.38-2l2.793,0.001l0.003-2.893h-2.713l-1.463-2.123v-3.72l2.572,3.729
		l3.717,0.002l-0.006,7.117l-3.795-0.003L343.034,512.977z"/>
	<polygon fill="#4B4B4B" points="320.749,494.021 319.572,495.197 320.334,495.96 318.775,495.96 318.037,495.222 318.037,495.175 
		320.749,492.462 	"/>
	<path fill="#4B4B4B" d="M318.984,495.453h0.129l-0.256-0.256l1.386-1.388v-0.129l-1.516,1.517L318.984,495.453z M321.554,496.465
		h-2.988l-1.033-1.034v-0.466l3.721-3.725v2.988l-0.967,0.969L321.554,496.465z"/>
	
		<rect x="320.704" y="495.867" transform="matrix(0.6993 0.7148 -0.7148 0.6993 451.2662 -79.999)" fill="#4B4B4B" width="0.031" height="1.011"/>
	<path fill="#4B4B4B" d="M339.639,495.96l-0.148,0.255l4.048,5.871v-1.941l-2.746-3.979l0.12-0.204L339.639,495.96L339.639,495.96z
		 M341.304,514.597l2.235-3.243v-1.938l-3.574,5.183"/>
	<path fill="#4B4B4B" d="M340.277,496.465l2.757,3.999v-0.162l-2.647-3.837H340.277z M344.045,503.709l-5.151-7.47l0.455-0.785
		h2.442l-0.399,0.687l2.653,3.849V503.709z M340.381,514.884l-0.832-0.574l4.496-6.518v3.72l-2.325,3.372l-0.832-0.574l2.146-3.111
		v-0.16L340.381,514.884z"/>
	<polyline fill="#4B4B4B" points="318.037,511.444 321.311,511.444 321.311,498.496 318.772,495.957 320.319,495.945 
		322.413,498.04 322.413,512.447 318.037,512.447 	"/>
	<path fill="#4B4B4B" d="M321.816,511.942h0.091v-13.693l-1.796-1.797l-0.129,0.001l1.834,1.833V511.942z M322.918,512.952h-4.882
		v-2.013h2.77v-12.234l-3.246-3.245l2.967-0.021l2.391,2.391V512.952z"/>
	<path fill="#4B4B4B" d="M326.729,498.311v14.237h10.136l4.687-6.798l-5.13-7.439H326.729L326.729,498.311z M336.285,511.444h-8.455
		v-12.03h8.012l4.37,6.336L336.285,511.444z"/>
	<path fill="#4B4B4B" d="M328.336,510.938h7.684l3.579-5.188l-4.021-5.832h-7.242V510.938z M336.55,511.949h-9.224v-13.041h8.782
		l4.718,6.842L336.55,511.949z M327.234,512.042h9.365l4.338-6.292l-4.781-6.935h-8.922V512.042z M337.13,513.052h-10.906v-15.246
		h10.463l5.478,7.944L337.13,513.052z"/>
	<rect x="318.037" y="511.445" fill="#4B4B4B" width="1.095" height="3.15"/>
	<path fill="#4B4B4B" d="M318.543,514.091h0.084v-2.142h-0.084V514.091z M319.637,515.102h-2.104v-4.161h2.104V515.102z"/>
	<path fill="#4B4B4B" d="M559.609,518.757c0.711-1.354,0.828-2.891,0.828-2.891c0.166-0.995,0.457-2.828-1.92-2.87
		c-2.375-0.042-2.916,2.331-2.916,2.331l-0.674,1.991c-0.145,0.568-0.205,1.044-0.203,1.441c0,2.157,1.789,2.018,1.789,2.018
		C558.09,520.812,559.04,519.845,559.609,518.757 M547.609,518.757c-0.004-0.778,0.23-1.354,0.23-1.354s0.675-6.115,10.678-6.488
		c10.002-0.373,8.965,4.953,8.965,4.953s-0.092,1.361-1.183,2.889c-1.328,1.866-4.14,3.984-10.075,4.188
		C548.798,523.198,547.62,520.484,547.609,518.757 M531.688,518.757l-0.904-7.471h6.288l0.916,7.471l0.049,0.396l0.271-0.396
		l5.186-7.471h6.547l-5.094,7.471l-2.614,3.832h-10.179L531.688,518.757z M522.288,518.757c0.71-1.354,0.827-2.891,0.827-2.891
		c0.166-0.995,0.456-2.828-1.92-2.87c-2.375-0.042-2.915,2.331-2.915,2.331l-0.674,1.991c-0.145,0.568-0.204,1.044-0.204,1.441
		c0.002,2.157,1.791,2.018,1.791,2.018C520.77,520.812,521.719,519.845,522.288,518.757 M510.287,518.757
		c-0.004-0.778,0.232-1.354,0.232-1.354s0.674-6.115,10.676-6.488c10.004-0.373,8.966,4.953,8.966,4.953s-0.094,1.361-1.183,2.889
		c-1.328,1.866-4.141,3.984-10.075,4.188C511.477,523.198,510.298,520.484,510.287,518.757 M498.007,518.757l1.72-5.719
		c0,0,4.12-0.59,3.581,1.533l-1.219,4.186l-1.117,3.832h6.839l1.144-3.832l1.274-4.268c0,0,0.83-2.333-2.086-2.913
		c0,0-3.164-0.87-7.544-0.622c-4.378,0.248-7.501,0.829-7.501,0.829l-2.069,6.974l-1.138,3.832h6.963L498.007,518.757z
		 M472.008,518.755l0.151,0.331c-0.008,1.424,0.735,3.845,7.251,3.905c0,0,5.773-0.199,7.455-1.138l1.253-3.098l0.023-0.056
		c0,0-0.032,0.018-0.096,0.053l0.072,0.003h-0.072c-0.697,0.377-5.094,2.66-8.655,1.814c0,0-1.048-0.178-1.048-1.131l0.062-0.336
		l1.469-0.349l10.484-2.471c0,0,2.553-5.565-7.186-5.434c-9.738,0.136-11.013,6.305-11.146,7.58
		C472.014,518.53,472.009,518.639,472.008,518.755 M467.322,505.756h6.783c-1.61,5.612-3.223,11.223-4.834,16.833h-6.784
		L467.322,505.756z"/>
	<path fill="#4B4B4B" d="M746.319,509.498c0,14.618-18.755,30.099-34.637,36.148c-2.319,0.884,0.757-6.808-1.479-8.812
		c-1.76-1.577-8.49-2.555-10.6-3.351c-11.182-4.221-18.927-13.374-18.927-23.986c0-14.617,14.694-26.468,32.821-26.468
		C731.625,483.03,746.319,494.881,746.319,509.498"/>
	<path fill="#4B4B4B" d="M883.61,487.347c-0.449,0.067-0.884,1.726-1.753,2.588c-0.636,0.622-1.43,0.585-1.851,1.355
		c-0.161,0.286-0.108,0.778-0.29,1.248c-0.355,0.943-1.604,1.027-1.604,2.055c-0.004,1.109,1.04,1.322,1.947,2.11
		c0.707,0.632,0.775,1.067,1.633,1.378c0.731,0.246,1.818-0.565,2.801-0.273c0.803,0.238,1.572,0.411,1.755,1.237
		c0.159,0.764-0.013,1.942-0.987,1.806c-0.328-0.038-1.755-0.517-3.505-0.329c-2.114,0.24-4.523,0.931-4.761,3.285
		c-0.129,1.316,1.5,2.868,3.072,2.555c1.086-0.214,0.572-1.497,1.163-2.118c0.776-0.799,5.177,2.785,9.267,2.785
		c1.722,0,3.002-0.437,4.271-1.769c0.121-0.103,0.266-0.32,0.447-0.333c0.174,0.013,0.478,0.186,0.577,0.257
		c3.291,2.646,5.781,7.956,17.886,8.02c1.703,0.009,3.641,0.822,5.226,2.267c1.412,1.306,2.237,3.338,3.04,5.398
		c1.213,3.093,3.381,6.101,6.675,9.446c0.179,0.181,2.889,2.286,3.104,2.442c0.034,0.025,0.234,0.499,0.164,0.765
		c-0.078,2.01-0.371,7.846,3.979,8.109c1.062,0.053,0.785-0.695,0.785-1.21c-0.003-1.016-0.188-2.027,0.348-3.068
		c0.732-1.432-1.555-2.09-1.488-5.184c0.048-2.309-1.891-1.915-2.872-3.673c-0.568-1.021-1.071-1.56-1.035-2.807
		c0.224-7.01-1.492-11.614-2.346-12.748c-0.668-0.854-1.219-1.191-0.608-1.587c3.632-2.4,4.455-4.632,4.455-4.632
		c1.932-4.539,3.668-8.685,6.062-10.51c0.48-0.377,1.718-1.301,2.478-1.663c2.235-1.053,3.41-1.692,4.061-2.324
		c1.026-0.999,1.839-3.088,0.854-4.353c-1.225-1.562-3.341-0.322-4.272,0.23c-6.678,3.964-7.661,10.951-9.974,14.967
		c-1.846,3.206-4.846,5.562-7.526,5.755c-2.01,0.147-4.179-0.258-6.336-1.205c-5.247-2.302-8.117-5.273-8.8-5.797
		c-1.409-1.089-12.354-11.836-21.225-12.274c0,0-1.102-2.205-1.377-2.24c-0.647-0.084-1.312,1.316-1.789,1.48
		C884.812,488.936,884.062,487.273,883.61,487.347"/>
</g>
<path fill="#141414" d="M896.18,327.556c0.213,0.094,0.213-0.614,0-0.521c-0.437,0.606-1.146,0.939-1.435,1.695h-0.131
	c-0.326,0.501-0.856,0.796-1.043,1.436v0.13c-0.223-0.048-0.246,0.103-0.261,0.262v0.131c-0.164,0.053-0.269,0.168-0.263,0.392
	v0.131h-0.131c0.017,0.233-0.159,0.273-0.129,0.521v0.261c-0.216,0.019-0.216,0.896,0,0.914v0.131
	c0.026,0.499,0.675,1.056,1.172,0.65h0.131c0.152,0.021,0.232-0.027,0.263-0.131v-0.13c0.332-0.016,0.507-0.189,0.521-0.521v-0.132
	c0.185-0.033,0.149-0.285,0.261-0.392v-0.13c0.194-0.109,0.189-0.42,0.262-0.652v-0.262c0.192-0.108,0.279-0.327,0.261-0.65v-0.393
	c0.217-0.131,0.142-0.555,0.261-0.782v-0.391c0.254-0.226,0.281-0.677,0.262-1.175V327.556z M901.268,305.772
	c1.479,0.087,3.304-0.174,4.563,0.13c-0.194,0.198-0.21,0.573-0.26,0.914v0.262c-0.229,0.119-0.287,0.407-0.261,0.782v0.261
	c-0.219,0.131-0.143,0.555-0.263,0.783v0.26c-0.216,0.132-0.142,0.554-0.26,0.783v0.261c-0.228,0.209-0.283,0.587-0.261,1.044v0.13
	c-0.194,0.11-0.189,0.42-0.263,0.651v0.392c-0.188,0.161-0.245,0.448-0.262,0.782v0.262c-0.201,0.189-0.272,0.508-0.26,0.913v0.261
	c-0.188,0.161-0.249,0.449-0.261,0.782v0.261c-0.217,0.133-0.144,0.556-0.263,0.783v0.26c-0.216,0.134-0.142,0.557-0.262,0.783
	v0.393c-0.187,0.161-0.246,0.447-0.26,0.782v0.261c-0.188,0.161-0.247,0.448-0.261,0.782v0.262c-0.48,0.452-0.402,1.981,0.261,0.913
	h0.13c0.247-0.188,0.679-0.191,0.783-0.521h0.131c0.543-0.195,1.107-0.37,1.435-0.783h0.131c0.242-0.017,0.437-0.086,0.521-0.259
	h0.131c0.111,0.022,0.123-0.053,0.13-0.132h0.133c0.149,0.021,0.23-0.029,0.26-0.13h0.131c0.244-0.021,0.437-0.085,0.521-0.262
	h0.261c0.244-0.019,0.438-0.087,0.522-0.262v-0.261c0.194-0.241,0.249-0.619,0.26-1.043v-0.131c0.203-0.189,0.275-0.51,0.263-0.913
	v-0.13c0.192-0.111,0.188-0.42,0.262-0.653v-0.261c0.192-0.11,0.188-0.42,0.26-0.652v-0.26c0.193-0.112,0.281-0.329,0.261-0.653
	v-0.13c0.396-0.212,0.319-0.897,0.522-1.305v-0.131c0.193-0.109,0.188-0.42,0.261-0.651v-0.13c0.176-0.086,0.243-0.279,0.261-0.523
	v-0.26c0.38-0.186,0.358-0.772,0.522-1.175v-0.13c0.174-0.085,0.243-0.279,0.261-0.522c0.964-0.599,3.036-0.093,4.436-0.261h0.261
	c0.021,0.413-0.348,0.437-0.261,0.913v0.132c-0.177,0.086-0.243,0.278-0.261,0.521v0.261c-0.229,0.032-0.3,0.224-0.262,0.521v0.263
	c-0.176,0.085-0.244,0.277-0.263,0.521v0.13c-0.193,0.111-0.188,0.421-0.261,0.653v0.13c-0.193,0.11-0.278,0.328-0.261,0.651v0.131
	c-0.193,0.11-0.28,0.328-0.261,0.654v0.129c-0.193,0.109-0.188,0.42-0.261,0.651v0.263c-0.193,0.109-0.28,0.326-0.261,0.65v0.26
	c-0.193,0.112-0.189,0.421-0.262,0.653v0.26c-0.193,0.111-0.28,0.329-0.262,0.653v0.261c-0.193,0.197-0.21,0.572-0.261,0.913v0.261
	c-0.228,0.208-0.282,0.588-0.261,1.043v0.522c-1.48,2.701,1.486,4.618,2.608,2.087h0.13c0.864-0.962,2.288-1.364,1.955-3.521v-0.392
	c0.255-0.224,0.283-0.675,0.264-1.174v-0.392c0.187-0.16,0.245-0.447,0.26-0.782v-0.262c0.188-0.159,0.248-0.447,0.261-0.782v-0.13
	c0.203-0.189,0.273-0.51,0.262-0.913v-0.131c0.193-0.11,0.189-0.42,0.262-0.651v-0.263c0.174-0.084,0.243-0.277,0.262-0.521v-0.261
	c0.192-0.111,0.28-0.328,0.26-0.653v-0.13c0.176-0.085,0.244-0.277,0.261-0.521v-0.263c1.271-0.296,3.082-0.049,4.565-0.13
	c0.095,0.399-0.225,0.383-0.131,0.783v0.13c-0.177,0.041-0.106,0.327-0.13,0.521c-0.103,0.028-0.15,0.108-0.131,0.262
	c-0.259,0.438-0.43,0.963-0.521,1.565v0.261c-0.229,0.03-0.299,0.224-0.262,0.521v0.262c-0.193,0.109-0.188,0.421-0.261,0.651v0.26
	c-0.188,0.162-0.247,0.449-0.262,0.783v0.262c-0.188,0.161-0.247,0.447-0.261,0.782v0.393c-0.126,0.004-0.102,0.158-0.131,0.261
	v0.13c-0.178,0.041-0.107,0.327-0.131,0.521v0.394c-0.246,0.318-0.279,0.849-0.26,1.433v1.696c-0.084,1.396,1.547,1.996,2.348,1.044
	h0.129c0.832-0.387,1.4-1.035,1.957-1.697v-0.129c0.368,0.021,0.327-0.369,0.521-0.521v-0.131c0.225-0.167,0.514-0.271,0.521-0.652
	v-0.13c0.329-0.105,0.332-0.538,0.522-0.783v-0.129c0.159-0.059,0.267-0.168,0.26-0.394v-0.131c0.341-0.181,0.371-0.674,0.521-1.043
	v-0.262c0.294-0.314,0.469-0.749,0.521-1.304v-0.13c0.188-0.161,0.247-0.449,0.261-0.783v-0.131
	c0.271-0.193,0.181-1.129-0.261-1.043h-0.13c-0.107-0.371-0.295-0.662-0.652-0.782v-0.263c0.006-0.224-0.098-0.336-0.262-0.392
	v-0.261v-1.696v-0.13c0.193-0.109,0.188-0.42,0.262-0.651v-0.132c0.326-0.411,0.763-0.714,1.043-1.174h0.131
	c0.242-0.017,0.438-0.085,0.521-0.261h0.13h0.783h0.261c0.469,0.359,0.901,0.752,1.305,1.175v0.13
	c0.019,0.243,0.086,0.438,0.263,0.522v0.261c-0.103,0.58,0.173,0.783,0.129,1.304v0.393c-0.291,0.057-0.053,0.643-0.129,0.912v0.393
	c-0.206,0.229-0.177,0.695-0.263,1.043v0.262c-0.193,0.11-0.188,0.419-0.262,0.651v0.261c-0.174,0.086-0.242,0.279-0.26,0.522v0.261
	c-0.306,0.217-0.335,0.708-0.521,1.043v0.131c-0.229,0.032-0.297,0.226-0.262,0.521v0.131c-0.16,0.057-0.268,0.167-0.261,0.392v0.13
	c-0.161,0.059-0.268,0.167-0.262,0.393v0.132c-0.222-0.049-0.245,0.1-0.261,0.259v0.131c-0.258,0.09-0.348,0.35-0.392,0.652
	c-0.081,0.008-0.155,0.02-0.13,0.13c-0.555,0.447-0.868,1.133-1.306,1.696v0.131c-0.109-0.024-0.123,0.051-0.132,0.13
	c-0.077,0.007-0.153,0.02-0.13,0.131c-0.151-0.021-0.232,0.028-0.261,0.129v0.131c-0.585,0.241-0.947,0.704-1.305,1.176h-0.13
	c-0.111-0.024-0.123,0.051-0.132,0.13c-0.007,0.081-0.019,0.153-0.129,0.131c-0.618,0.468-1.436,0.739-1.957,1.304h-0.262
	c-0.104,0.113-0.356,0.078-0.392,0.263h-0.131c-0.153,0.062-0.296,0.14-0.392,0.261h-0.26c-0.324-0.021-0.542,0.065-0.653,0.261
	h-0.65h-0.914h-0.521c-0.087-0.174-0.28-0.243-0.522-0.261h-0.131c-0.09-0.258-0.349-0.35-0.65-0.393
	c-0.009-0.079-0.021-0.154-0.13-0.131c-0.073-0.187-0.203-0.316-0.395-0.391v-0.13c-0.139-0.297-0.295-0.573-0.52-0.783v-0.131
	c0.019-0.323-0.068-0.541-0.265-0.651v-0.261c0.101-1.777-0.977-0.164-1.303,0.261v0.13c-1.035,0.923-2.113,1.8-3.391,2.479h-0.262
	c-0.375-0.027-0.661,0.032-0.782,0.261h-0.914c-1.157-0.276-1.879-0.99-2.478-1.826v-0.261c0.021-0.324-0.068-0.541-0.263-0.652
	v-0.391c-0.209-1.069,0.562-3.889-0.651-2.87h-0.131c-0.242,0.017-0.436,0.086-0.521,0.261h-0.13
	c-0.244,0.02-0.438,0.086-0.523,0.262h-0.13c-0.224-0.007-0.338,0.097-0.392,0.262h-0.131c-0.226-0.007-0.336,0.1-0.392,0.261h-0.13
	c-0.224-0.048-0.247,0.102-0.262,0.261h-0.263c-0.113,0.059-0.231,0.114-0.26,0.261h-0.261c-0.117,0.059-0.233,0.114-0.262,0.262
	h-0.131c-0.224-0.006-0.338,0.097-0.392,0.261h-0.131c-0.322,0.199-0.775,0.269-0.912,0.653v0.13
	c-0.215,0.132-0.142,0.553-0.261,0.782v0.261c-0.228,0.209-0.282,0.588-0.262,1.044v0.131c-0.228,0.119-0.289,0.407-0.262,0.782
	v0.391c-0.175,0.086-0.243,0.279-0.261,0.522v0.261c-0.194,0.111-0.188,0.42-0.26,0.652v0.261c-0.194,0.11-0.189,0.42-0.264,0.651
	v0.132c-0.28,0.281-0.368,0.761-0.521,1.173v0.262c-0.334,0.447-0.595,0.971-0.783,1.565v0.13c-0.501,0.542-0.866,1.22-1.304,1.826
	v0.131c-0.401,0.164-0.688,0.443-0.913,0.781c-0.08,0.009-0.154,0.021-0.131,0.131c-0.544,0.15-0.976,0.418-1.437,0.651h-0.13
	h-0.652h-0.392c-0.021-0.151-0.238-0.108-0.391-0.131h-0.13c0.022-0.108-0.052-0.123-0.133-0.13h-0.13
	c-0.571-0.384-0.939-0.972-1.304-1.564v-0.132c-0.055-0.941-0.113-1.305,0-2.217v-0.262c0.316-0.465,0.512-1.052,0.782-1.564v-0.131
	c0.216-0.175,0.45-0.333,0.521-0.651v-0.132c0.506-0.404,0.926-0.899,1.305-1.434v-0.13c0.377-0.059,0.596-0.276,0.651-0.653h0.131
	c0.578-0.726,1.655-0.953,1.826-2.087v-0.261c0.193-0.241,0.25-0.619,0.261-1.043v-0.13c0.194-0.11,0.189-0.421,0.263-0.653v-0.521
	c0.187-0.159,0.247-0.447,0.261-0.781v-0.394c0.187-0.16,0.247-0.447,0.26-0.781V319.6c0.193-0.111,0.282-0.328,0.262-0.652v-0.65
	c0.177-0.086,0.242-0.278,0.262-0.521v-0.262c0.311-0.091,0.355-1.836,0-1.043h-0.131c-0.28,0.328-0.807,0.411-1.043,0.783h-0.132
	c-0.823,0.812-3.19,1.279-2.218-0.523h0.131c0.421-0.101,0.771-0.271,1.044-0.521h0.132c0.493-0.287,0.992-0.572,1.305-1.044h0.13
	c0.126-0.003,0.101-0.159,0.13-0.261h0.13c0.288-0.104,0.326-0.456,0.522-0.651c0.007-0.081,0.02-0.155,0.13-0.131
	c0.112,0.022,0.123-0.052,0.131-0.131v-0.13c0.117-0.059,0.233-0.114,0.261-0.263v-0.13c0.411-0.327,0.586-0.891,0.782-1.437v-0.392
	c0.194-0.11,0.188-0.42,0.261-0.651v-0.392c0.293-0.054,0.004-0.692,0.264-0.783v-0.39c0.265-0.127,0.279-0.502,0.26-0.914v-0.26
	c0.193-0.111,0.188-0.421,0.261-0.653v-0.521c0.127-0.005,0.104-0.16,0.131-0.263v-0.13c0.127-0.004,0.103-0.16,0.13-0.261v-0.392
	C901.238,306.005,901.288,305.925,901.268,305.772"/>
<path fill="#141414" d="M907.617,299.696c0,1.372-1.112,2.484-2.484,2.484s-2.482-1.112-2.482-2.484c0-1.372,1.11-2.484,2.482-2.484
	S907.617,298.324,907.617,299.696"/>
<path fill="#141414" d="M478.308,518.28l6.298-3.17c0,0,0.623-2.456-2.25-2.414c-2.875,0.041-3.301,2.589-3.301,2.589
	L478.308,518.28z"/>
<path fill="none" stroke="#141414" stroke-width="3" stroke-linecap="round" d="M727.256,515.862h5.553 M727.109,509.944h6.139
	 M727.256,503.892h5.553 M712.055,503.892l9.062,11.972 M727.109,503.892v11.972 M721.409,503.892v11.972 M711.909,503.892v11.972
	 M706.209,503.892v11.972 M694.809,515.862h6.432 M694.809,503.892v11.428"/>
</svg>
