<?xml version="1.0" encoding="utf-8"?>
<!-- Generator: Adobe Illustrator 16.0.0, SVG Export Plug-In . SVG Version: 6.00 Build 0)  -->
<!DOCTYPE svg PUBLIC "-//W3C//DTD SVG 1.1//EN" "http://www.w3.org/Graphics/SVG/1.1/DTD/svg11.dtd">
<svg version="1.1" id="Layer_1" xmlns="http://www.w3.org/2000/svg" xmlns:xlink="http://www.w3.org/1999/xlink" x="0px" y="0px"
	 width="86px" height="10px" viewBox="0 0 86 10" enable-background="new 0 0 86 10" xml:space="preserve">
<g>
	<path fill="#151515" d="M7.382,9.313C6.82,9.558,6.547,9.097,6.388,8.666L5.711,6.837H2.602L1.925,8.666
		c-0.158,0.431-0.46,0.878-1.007,0.647c-0.591-0.26-0.433-0.691-0.259-1.166l2.562-6.824c0.144-0.402,0.46-0.705,0.936-0.705
		c0.446,0,0.777,0.288,0.921,0.705l2.562,6.824C7.813,8.594,7.986,9.054,7.382,9.313z M4.142,2.605L3.077,5.542h2.146L4.142,2.605z"
		/>
	<path fill="#151515" d="M16.581,9.369c-0.389,0-0.676-0.317-0.691-0.691l-0.187-5.427l-0.964,2.965
		c-0.145,0.447-0.346,0.635-0.835,0.635c-0.46,0-0.763-0.188-0.907-0.635l-0.95-2.936l-0.13,5.412
		c-0.014,0.359-0.316,0.677-0.691,0.677c-0.388,0-0.705-0.317-0.69-0.706l0.23-7.355c0.029-0.562,0.503-0.677,0.936-0.677
		c0.417,0,0.806,0.129,0.964,0.604l1.253,3.829l1.252-3.829c0.159-0.489,0.504-0.604,0.936-0.604c0.446,0,0.95,0.101,0.964,0.677
		l0.202,7.37C17.287,9.066,16.956,9.369,16.581,9.369z"/>
	<path fill="#151515" d="M24.097,9.391c-2.476,0-3.801-2.188-3.801-4.405c0-2.245,1.295-4.376,3.815-4.376s3.83,2.145,3.83,4.376
		C27.941,7.231,26.616,9.391,24.097,9.391z M24.111,1.963c-1.641,0-2.202,1.482-2.202,3.022c0,1.541,0.561,3.038,2.188,3.038
		c1.626,0,2.217-1.497,2.217-3.038C26.313,3.459,25.723,1.963,24.111,1.963z"/>
	<path fill="#151515" d="M37.011,9.091c-0.634,0.402-0.893,0.014-1.18-0.445l-1.426-2.146c-0.36-0.547-0.59-0.85-1.166-0.85h-0.677
		v2.577c0,0.533,0.015,1.022-0.72,1.022c-0.72,0-0.734-0.445-0.734-1.022V1.489c0-0.432,0.216-0.748,0.677-0.748h1.727
		c0.734,0,1.714,0.015,2.404,0.46c0.691,0.461,1.051,1.238,1.051,2.03c0,1.065-0.648,1.814-1.555,2.159
		c0.116,0.116,0.23,0.23,0.317,0.375l1.354,2.073C37.385,8.284,37.615,8.688,37.011,9.091z M33.771,2.065h-1.209V4.34h1.181
		c0.921,0,1.67-0.244,1.67-1.137C35.413,2.325,34.692,2.065,33.771,2.065z"/>
	<path fill="#151515" d="M42.972,6.095h-0.951v2.159c0,0.518,0,1.008-0.734,1.008c-0.72,0-0.735-0.446-0.735-1.008V1.487
		c0-0.432,0.216-0.749,0.677-0.749h1.742c2.231,0,3.526,0.893,3.526,2.692S45.217,6.095,42.972,6.095z M43.058,2.121h-1.037v2.692
		h1.037c1.352,0,1.885-0.476,1.885-1.354C44.943,2.596,44.396,2.121,43.058,2.121z"/>
	<path fill="#151515" d="M54.647,9.369c-0.749,0-0.735-0.475-0.735-1.022V5.482H51.12v2.864c0,0.533,0.015,1.022-0.72,1.022
		c-0.72,0-0.734-0.446-0.734-1.022V1.639c0-0.519-0.029-1.008,0.705-1.008c0.764,0,0.749,0.475,0.749,1.008v2.504h2.792V1.639
		c0-0.519-0.027-1.008,0.706-1.008c0.763,0,0.749,0.475,0.749,1.008v6.708C55.367,8.88,55.381,9.369,54.647,9.369z"/>
	<path fill="#151515" d="M62.336,9.391c-2.477,0-3.801-2.188-3.801-4.405c0-2.245,1.295-4.376,3.814-4.376s3.83,2.145,3.83,4.376
		C66.18,7.231,64.855,9.391,62.336,9.391z M62.35,1.963c-1.641,0-2.203,1.482-2.203,3.022c0,1.541,0.562,3.038,2.189,3.038
		s2.217-1.497,2.217-3.038C64.553,3.459,63.963,1.963,62.35,1.963z"/>
	<path fill="#151515" d="M72.441,9.384c-1.871,0-3.095-1.268-3.095-3.196V1.624c0-0.519-0.028-1.008,0.706-1.008
		c0.763,0,0.748,0.476,0.748,1.008v4.175c0,1.268,0.273,2.231,1.641,2.231c1.368,0,1.643-0.964,1.643-2.231V1.624
		c0-0.519-0.016-1.008,0.719-1.008c0.749,0,0.734,0.489,0.734,1.008v4.563C75.537,8.116,74.314,9.384,72.441,9.384z"/>
	<path fill="#151515" d="M82.218,9.397c-1.612,0-3.11-0.791-3.354-2.475c-0.072-0.49,0.23-0.821,0.734-0.821
		c1.166,0,0.287,1.986,2.664,1.986c0.863,0,1.742-0.403,1.742-1.237c0-0.663-0.434-0.965-1.124-1.066
		c-1.599-0.215-3.815-0.345-3.815-2.562c0-1.757,1.714-2.62,3.153-2.62c1.022,0,2.102,0.302,2.706,1.209
		c0.246,0.359,0.519,1.195,0.044,1.54c-0.532,0.403-1.052,0-1.224-0.446c-0.273-0.734-0.777-0.993-1.57-0.993
		c-0.849,0-1.627,0.432-1.627,1.253c0,0.662,0.635,0.906,1.369,0.993c0.992,0.144,2.145,0.158,2.922,0.907
		C85.284,5.482,85.5,6.044,85.5,6.72C85.5,8.649,83.83,9.397,82.218,9.397z"/>
</g>
</svg>
