<?xml version="1.0" encoding="utf-8"?>
<!-- Generator: Adobe Illustrator 16.0.0, SVG Export Plug-In . SVG Version: 6.00 Build 0)  -->
<!DOCTYPE svg PUBLIC "-//W3C//DTD SVG 1.1//EN" "http://www.w3.org/Graphics/SVG/1.1/DTD/svg11.dtd">
<svg version="1.1" id="Layer_1" xmlns="http://www.w3.org/2000/svg" xmlns:xlink="http://www.w3.org/1999/xlink" x="0px" y="0px"
	 width="162px" height="60px" viewBox="0 0 162 60" enable-background="new 0 0 162 60" xml:space="preserve">
<path fill="#151515" d="M18.65,58.977c-4.767-0.19-8.668-1.495-11.718-3.917c-0.582-0.461-1.969-1.851-2.433-2.438
	c-1.238-1.554-2.078-3.067-2.64-4.747C0.134,42.708,1.021,35.924,4.4,28.479c2.892-6.372,7.355-12.693,15.141-21.448
	c1.147-1.288,4.563-5.056,4.584-5.056c0.009,0-0.177,0.322-0.412,0.715c-2.024,3.392-3.757,7.387-4.7,10.843
	c-1.516,5.55-1.333,10.311,0.535,14.003c1.29,2.545,3.5,4.747,5.984,5.965c4.35,2.131,10.72,2.307,18.498,0.516
	c0.535-0.122,27.07-7.167,58.967-15.653c31.896-8.487,58-15.426,58.003-15.419c0.009,0.006-74.106,31.721-112.58,48.173
	c-6.094,2.605-7.722,3.264-10.586,4.27C30.51,57.961,23.952,59.188,18.65,58.977"/>
</svg>
