<?xml version="1.0" encoding="utf-8"?>
<!-- Generator: Adobe Illustrator 16.0.0, SVG Export Plug-In . SVG Version: 6.00 Build 0)  -->
<!DOCTYPE svg PUBLIC "-//W3C//DTD SVG 1.1//EN" "http://www.w3.org/Graphics/SVG/1.1/DTD/svg11.dtd">
<svg version="1.1" id="Layer_1" xmlns="http://www.w3.org/2000/svg" xmlns:xlink="http://www.w3.org/1999/xlink" x="0px" y="0px"
	 width="770px" height="175px" viewBox="0 0 770 175" enable-background="new 0 0 770 175" xml:space="preserve">
<line fill="none" stroke="#F1F0F0" stroke-width="10" x1="1" y1="83.075" x2="769" y2="83.075"/>
<ellipse fill="none" stroke="#F1F0F0" stroke-width="10" cx="263.758" cy="85.937" rx="57.222" ry="80.688"/>
<path fill="none" stroke="#F1F0F0" stroke-width="10" d="M393.842,83.574h69.277l-0.264-0.117c6.04,0,11.795-1.039,17.03-2.917
	c5.234-1.878,9.948-4.596,13.907-7.955s7.162-7.357,9.376-11.799c2.214-4.44,3.438-9.323,3.438-14.448
	c0-5.126-1.224-10.008-3.438-14.448s-5.417-8.44-9.376-11.799c-3.959-3.359-8.673-6.077-13.907-7.955
	c-5.235-1.879-10.99-2.918-17.03-2.918h-69.277v158.777 M449.409,82.58l59.724,85.415"/>
<polyline fill="none" stroke="#F1F0F0" stroke-width="10" points="578.494,168.669 578.494,9.087 578.494,8.044 636.812,125.224 
	695.129,8.349 695.129,9.392 695.129,168.974 "/>
<polyline fill="none" stroke="#F1F0F0" stroke-width="10" points="168.667,9.542 82.958,9.542 82.958,169.751 "/>
</svg>
