<?xml version="1.0" encoding="utf-8"?>
<!-- Generator: Adobe Illustrator 16.0.0, SVG Export Plug-In . SVG Version: 6.00 Build 0)  -->
<!DOCTYPE svg PUBLIC "-//W3C//DTD SVG 1.1//EN" "http://www.w3.org/Graphics/SVG/1.1/DTD/svg11.dtd">
<svg version="1.1" id="Layer_1" xmlns="http://www.w3.org/2000/svg" xmlns:xlink="http://www.w3.org/1999/xlink" x="0px" y="0px"
	 width="925px" height="200px" viewBox="0 0 925 200" enable-background="new 0 0 925 200" xml:space="preserve">
<line fill="none" stroke="#969696" stroke-width="4" x1="351.016" y1="98.051" x2="422.696" y2="98.051"/>
<polyline fill="none" stroke="#969696" stroke-width="4" points="426.026,33.11 350.728,33.11 350.728,172.344 "/>
<g>
	<path fill="#151515" d="M478.732,89.545c4.122,0,7.476,3.353,7.476,7.474s-3.354,7.475-7.476,7.475s-7.476-3.354-7.476-7.475
		S474.61,89.545,478.732,89.545 M478.732,86.545c-5.786,0-10.476,4.689-10.476,10.474c0,5.785,4.689,10.475,10.476,10.475
		s10.476-4.689,10.476-10.475C489.208,91.235,484.519,86.545,478.732,86.545L478.732,86.545z"/>
</g>
<g>
	<path fill="#151515" d="M585.917,89.545c4.122,0,7.476,3.353,7.476,7.474s-3.354,7.475-7.476,7.475
		c-4.121,0-7.474-3.354-7.474-7.475S581.796,89.545,585.917,89.545 M585.917,86.545c-5.784,0-10.474,4.689-10.474,10.474
		c0,5.785,4.689,10.475,10.474,10.475c5.786,0,10.476-4.689,10.476-10.475C596.393,91.235,591.703,86.545,585.917,86.545
		L585.917,86.545z"/>
</g>
<g>
	<path fill="#151515" d="M485.611,56.377c4.12,0,7.473,3.353,7.473,7.475s-3.353,7.475-7.473,7.475
		c-4.122,0-7.476-3.353-7.476-7.475S481.489,56.377,485.611,56.377 M485.611,53.377c-5.786,0-10.476,4.689-10.476,10.475
		s4.689,10.475,10.476,10.475c5.783,0,10.473-4.689,10.473-10.475S491.395,53.377,485.611,53.377L485.611,53.377z"/>
</g>
<g>
	<path fill="#151515" d="M512.204,24.222c4.122,0,7.476,3.353,7.476,7.475s-3.354,7.475-7.476,7.475s-7.476-3.353-7.476-7.475
		S508.082,24.222,512.204,24.222 M512.204,21.222c-5.786,0-10.476,4.689-10.476,10.475s4.689,10.475,10.476,10.475
		s10.476-4.689,10.476-10.475S517.99,21.222,512.204,21.222L512.204,21.222z"/>
</g>
<g>
	<path fill="#151515" d="M551.804,24.789c4.122,0,7.476,3.354,7.476,7.475c0,4.122-3.354,7.476-7.476,7.476
		c-4.121,0-7.474-3.354-7.474-7.476C544.33,28.142,547.683,24.789,551.804,24.789 M551.804,21.789
		c-5.786,0-10.474,4.689-10.474,10.475c0,5.786,4.688,10.476,10.474,10.476s10.476-4.689,10.476-10.476
		C562.279,26.478,557.59,21.789,551.804,21.789L551.804,21.789z"/>
</g>
<g>
	<path fill="#151515" d="M578.278,53.479c4.122,0,7.476,3.353,7.476,7.475c0,4.121-3.354,7.474-7.476,7.474
		s-7.476-3.353-7.476-7.474C570.803,56.832,574.156,53.479,578.278,53.479 M578.278,50.479c-5.786,0-10.476,4.689-10.476,10.475
		c0,5.785,4.689,10.474,10.476,10.474s10.476-4.689,10.476-10.474C588.754,55.168,584.064,50.479,578.278,50.479L578.278,50.479z"/>
</g>
<g>
	<path fill="#151515" d="M579.412,128.962c4.122,0,7.476,3.354,7.476,7.476c0,4.12-3.354,7.473-7.476,7.473
		c-4.121,0-7.474-3.353-7.474-7.473C571.938,132.315,575.291,128.962,579.412,128.962 M579.412,125.962
		c-5.784,0-10.474,4.689-10.474,10.476c0,5.783,4.689,10.473,10.474,10.473c5.786,0,10.476-4.689,10.476-10.473
		C589.888,130.651,585.198,125.962,579.412,125.962L579.412,125.962z"/>
</g>
<g>
	<path fill="#151515" d="M554.751,160.15c4.122,0,7.476,3.354,7.476,7.476c0,4.121-3.354,7.474-7.476,7.474
		c-4.121,0-7.475-3.353-7.475-7.474C547.276,163.504,550.63,160.15,554.751,160.15 M554.751,157.15
		c-5.785,0-10.475,4.689-10.475,10.476c0,5.784,4.689,10.474,10.475,10.474c5.786,0,10.476-4.689,10.476-10.474
		C565.227,161.84,560.537,157.15,554.751,157.15L554.751,157.15z"/>
</g>
<g>
	<path fill="#151515" d="M509.354,159.583c4.121,0,7.474,3.354,7.474,7.475c0,4.122-3.353,7.476-7.474,7.476
		c-4.122,0-7.476-3.354-7.476-7.476C501.879,162.937,505.232,159.583,509.354,159.583 M509.354,156.583
		c-5.786,0-10.476,4.689-10.476,10.475c0,5.786,4.689,10.476,10.476,10.476s10.474-4.689,10.474-10.476
		C519.828,161.272,515.141,156.583,509.354,156.583L509.354,156.583z"/>
</g>
<g>
	<path fill="#151515" d="M486.745,128.962c4.122,0,7.476,3.354,7.476,7.476c0,4.12-3.354,7.473-7.476,7.473
		s-7.476-3.353-7.476-7.473C479.27,132.315,482.623,128.962,486.745,128.962 M486.745,125.962c-5.786,0-10.476,4.689-10.476,10.476
		c0,5.783,4.689,10.473,10.476,10.473s10.476-4.689,10.476-10.473C497.221,130.651,492.531,125.962,486.745,125.962L486.745,125.962
		z"/>
</g>
<path fill="none" stroke="#969696" stroke-width="8" d="M642.186,90.235h61.362l-0.232-0.103c5.35,0,10.447-0.91,15.084-2.554
	c4.637-1.645,8.812-4.023,12.319-6.963c3.506-2.94,6.342-6.44,8.305-10.328c1.961-3.888,3.044-8.162,3.044-12.647
	c0-4.487-1.083-8.762-3.044-12.649c-1.963-3.886-4.799-7.386-8.305-10.327c-3.507-2.941-7.683-5.32-12.319-6.965
	c-4.637-1.644-9.734-2.552-15.084-2.552h-61.363v138.99 M691.404,89.366l52.901,74.771"/>
<circle fill="#151515" cx="833.379" cy="90.633" r="10.475"/>
<circle fill="#151515" cx="868.884" cy="93.531" r="10.475"/>
<circle fill="#151515" cx="817.139" cy="58.054" r="10.475"/>
<circle fill="#151515" cx="886.323" cy="61.121" r="10.476"/>
<circle fill="#151515" cx="851.447" cy="122.467" r="10.476"/>
<circle fill="#151515" cx="904.85" cy="92.915" r="10.474"/>
<circle fill="#151515" cx="904.85" cy="29.125" r="10.474"/>
<circle fill="#151515" cx="904.85" cy="60.314" r="10.474"/>
<circle fill="#151515" cx="904.85" cy="129.514" r="10.474"/>
<circle fill="#151515" cx="904.85" cy="165.238" r="10.474"/>
<circle fill="#151515" cx="904.85" cy="45.821" r="10.474"/>
<circle fill="#151515" cx="904.85" cy="77.706" r="10.474"/>
<circle fill="#151515" cx="904.85" cy="111.523" r="10.474"/>
<circle fill="#151515" cx="904.85" cy="147.272" r="10.474"/>
<circle fill="#151515" cx="799.641" cy="92.915" r="10.475"/>
<circle fill="#151515" cx="799.641" cy="29.125" r="10.475"/>
<circle fill="#151515" cx="799.641" cy="60.314" r="10.475"/>
<circle fill="#151515" cx="799.641" cy="129.514" r="10.475"/>
<circle fill="#151515" cx="799.641" cy="165.238" r="10.475"/>
<circle fill="#151515" cx="799.641" cy="45.821" r="10.475"/>
<circle fill="#151515" cx="799.641" cy="77.706" r="10.475"/>
<circle fill="#151515" cx="799.641" cy="111.523" r="10.475"/>
<circle fill="#151515" cx="799.641" cy="147.272" r="10.475"/>
<circle fill="#151515" cx="809.302" cy="43.619" r="10.476"/>
<circle fill="#151515" cx="824.868" cy="74.48" r="10.475"/>
<circle fill="#151515" cx="841.187" cy="107.389" r="10.475"/>
<circle fill="#151515" cx="860.511" cy="108.354" r="10.475"/>
<circle fill="#151515" cx="877.58" cy="78.072" r="10.476"/>
<circle fill="#151515" cx="894.053" cy="44.695" r="10.476"/>
<circle fill="#969696" stroke="#151515" stroke-width="9" stroke-miterlimit="10" cx="25.799" cy="110.626" r="10.475"/>
<circle fill="#969696" stroke="#151515" stroke-width="9" stroke-miterlimit="10" cx="25.799" cy="32.343" r="10.475"/>
<circle fill="#969696" stroke="#151515" stroke-width="9" stroke-miterlimit="10" cx="25.799" cy="59.667" r="10.475"/>
<circle fill="#969696" stroke="#151515" stroke-width="9" stroke-miterlimit="10" cx="25.799" cy="139.494" r="10.475"/>
<circle fill="#969696" stroke="#151515" stroke-width="9" stroke-miterlimit="10" cx="25.799" cy="167.489" r="10.475"/>
<circle fill="#969696" stroke="#151515" stroke-width="9" stroke-miterlimit="10" cx="76.272" cy="100.948" r="10.474"/>
<circle fill="#969696" stroke="#151515" stroke-width="9" stroke-miterlimit="10" cx="44.172" cy="53.223" r="10.475"/>
<circle fill="#969696" stroke="#151515" stroke-width="9" stroke-miterlimit="10" cx="107.197" cy="148.126" r="10.475"/>
<circle fill="#969696" stroke="#151515" stroke-width="9" stroke-miterlimit="10" cx="127.16" cy="167.912" r="10.476"/>
<circle fill="#969696" stroke="#151515" stroke-width="9" stroke-miterlimit="10" cx="127.16" cy="115.118" r="10.476"/>
<circle fill="#969696" stroke="#151515" stroke-width="9" stroke-miterlimit="10" cx="127.16" cy="88.064" r="10.476"/>
<circle fill="#969696" stroke="#151515" stroke-width="9" stroke-miterlimit="10" cx="127.16" cy="62.943" r="10.476"/>
<circle fill="#969696" stroke="#151515" stroke-width="9" stroke-miterlimit="10" cx="127.16" cy="34.923" r="10.476"/>
<circle fill="#151515" cx="351.016" cy="64.883" r="10.475"/>
<circle fill="#151515" cx="351.016" cy="98.051" r="10.475"/>
<circle fill="#151515" cx="351.43" cy="135.199" r="10.475"/>
<circle fill="#151515" cx="350.601" cy="170.924" r="10.476"/>
<circle fill="#151515" cx="422.697" cy="98.051" r="10.475"/>
<circle fill="#151515" cx="386.752" cy="98.051" r="10.475"/>
<circle fill="#151515" cx="351.982" cy="33.315" r="10.476"/>
<circle fill="#151515" cx="423.663" cy="33.315" r="10.476"/>
<circle fill="#151515" cx="387.718" cy="33.315" r="10.474"/>
<circle fill="#151515" cx="683.836" cy="90.009" r="7.857"/>
<circle fill="#151515" cx="641.563" cy="90.009" r="7.856"/>
<circle fill="#151515" cx="720.332" cy="87.008" r="7.856"/>
<circle fill="#151515" cx="641.563" cy="25.322" r="7.856"/>
<circle fill="#151515" cx="683.836" cy="25.323" r="7.855"/>
<circle fill="#151515" cx="720.736" cy="27.322" r="7.857"/>
<circle fill="#151515" cx="641.563" cy="56.144" r="7.856"/>
<circle fill="#151515" cx="742.067" cy="57.641" r="7.856"/>
<circle fill="#151515" cx="641.563" cy="127.088" r="7.856"/>
<circle fill="#151515" cx="641.563" cy="163.545" r="7.856"/>
<circle fill="#151515" cx="715.255" cy="123.604" r="7.856"/>
<circle fill="#151515" cx="741.809" cy="161.367" r="7.856"/>
<circle fill="#969696" stroke="#151515" stroke-width="9" stroke-miterlimit="10" cx="25.799" cy="85.812" r="10.475"/>
<circle fill="#969696" stroke="#151515" stroke-width="9" stroke-miterlimit="10" cx="59.853" cy="77.115" r="10.474"/>
<circle fill="#969696" stroke="#151515" stroke-width="9" stroke-miterlimit="10" cx="91.739" cy="124.951" r="10.476"/>
<circle fill="#969696" stroke="#151515" stroke-width="9" stroke-miterlimit="10" cx="127.16" cy="140.883" r="10.476"/>
<g>
	<circle fill="#151515" cx="237.672" cy="26.672" r="6.343"/>
	<circle fill="#151515" cx="257.582" cy="31.388" r="6.344"/>
	<circle fill="#151515" cx="272.254" cy="43.701" r="6.344"/>
	<circle fill="#151515" cx="282.657" cy="60.895" r="6.344"/>
	<circle fill="#151515" cx="288.031" cy="79.492" r="6.344"/>
	<circle fill="#151515" cx="290.686" cy="99.548" r="6.344"/>
	<circle fill="#151515" cx="288.805" cy="120.443" r="6.344"/>
	<circle fill="#151515" cx="282.702" cy="138.851" r="6.344"/>
	<circle fill="#151515" cx="271.657" cy="155.821" r="6.343"/>
	<circle fill="#151515" cx="255.94" cy="168.478" r="6.343"/>
	<circle fill="#151515" cx="237.686" cy="172.916" r="6.343"/>
	<circle fill="#151515" cx="217.849" cy="167.73" r="6.344"/>
	<circle fill="#151515" cx="203.177" cy="155.418" r="6.344"/>
	<circle fill="#151515" cx="192.774" cy="138.225" r="6.343"/>
	<circle fill="#151515" cx="187.4" cy="119.627" r="6.344"/>
	<circle fill="#151515" cx="184.746" cy="99.571" r="6.344"/>
	<circle fill="#151515" cx="186.627" cy="78.676" r="6.344"/>
	<circle fill="#151515" cx="192.73" cy="60.269" r="6.343"/>
	<circle fill="#151515" cx="203.775" cy="43.298" r="6.344"/>
	<circle fill="#151515" cx="219.491" cy="30.642" r="6.343"/>
</g>
</svg>
