<?xml version="1.0" encoding="utf-8"?>
<!-- Generator: Adobe Illustrator 16.0.0, SVG Export Plug-In . SVG Version: 6.00 Build 0)  -->
<!DOCTYPE svg PUBLIC "-//W3C//DTD SVG 1.1//EN" "http://www.w3.org/Graphics/SVG/1.1/DTD/svg11.dtd">
<svg version="1.1" id="Layer_1" xmlns="http://www.w3.org/2000/svg" xmlns:xlink="http://www.w3.org/1999/xlink" x="0px" y="0px"
	 width="150px" height="155px" viewBox="0 0 150 155" enable-background="new 0 0 150 155" xml:space="preserve">
<g>
	<g>
		<defs>
			<rect id="SVGID_1_" x="1.5" y="42.797" width="147" height="69.406"/>
		</defs>
		<clipPath id="SVGID_2_">
			<use xlink:href="#SVGID_1_"  overflow="visible"/>
		</clipPath>
		<path clip-path="url(#SVGID_2_)" fill="none" stroke="#161616" stroke-width="4" stroke-miterlimit="10" d="M127.952,75.74
			c1.273,0,2.521,0.107,3.726,0.312c1.202,0.205,2.364,0.506,3.47,0.895s2.155,0.863,3.139,1.415
			c0.984,0.551,1.901,1.18,2.737,1.872c0.838,0.694,1.592,1.454,2.257,2.271c0.664,0.815,1.234,1.688,1.703,2.605
			c0.468,0.917,0.832,1.881,1.077,2.88s0.375,2.035,0.375,3.093c0,1.059-0.13,2.094-0.375,3.094
			c-0.245,0.998-0.609,1.96-1.077,2.879c-0.469,0.919-1.04,1.79-1.703,2.605c-0.666,0.816-1.422,1.577-2.257,2.272
			c-0.836,0.692-1.753,1.32-2.737,1.872c-0.983,0.552-2.033,1.027-3.139,1.414c-1.105,0.389-2.268,0.69-3.47,0.896
			c-1.205,0.204-2.452,0.311-3.726,0.311c-1.275,0-2.522-0.106-3.726-0.311c-1.203-0.205-2.363-0.507-3.471-0.896
			c-1.106-0.387-2.156-0.862-3.139-1.414c-0.985-0.552-1.9-1.181-2.738-1.872c-0.834-0.695-1.592-1.456-2.255-2.272 M115.805,56.319
			c0.541-0.664,1.152-1.28,1.831-1.844c0.679-0.564,1.424-1.073,2.222-1.522c0.797-0.446,1.651-0.833,2.549-1.147
			c0.898-0.314,1.841-0.56,2.816-0.726c0.978-0.165,1.99-0.253,3.025-0.253s2.047,0.088,3.025,0.253
			c0.976,0.166,1.918,0.41,2.816,0.726s1.75,0.702,2.55,1.147c0.799,0.449,1.542,0.958,2.221,1.522
			c0.678,0.563,1.293,1.181,1.831,1.844c0.539,0.662,1.006,1.37,1.385,2.116c0.379,0.745,0.674,1.526,0.874,2.338
			c0.201,0.812,0.306,1.651,0.306,2.511c0,0.86-0.104,1.699-0.306,2.511c-0.199,0.812-0.494,1.594-0.874,2.34
			c-0.379,0.745-0.844,1.452-1.385,2.115c-0.538,0.663-1.153,1.28-1.831,1.844c-0.679,0.564-1.422,1.073-2.221,1.521
			s-1.651,0.833-2.55,1.149c-0.898,0.314-1.841,0.56-2.816,0.725c-0.978,0.166-1.99,0.254-3.025,0.254s-2.047-0.088-3.025-0.254
			 M9.629,61.212c0.055-0.455,0.135-0.905,0.242-1.347c0.105-0.44,0.236-0.874,0.391-1.298c0.154-0.425,0.333-0.842,0.534-1.246
			c0.201-0.407,0.425-0.801,0.669-1.186c0.244-0.384,0.51-0.756,0.795-1.117c0.285-0.361,0.591-0.709,0.915-1.044
			c0.324-0.335,0.666-0.655,1.025-0.963c0.36-0.307,0.736-0.598,1.128-0.876c0.393-0.275,0.8-0.537,1.223-0.78
			c0.422-0.244,0.86-0.47,1.311-0.679c0.45-0.208,0.912-0.399,1.387-0.571c0.476-0.171,0.962-0.322,1.459-0.455
			c0.498-0.133,1.006-0.243,1.523-0.333c0.517-0.092,1.042-0.159,1.577-0.206c0.535-0.047,1.077-0.07,1.625-0.07
			c0.549,0,1.09,0.023,1.624,0.07s1.06,0.114,1.578,0.206c0.516,0.09,1.025,0.2,1.521,0.333c0.497,0.133,0.985,0.284,1.46,0.455
			c0.474,0.172,0.938,0.363,1.388,0.571c0.45,0.209,0.887,0.435,1.31,0.679c0.421,0.243,0.83,0.505,1.223,0.78
			c0.392,0.278,0.768,0.569,1.126,0.876c0.359,0.308,0.701,0.627,1.025,0.963s0.63,0.683,0.916,1.044s0.551,0.733,0.795,1.117
			c0.245,0.385,0.468,0.779,0.669,1.186c0.201,0.404,0.379,0.821,0.534,1.246c0.155,0.424,0.286,0.857,0.392,1.298
			c0.105,0.441,0.185,0.891,0.24,1.347c0.272,2.289,0.275,4.642-1.166,6.664c-0.261,0.365-3.326,3.835-3.572,4.219l-30.5,35.429
			H40.07 M93.134,43.693l-32.632,67.613"/>
	</g>
</g>
</svg>
