<?xml version="1.0" encoding="utf-8"?>
<!-- Generator: Adobe Illustrator 16.0.0, SVG Export Plug-In . SVG Version: 6.00 Build 0)  -->
<!DOCTYPE svg PUBLIC "-//W3C//DTD SVG 1.1//EN" "http://www.w3.org/Graphics/SVG/1.1/DTD/svg11.dtd">
<svg version="1.1" id="Layer_1" xmlns="http://www.w3.org/2000/svg" xmlns:xlink="http://www.w3.org/1999/xlink" x="0px" y="0px"
	 width="81px" height="9px" viewBox="0 0 81 9" enable-background="new 0 0 81 9" xml:space="preserve">
<path fill="#151515" d="M80.502,6.26c0-0.643-0.23-1.16-0.662-1.536c-0.844-0.712-2.104-0.74-3.164-0.866
	c-0.783-0.098-1.719-0.349-1.719-1.228c0-1.02,1.059-1.48,2.043-1.48c0.967,0,1.627,0.293,1.98,1.145
	c0.152,0.392,0.598,0.642,1.029,0.363c0.43-0.293,0.105-0.978-0.107-1.285c-0.631-0.838-1.736-1.145-2.842-1.145
	c-1.566,0-3.316,0.852-3.316,2.458c0,2.107,2.395,2.205,4.084,2.414c0.83,0.098,1.459,0.461,1.459,1.285
	c0,1.047-1.197,1.48-2.18,1.48c-1.199,0-2.029-0.377-2.352-1.438c-0.137-0.392-0.354-0.587-0.645-0.587
	c-0.43,0-0.66,0.224-0.6,0.601c0.232,1.591,1.799,2.346,3.549,2.346C78.812,8.787,80.502,8.046,80.502,6.26 M71.193,5.715v-4.65
	c0-0.488,0.047-0.823-0.584-0.823c-0.629,0-0.584,0.335-0.584,0.823v4.246c0,1.299-0.322,2.484-2.072,2.484
	c-1.752,0-2.074-1.186-2.074-2.484V1.064c0-0.488,0.047-0.823-0.598-0.823c-0.615,0-0.568,0.335-0.568,0.823v4.65
	c0,1.856,1.273,3.043,3.24,3.043C69.918,8.758,71.193,7.571,71.193,5.715 M61.211,4.5c0,1.578-0.676,3.295-2.703,3.295
	c-2.043,0-2.703-1.717-2.703-3.295c0-1.593,0.645-3.296,2.703-3.296C60.535,1.204,61.211,2.922,61.211,4.5 M62.562,4.5
	c0-2.22-1.414-4.259-4.055-4.259c-2.656,0-4.055,2.024-4.055,4.259c0,2.192,1.443,4.258,4.055,4.258
	C61.148,8.758,62.562,6.72,62.562,4.5 M52.303,7.893V1.064c0-0.488,0.047-0.823-0.598-0.823c-0.615,0-0.568,0.335-0.568,0.823v2.752
	h-3.596V1.064c0-0.488,0.047-0.823-0.598-0.823c-0.615,0-0.568,0.335-0.568,0.823v6.828c0,0.489-0.047,0.824,0.598,0.824
	c0.615,0,0.568-0.335,0.568-0.824V4.751h3.596v3.142c0,0.489-0.047,0.824,0.598,0.824C52.35,8.717,52.303,8.382,52.303,7.893
	 M42.949,3.021c0,1.06-0.768,1.591-2.349,1.591h-1.398V1.442h1.398C42.152,1.442,42.949,1.974,42.949,3.021 M44.225,2.992
	c0-1.662-1.275-2.526-3.717-2.526h-1.965c-0.354,0-0.522,0.195-0.522,0.543v6.884c0,0.489-0.046,0.824,0.599,0.824
	c0.614,0,0.583-0.35,0.583-0.824V5.506h1.306C42.965,5.506,44.225,4.654,44.225,2.992 M34.103,2.769
	c0,1.116-1.074,1.368-2.103,1.368h-1.551V1.386h1.598C33.075,1.386,34.103,1.665,34.103,2.769 M35.562,7.6l-1.52-2.108
	c-0.169-0.237-0.384-0.419-0.646-0.572c1.152-0.251,1.997-1.006,1.997-2.122c0-0.755-0.369-1.479-1.075-1.899
	c-0.707-0.419-1.736-0.432-2.564-0.432h-1.951c-0.354,0-0.522,0.195-0.522,0.543v6.884c0,0.489-0.046,0.824,0.599,0.824
	c0.614,0,0.568-0.335,0.568-0.824V5.045h0.998c0.769,0,1.091,0.418,1.49,0.963L34.534,8.2c0.308,0.419,0.477,0.712,1.014,0.391
	C36.07,8.284,35.855,8.004,35.562,7.6 M25.78,4.5c0,1.578-0.676,3.295-2.703,3.295c-2.042,0-2.703-1.717-2.703-3.295
	c0-1.593,0.645-3.296,2.703-3.296C25.104,1.204,25.78,2.922,25.78,4.5 M27.131,4.5c0-2.22-1.413-4.259-4.055-4.259
	c-2.657,0-4.054,2.024-4.054,4.259c0,2.192,1.444,4.258,4.054,4.258C25.718,8.758,27.131,6.72,27.131,4.5 M17.025,8.228l-0.23-7.498
	c-0.016-0.446-0.46-0.488-0.845-0.488c-0.43,0-0.691,0.098-0.829,0.475l-1.628,4.481L11.85,0.716
	c-0.138-0.363-0.445-0.475-0.86-0.475c-0.368,0-0.798,0.057-0.814,0.488L9.93,8.215c-0.015,0.277,0.23,0.502,0.538,0.502
	c0.308,0,0.554-0.225,0.554-0.489l0.153-6.715l1.505,4.132c0.138,0.363,0.368,0.503,0.798,0.503s0.584-0.125,0.722-0.503l1.49-4.132
	l0.246,6.702c0.015,0.277,0.246,0.502,0.553,0.502C16.78,8.717,17.041,8.492,17.025,8.228 M5.906,5.197H2.834l1.521-3.812
	L5.906,5.197z M8.072,7.726L5.2,0.758C5.062,0.409,4.77,0.213,4.371,0.213c-0.415,0-0.691,0.21-0.83,0.545L0.669,7.726
	C0.515,8.102,0.315,8.451,0.838,8.646c0.46,0.182,0.676-0.209,0.814-0.545l0.814-1.996h3.809l0.814,1.996
	c0.138,0.336,0.337,0.727,0.813,0.545C8.409,8.451,8.226,8.102,8.072,7.726"/>
</svg>
