<?xml version="1.0" encoding="utf-8"?>
<!-- Generator: Adobe Illustrator 16.0.0, SVG Export Plug-In . SVG Version: 6.00 Build 0)  -->
<!DOCTYPE svg PUBLIC "-//W3C//DTD SVG 1.1//EN" "http://www.w3.org/Graphics/SVG/1.1/DTD/svg11.dtd">
<svg version="1.1" id="Layer_1" xmlns="http://www.w3.org/2000/svg" xmlns:xlink="http://www.w3.org/1999/xlink" x="0px" y="0px"
	 width="970px" height="460px" viewBox="0 0 970 460" enable-background="new 0 0 970 460" xml:space="preserve">
<polyline fill="none" stroke="#F1F0F0" stroke-width="2" points="725.18,391.361 472.18,68.849 219.18,391.361 "/>
<line fill="none" stroke="#F1F0F0" stroke-width="2.448" x1="217.711" y1="390.305" x2="726.65" y2="390.305"/>
<path fill="#151515" d="M224.905,451.75c37.002,0,66.998-29.996,66.998-66.998s-29.996-66.998-66.998-66.998
	s-66.998,29.996-66.998,66.998S187.903,451.75,224.905,451.75"/>
<circle fill="none" stroke="#F1F0F0" stroke-width="10" cx="224.905" cy="384.752" r="66.998"/>
<path fill="#151515" d="M716.91,451.75c37.002,0,66.998-29.996,66.998-66.998s-29.996-66.998-66.998-66.998
	s-66.998,29.996-66.998,66.998S679.908,451.75,716.91,451.75"/>
<circle fill="none" stroke="#F1F0F0" stroke-width="10" cx="716.91" cy="384.752" r="66.998"/>
<path fill="#151515" d="M473.182,142.246c37.001,0,66.998-29.996,66.998-66.998c0-37.002-29.996-66.997-66.998-66.997
	c-37.002,0-66.998,29.995-66.998,66.997C406.184,112.25,436.18,142.246,473.182,142.246"/>
<circle fill="none" stroke="#F1F0F0" stroke-width="10" cx="473.182" cy="75.249" r="66.997"/>
<path fill="#F1F0F0" d="M729.838,396.803c0-1.168-0.943-2.289-2.201-2.289h-10.602c3.908-3.592,11.455-10.457,11.455-15.709
	c0-4.982-3.998-8.393-8.76-8.393c-3.953,0-6.471,1.525-8.941,4.354c-0.854,0.986-0.584,2.424,0.27,3.186
	c0.854,0.719,2.381,0.943,3.234-0.045c1.572-1.705,2.742-3.275,5.346-3.275c2.428,0,3.955,1.885,3.955,4.354
	c0,3.322-9.436,12.254-11.906,14.855c-0.854,0.809-1.707,1.482-1.707,2.783c0,1.93,1.393,2.469,2.83,2.469h14.691
	C729.074,399.092,729.838,398.016,729.838,396.803"/>
<path fill="#F1F0F0" d="M234.252,390.541c0-3.098-1.483-5.564-4.089-6.822c2.067-1.211,3.19-3.365,3.19-6.059
	c0-4.666-3.909-7.584-8.223-7.584c-2.067,0-8.134,1.66-8.134,4.443c0,1.121,0.899,1.975,1.977,1.975
	c1.304,0,3.326-2.199,5.932-2.199c2.202,0,3.685,1.705,3.685,3.994c0,5.07-6.426,2.244-6.426,5.834c0,3.814,7.235,0.314,7.235,6.418
	c0,2.828-2.067,4.443-4.943,4.443c-2.741,0-5.303-2.154-6.696-2.154c-1.168,0-2.202,0.854-2.202,2.109
	c0,3.098,6.516,4.488,8.763,4.488C229.623,399.428,234.252,396.375,234.252,390.541"/>
<path fill="#F1F0F0" d="M482.309,88.268c0-1.871-1.537-2.206-3.074-2.206h-3.555V62.03c0-1.822-1.105-2.398-2.738-1.966
	l-6.629,1.774c-1.633,0.432-2.161,1.391-1.825,2.735c0.336,1.534,1.393,1.822,2.882,1.487l3.459-0.816v20.818h-3.699
	c-1.537,0-3.074,0.335-3.074,2.206c0,1.631,1.152,2.302,2.449,2.302h13.354C481.156,90.57,482.309,89.899,482.309,88.268"/>
<path fill="#F1F0F0" d="M685.676,69.08c0.047-0.107,0.049-0.237,0.01-0.39c-0.041-0.153-0.16-0.297-0.359-0.43
	c-0.094-0.067-0.184-0.113-0.271-0.14c-0.086-0.027-0.16-0.05-0.219-0.07c-0.061-0.02-0.121-0.013-0.18,0.02
	c-0.061,0.033-0.107,0.057-0.141,0.07c-0.033,0.013-0.078,0.063-0.131,0.15s-0.086,0.14-0.1,0.16s-0.051,0.09-0.109,0.21
	c-0.061,0.12-0.098,0.193-0.111,0.22l-2.719,5.18l-2.721-5.2c-0.119-0.24-0.199-0.39-0.24-0.45c-0.039-0.06-0.113-0.14-0.219-0.24
	c-0.107-0.1-0.225-0.137-0.352-0.11c-0.127,0.027-0.281,0.093-0.469,0.2c-0.094,0.053-0.174,0.107-0.24,0.16
	s-0.107,0.117-0.121,0.19c-0.012,0.073-0.025,0.127-0.039,0.16c-0.014,0.033,0,0.1,0.039,0.2c0.041,0.1,0.068,0.163,0.08,0.19
	c0.014,0.027,0.059,0.103,0.131,0.23c0.072,0.127,0.117,0.21,0.131,0.25l3.238,5.94v3.48v0.14c0,0.253,0.012,0.44,0.031,0.56
	c0.02,0.12,0.086,0.23,0.199,0.33s0.297,0.15,0.551,0.15c0.279,0,0.473-0.06,0.58-0.18c0.107-0.12,0.16-0.453,0.16-1V75.6
	l3.279-5.94C685.525,69.38,685.629,69.187,685.676,69.08 M674.266,68.42h-8.4c-0.52,0-0.779,0.233-0.779,0.7
	c0,0.467,0.26,0.7,0.779,0.7h3.439v9.24v0.14c0,0.253,0.01,0.44,0.031,0.56c0.02,0.12,0.086,0.23,0.199,0.33s0.297,0.15,0.551,0.15
	c0.279,0,0.473-0.06,0.58-0.18c0.105-0.12,0.16-0.453,0.16-1v-9.24h3.439c0.52,0,0.779-0.233,0.779-0.7
	C675.045,68.653,674.785,68.42,674.266,68.42 M662.596,78.89c-0.059-0.1-0.164-0.167-0.309-0.2c-0.148-0.033-0.262-0.053-0.34-0.06
	c-0.08-0.007-0.229-0.01-0.441-0.01h-2.199v-8.8h2.199h0.361c0.053,0,0.152-0.01,0.299-0.03s0.244-0.053,0.291-0.1
	c0.045-0.047,0.096-0.117,0.148-0.21c0.055-0.093,0.08-0.213,0.08-0.36c0-0.467-0.238-0.7-0.719-0.7h-6.82
	c-0.494,0-0.74,0.233-0.74,0.7c0,0.147,0.025,0.267,0.08,0.36c0.053,0.093,0.104,0.163,0.15,0.21c0.045,0.047,0.143,0.08,0.289,0.1
	s0.246,0.03,0.301,0.03h0.359h2.201v8.8h-2.201c-0.279,0-0.477,0.003-0.59,0.01s-0.24,0.063-0.379,0.17
	c-0.141,0.107-0.211,0.273-0.211,0.5c0,0.173,0.029,0.31,0.09,0.41s0.164,0.17,0.311,0.21s0.262,0.063,0.35,0.07
	c0.086,0.007,0.23,0.01,0.43,0.01h5.92c0.266,0,0.463-0.007,0.59-0.02c0.127-0.013,0.256-0.073,0.391-0.18
	c0.133-0.107,0.199-0.273,0.199-0.5C662.686,79.127,662.656,78.99,662.596,78.89 M651.127,78.62h-5.82v-9.34v-0.14
	c0-0.253-0.01-0.44-0.031-0.56c-0.02-0.12-0.086-0.23-0.199-0.33s-0.297-0.15-0.551-0.15c-0.186,0-0.336,0.023-0.449,0.07
	s-0.189,0.14-0.23,0.28c-0.039,0.14-0.062,0.25-0.07,0.33c-0.006,0.08-0.01,0.247-0.01,0.5v9.94c0,0.52,0.227,0.78,0.682,0.78h6.68
	c0.52,0,0.779-0.227,0.779-0.68C651.906,78.853,651.646,78.62,651.127,78.62 M634.326,75.2l1.98-5.46l2.02,5.46H634.326z
	 M637.406,68.84c-0.188-0.52-0.547-0.78-1.08-0.78c-0.52,0-0.879,0.26-1.08,0.78l-3.74,9.98c0,0.013-0.02,0.07-0.059,0.17
	c-0.041,0.1-0.064,0.16-0.07,0.18c-0.008,0.02-0.025,0.073-0.051,0.16c-0.027,0.087-0.039,0.143-0.039,0.17v0.14
	c0,0.067,0.012,0.117,0.039,0.15c0.025,0.033,0.053,0.077,0.08,0.13c0.025,0.053,0.066,0.097,0.119,0.13
	c0.055,0.033,0.121,0.063,0.201,0.09c0.439,0.187,0.793-0.073,1.061-0.78l1.059-2.86h4.961l1.061,2.86
	c0.119,0.32,0.256,0.56,0.408,0.72c0.154,0.16,0.371,0.18,0.65,0.06c0.201-0.08,0.326-0.187,0.381-0.32
	c0.08-0.173,0.025-0.507-0.16-1L637.406,68.84z M624.646,73.68h-2.02v-3.94h2.08c1.787,0,2.68,0.66,2.68,1.98
	C627.387,73.027,626.473,73.68,624.646,73.68 M627.307,75.62c-0.201-0.32-0.48-0.593-0.84-0.82c0.773-0.187,1.4-0.547,1.879-1.08
	c0.48-0.533,0.721-1.187,0.721-1.96c0-1.2-0.467-2.107-1.4-2.72c-0.641-0.413-1.752-0.62-3.34-0.62h-2.539
	c-0.453,0-0.682,0.26-0.682,0.78v9.86v0.14c0,0.253,0.012,0.44,0.031,0.56c0.02,0.12,0.086,0.23,0.199,0.33s0.297,0.15,0.551,0.15
	c0.279,0,0.473-0.06,0.58-0.18c0.107-0.12,0.16-0.453,0.16-1v-4.08h1.299c0.32,0,0.604,0.07,0.85,0.21
	c0.248,0.14,0.438,0.29,0.57,0.45c0.133,0.16,0.307,0.4,0.521,0.72l2.08,3.14c0.146,0.227,0.242,0.37,0.289,0.43
	c0.047,0.06,0.127,0.137,0.24,0.23c0.113,0.093,0.23,0.127,0.35,0.1c0.121-0.027,0.268-0.093,0.439-0.2
	c0.213-0.133,0.34-0.283,0.381-0.45c0.039-0.167,0.029-0.307-0.029-0.42c-0.061-0.113-0.17-0.297-0.33-0.55L627.307,75.62z
	 M617.727,68.42h-8.4c-0.52,0-0.779,0.233-0.779,0.7c0,0.467,0.26,0.7,0.779,0.7h3.439v9.24v0.14c0,0.253,0.01,0.44,0.031,0.56
	c0.02,0.12,0.086,0.23,0.199,0.33s0.297,0.15,0.551,0.15c0.279,0,0.473-0.06,0.58-0.18c0.105-0.12,0.16-0.453,0.16-1v-9.24h3.439
	c0.52,0,0.779-0.233,0.779-0.7C618.506,68.653,618.246,68.42,617.727,68.42 M605.947,69.28v-0.14c0-0.267-0.008-0.457-0.02-0.57
	c-0.014-0.113-0.08-0.22-0.201-0.32c-0.119-0.1-0.299-0.15-0.539-0.15c-0.295,0-0.5,0.067-0.621,0.2
	c-0.094,0.12-0.139,0.447-0.139,0.98v6.08c0,1.093-0.189,1.96-0.57,2.6s-1.09,0.96-2.131,0.96c-1.039,0-1.75-0.32-2.129-0.96
	c-0.381-0.64-0.57-1.507-0.57-2.6v-6.08v-0.14c0-0.253-0.01-0.44-0.029-0.56c-0.021-0.12-0.088-0.23-0.201-0.33
	s-0.297-0.15-0.549-0.15c-0.268,0-0.461,0.06-0.58,0.18c-0.107,0.12-0.16,0.453-0.16,1v6.66c0,1.333,0.383,2.393,1.15,3.18
	c0.766,0.787,1.789,1.18,3.068,1.18c1.281,0,2.305-0.393,3.07-1.18c0.766-0.787,1.15-1.847,1.15-3.18V69.28z M593.928,78.62h-5.801
	V74.3h3.02c0.281,0,0.48-0.04,0.602-0.12c0.119-0.08,0.18-0.233,0.18-0.46s-0.061-0.383-0.18-0.47
	c-0.121-0.087-0.32-0.13-0.602-0.13h-3.02v-3.3h5.801c0.52,0,0.779-0.233,0.779-0.7c0-0.467-0.26-0.7-0.779-0.7h-6.68
	c-0.441,0-0.66,0.26-0.66,0.78v10.02c0,0.52,0.219,0.78,0.66,0.78h6.68c0.52,0,0.779-0.227,0.779-0.68
	C594.707,78.853,594.447,78.62,593.928,78.62 M582.988,69.24v-0.22V68.8c0-0.027-0.004-0.083-0.012-0.17
	c-0.006-0.087-0.016-0.143-0.029-0.17s-0.029-0.07-0.051-0.13c-0.02-0.06-0.049-0.1-0.09-0.12c-0.039-0.02-0.082-0.047-0.129-0.08
	c-0.047-0.033-0.104-0.053-0.17-0.06c-0.068-0.007-0.148-0.01-0.24-0.01c-0.094,0-0.178,0.01-0.25,0.03
	c-0.074,0.02-0.133,0.04-0.18,0.06s-0.088,0.057-0.121,0.11c-0.033,0.053-0.057,0.097-0.07,0.13
	c-0.012,0.033-0.021,0.097-0.029,0.19c-0.008,0.093-0.01,0.16-0.01,0.2v0.23v0.25v8.28l-4.92-8.88
	c-0.146-0.267-0.283-0.437-0.41-0.51s-0.344-0.11-0.65-0.11c-0.613,0-0.92,0.233-0.92,0.7v10.32v0.24v0.24
	c0,0.04,0.004,0.107,0.01,0.2c0.008,0.093,0.021,0.153,0.041,0.18s0.047,0.07,0.08,0.13s0.072,0.097,0.119,0.11
	c0.047,0.013,0.109,0.03,0.189,0.05s0.168,0.03,0.262,0.03c0.092,0,0.176-0.01,0.25-0.03c0.072-0.02,0.133-0.037,0.18-0.05
	c0.047-0.013,0.086-0.05,0.119-0.11s0.061-0.103,0.08-0.13s0.033-0.087,0.041-0.18c0.006-0.093,0.01-0.16,0.01-0.2V79.3v-0.24v-8.8
	l5.199,9.34c0.133,0.24,0.268,0.41,0.4,0.51s0.326,0.15,0.58,0.15c0.48,0,0.721-0.2,0.721-0.6V69.24z"/>
<path fill="#F1F0F0" d="M968.092,381.24v-0.221v-0.219c0-0.027-0.004-0.084-0.01-0.17c-0.008-0.088-0.018-0.145-0.031-0.172
	c-0.012-0.025-0.029-0.068-0.049-0.129c-0.021-0.061-0.051-0.1-0.092-0.121c-0.039-0.02-0.082-0.047-0.129-0.078
	c-0.047-0.033-0.104-0.055-0.17-0.061c-0.066-0.008-0.146-0.01-0.24-0.01s-0.178,0.01-0.25,0.029s-0.133,0.041-0.18,0.061
	s-0.088,0.057-0.121,0.109c-0.031,0.053-0.057,0.098-0.068,0.131c-0.014,0.033-0.023,0.096-0.031,0.189
	c-0.006,0.094-0.01,0.16-0.01,0.199v0.23v0.25v8.279l-4.92-8.879c-0.146-0.268-0.283-0.438-0.41-0.51
	c-0.127-0.074-0.342-0.111-0.65-0.111c-0.613,0-0.92,0.234-0.92,0.701v10.32v0.24v0.238c0,0.041,0.004,0.107,0.01,0.201
	c0.008,0.092,0.021,0.152,0.041,0.18s0.047,0.07,0.08,0.131c0.033,0.059,0.072,0.096,0.119,0.109s0.111,0.029,0.191,0.049
	c0.08,0.021,0.166,0.031,0.26,0.031c0.092,0,0.176-0.01,0.25-0.031c0.072-0.02,0.133-0.035,0.18-0.049s0.086-0.051,0.119-0.109
	c0.033-0.061,0.061-0.104,0.08-0.131s0.033-0.088,0.041-0.18c0.006-0.094,0.01-0.16,0.01-0.201v-0.238v-0.24v-8.801l5.199,9.34
	c0.133,0.24,0.268,0.41,0.4,0.51s0.326,0.15,0.58,0.15c0.48,0,0.721-0.199,0.721-0.6V381.24z M953.801,390.189
	c-0.553,0.488-1.242,0.73-2.07,0.73c-0.84,0-1.533-0.242-2.08-0.73c-0.547-0.486-0.922-1.066-1.129-1.74
	c-0.207-0.672-0.311-1.422-0.311-2.25c0-0.826,0.1-1.576,0.301-2.25c0.199-0.672,0.576-1.252,1.129-1.74
	c0.553-0.486,1.25-0.729,2.09-0.729c0.828,0,1.518,0.242,2.07,0.729c0.553,0.488,0.934,1.07,1.141,1.75
	c0.207,0.682,0.311,1.428,0.311,2.24c0,0.814-0.104,1.561-0.311,2.24S954.354,389.703,953.801,390.189 M951.73,380.1
	c-1.652,0-2.947,0.594-3.879,1.781c-0.934,1.186-1.4,2.627-1.4,4.318c0,1.668,0.473,3.102,1.42,4.301s2.232,1.801,3.859,1.801
	c1.641,0,2.93-0.594,3.871-1.781c0.939-1.188,1.41-2.627,1.41-4.32c0-1.691-0.471-3.133-1.41-4.318
	C954.66,380.693,953.371,380.1,951.73,380.1 M943.762,390.891c-0.061-0.102-0.164-0.168-0.311-0.201s-0.26-0.053-0.34-0.059
	c-0.08-0.008-0.227-0.012-0.439-0.012h-2.199v-8.799h2.199h0.359c0.055,0,0.154-0.01,0.301-0.031c0.146-0.02,0.242-0.053,0.291-0.1
	c0.045-0.047,0.096-0.117,0.148-0.209c0.053-0.094,0.08-0.213,0.08-0.361c0-0.467-0.24-0.699-0.721-0.699h-6.818
	c-0.494,0-0.742,0.232-0.742,0.699c0,0.148,0.027,0.268,0.082,0.361c0.053,0.092,0.104,0.162,0.15,0.209
	c0.045,0.047,0.143,0.08,0.289,0.1c0.146,0.021,0.246,0.031,0.299,0.031h0.361h2.199v8.799h-2.199c-0.279,0-0.477,0.004-0.59,0.012
	c-0.113,0.006-0.24,0.062-0.381,0.17c-0.141,0.105-0.211,0.271-0.211,0.5c0,0.172,0.031,0.309,0.092,0.408
	c0.061,0.102,0.162,0.172,0.311,0.211c0.145,0.039,0.262,0.062,0.348,0.07c0.088,0.006,0.232,0.01,0.432,0.01h5.92
	c0.266,0,0.463-0.008,0.59-0.02c0.127-0.014,0.256-0.074,0.391-0.18c0.133-0.107,0.199-0.273,0.199-0.5
	C943.852,391.127,943.82,390.99,943.762,390.891 M932.393,380.42h-8.4c-0.52,0-0.779,0.232-0.779,0.699
	c0,0.469,0.26,0.701,0.779,0.701h3.439v9.24v0.139c0,0.254,0.01,0.441,0.031,0.561c0.02,0.121,0.086,0.23,0.199,0.33
	s0.297,0.15,0.551,0.15c0.279,0,0.473-0.061,0.58-0.18c0.105-0.121,0.158-0.453,0.158-1v-9.24h3.441c0.52,0,0.779-0.232,0.779-0.701
	C933.172,380.652,932.912,380.42,932.393,380.42 M914.771,387.199l1.98-5.459l2.02,5.459H914.771z M917.852,380.84
	c-0.186-0.52-0.547-0.779-1.08-0.779c-0.52,0-0.879,0.26-1.08,0.779l-3.74,9.98c0,0.012-0.02,0.07-0.059,0.17
	c-0.041,0.1-0.064,0.16-0.07,0.18c-0.008,0.02-0.023,0.072-0.051,0.16c-0.027,0.086-0.039,0.143-0.039,0.17v0.141
	c0,0.066,0.012,0.117,0.039,0.148c0.027,0.033,0.053,0.078,0.08,0.131s0.066,0.098,0.121,0.131c0.053,0.031,0.119,0.062,0.199,0.09
	c0.439,0.186,0.793-0.074,1.061-0.781l1.061-2.859h4.959l1.061,2.859c0.119,0.32,0.256,0.561,0.41,0.721
	c0.152,0.16,0.369,0.18,0.65,0.061c0.199-0.08,0.324-0.188,0.379-0.32c0.08-0.174,0.025-0.508-0.16-1L917.852,380.84z
	 M905.092,385.68h-2.02v-3.939h2.08c1.787,0,2.68,0.66,2.68,1.98C907.832,385.027,906.92,385.68,905.092,385.68 M907.752,387.619
	c-0.199-0.318-0.48-0.592-0.84-0.818c0.773-0.188,1.4-0.549,1.881-1.08c0.479-0.533,0.719-1.188,0.719-1.961
	c0-1.199-0.467-2.107-1.4-2.721c-0.639-0.412-1.752-0.619-3.34-0.619h-2.539c-0.453,0-0.68,0.26-0.68,0.779v9.861v0.139
	c0,0.254,0.01,0.441,0.029,0.561c0.02,0.121,0.088,0.23,0.199,0.33c0.113,0.1,0.299,0.15,0.551,0.15c0.279,0,0.473-0.061,0.58-0.18
	c0.107-0.121,0.16-0.453,0.16-1v-4.08h1.301c0.318,0,0.602,0.07,0.85,0.209c0.246,0.141,0.436,0.291,0.57,0.451
	c0.133,0.16,0.307,0.398,0.52,0.719l2.08,3.141c0.146,0.227,0.242,0.369,0.289,0.43s0.127,0.137,0.24,0.23
	c0.113,0.092,0.23,0.127,0.35,0.1c0.121-0.027,0.268-0.094,0.441-0.199c0.213-0.133,0.34-0.283,0.379-0.451
	c0.041-0.166,0.031-0.307-0.029-0.42s-0.17-0.297-0.33-0.549L907.752,387.619z M895.543,390.189c-0.555,0.488-1.244,0.73-2.07,0.73
	c-0.84,0-1.533-0.242-2.08-0.73c-0.547-0.486-0.924-1.066-1.131-1.74c-0.207-0.672-0.311-1.422-0.311-2.25
	c0-0.826,0.102-1.576,0.301-2.25c0.199-0.672,0.578-1.252,1.131-1.74c0.553-0.486,1.25-0.729,2.09-0.729
	c0.826,0,1.516,0.242,2.07,0.729c0.553,0.488,0.932,1.07,1.139,1.75c0.207,0.682,0.311,1.428,0.311,2.24
	c0,0.814-0.104,1.561-0.311,2.24S896.096,389.703,895.543,390.189 M893.473,380.1c-1.654,0-2.947,0.594-3.881,1.781
	c-0.934,1.186-1.4,2.627-1.4,4.318c0,1.668,0.475,3.102,1.42,4.301c0.947,1.199,2.234,1.801,3.861,1.801
	c1.639,0,2.93-0.594,3.869-1.781s1.41-2.627,1.41-4.32c0-1.691-0.471-3.133-1.41-4.318C896.402,380.693,895.111,380.1,893.473,380.1
	 M881.152,390.619h-2.16v-4h2.26c1.188,0,2.023,0.154,2.51,0.461c0.488,0.307,0.73,0.82,0.73,1.539c0,0.721-0.25,1.234-0.75,1.541
	S882.379,390.619,881.152,390.619 M881.031,385.42h-2.039v-3.6h2.42c0.76,0,1.34,0.156,1.74,0.469c0.4,0.314,0.6,0.758,0.6,1.33
	C883.752,384.82,882.846,385.42,881.031,385.42 M884.111,385.859c0.881-0.492,1.32-1.26,1.32-2.299c0-1.027-0.359-1.809-1.08-2.34
	c-0.719-0.533-1.771-0.801-3.16-0.801h-3.059c-0.453,0-0.682,0.26-0.682,0.779v10.021c0,0.52,0.229,0.779,0.682,0.779h3.66
	c1.227,0,2.133-0.174,2.719-0.52c1.121-0.654,1.68-1.594,1.68-2.82C886.191,387.287,885.5,386.354,884.111,385.859 M868.014,387.199
	l1.979-5.459l2.021,5.459H868.014z M871.094,380.84c-0.188-0.52-0.547-0.779-1.08-0.779c-0.521,0-0.881,0.26-1.08,0.779l-3.74,9.98
	c0,0.012-0.021,0.07-0.061,0.17s-0.064,0.16-0.07,0.18s-0.023,0.072-0.049,0.16c-0.027,0.086-0.041,0.143-0.041,0.17v0.141
	c0,0.066,0.014,0.117,0.041,0.148c0.025,0.033,0.053,0.078,0.08,0.131c0.025,0.053,0.064,0.098,0.119,0.131
	c0.053,0.031,0.121,0.062,0.199,0.09c0.439,0.186,0.795-0.074,1.061-0.781l1.059-2.859h4.961l1.061,2.859
	c0.119,0.32,0.256,0.561,0.41,0.721c0.152,0.16,0.371,0.18,0.648,0.061c0.201-0.08,0.328-0.188,0.381-0.32
	c0.08-0.174,0.027-0.508-0.158-1L871.094,380.84z M862.693,390.619h-5.82v-9.34v-0.139c0-0.254-0.01-0.441-0.029-0.561
	c-0.021-0.121-0.088-0.23-0.201-0.33s-0.297-0.15-0.549-0.15c-0.188,0-0.338,0.023-0.451,0.07s-0.189,0.141-0.229,0.279
	c-0.041,0.141-0.064,0.25-0.07,0.33c-0.008,0.08-0.01,0.248-0.01,0.5v9.941c0,0.52,0.225,0.779,0.68,0.779h6.68
	c0.52,0,0.779-0.227,0.779-0.68C863.473,390.854,863.213,390.619,862.693,390.619 M851.854,390.619h-5.82v-9.34v-0.139
	c0-0.254-0.01-0.441-0.029-0.561c-0.021-0.121-0.088-0.23-0.201-0.33s-0.297-0.15-0.549-0.15c-0.188,0-0.338,0.023-0.451,0.07
	s-0.189,0.141-0.23,0.279c-0.039,0.141-0.062,0.25-0.068,0.33c-0.008,0.08-0.012,0.248-0.012,0.5v9.941
	c0,0.52,0.227,0.779,0.682,0.779h6.68c0.52,0,0.779-0.227,0.779-0.68C852.633,390.854,852.373,390.619,851.854,390.619
	 M838.482,390.189c-0.553,0.488-1.242,0.73-2.068,0.73c-0.842,0-1.533-0.242-2.08-0.73c-0.549-0.486-0.924-1.066-1.131-1.74
	c-0.207-0.672-0.311-1.422-0.311-2.25c0-0.826,0.1-1.576,0.301-2.25c0.199-0.672,0.576-1.252,1.129-1.74
	c0.555-0.486,1.25-0.729,2.092-0.729c0.826,0,1.516,0.242,2.068,0.729c0.553,0.488,0.934,1.07,1.141,1.75
	c0.207,0.682,0.311,1.428,0.311,2.24c0,0.814-0.104,1.561-0.311,2.24S839.035,389.703,838.482,390.189 M836.414,380.1
	c-1.654,0-2.947,0.594-3.881,1.781c-0.934,1.186-1.4,2.627-1.4,4.318c0,1.668,0.473,3.102,1.42,4.301s2.232,1.801,3.861,1.801
	c1.639,0,2.93-0.594,3.869-1.781s1.41-2.627,1.41-4.32c0-1.691-0.471-3.133-1.41-4.318C839.344,380.693,838.053,380.1,836.414,380.1
	 M828.312,389.33c-0.146-0.008-0.266,0.018-0.359,0.07s-0.227,0.139-0.4,0.26c-1.053,0.732-2.061,1.1-3.02,1.1
	c-1.268,0-2.227-0.449-2.881-1.35c-0.652-0.9-0.979-2.01-0.979-3.33s0.318-2.434,0.959-3.34c0.641-0.908,1.594-1.359,2.859-1.359
	c0.107,0,0.215,0.006,0.32,0.02c0.107,0.012,0.201,0.027,0.281,0.039c0.08,0.014,0.176,0.043,0.289,0.09s0.201,0.08,0.26,0.102
	c0.061,0.02,0.15,0.062,0.271,0.129c0.119,0.066,0.201,0.109,0.25,0.131c0.047,0.02,0.137,0.072,0.27,0.16
	c0.133,0.086,0.213,0.139,0.24,0.158c0.025,0.021,0.109,0.08,0.25,0.182c0.139,0.1,0.223,0.156,0.25,0.17
	c0.506,0.346,0.893,0.387,1.16,0.119c0.146-0.16,0.213-0.336,0.199-0.529s-0.088-0.371-0.221-0.531
	c-0.398-0.453-0.977-0.826-1.729-1.119c-0.754-0.293-1.451-0.439-2.092-0.439c-1.68,0-3.031,0.596-4.059,1.789
	s-1.541,2.643-1.541,4.35s0.508,3.148,1.521,4.32c1.012,1.174,2.359,1.76,4.039,1.76c0.68,0,1.461-0.162,2.34-0.49
	c0.881-0.326,1.52-0.729,1.92-1.209c0.133-0.16,0.207-0.338,0.221-0.529c0.012-0.193-0.053-0.371-0.201-0.531
	C828.6,389.4,828.461,389.338,828.312,389.33"/>
<path fill="#F1F0F0" d="M126.947,387.361c0-0.428-0.167-0.641-0.5-0.641h-3.36c-0.253,0-0.427,0.043-0.52,0.129
	c-0.093,0.088-0.14,0.258-0.14,0.512c0,0.426,0.207,0.639,0.62,0.639h2.42v2.32c-0.893,0.414-1.707,0.621-2.44,0.621
	c-1.36,0-2.403-0.457-3.13-1.371c-0.727-0.912-1.09-2.07-1.09-3.471c0-1.318,0.32-2.43,0.96-3.328c0.64-0.9,1.6-1.352,2.88-1.352
	c0.333,0,0.677,0.068,1.03,0.201s0.63,0.262,0.83,0.389c0.2,0.127,0.493,0.33,0.88,0.611c0.52,0.373,0.913,0.412,1.18,0.119
	c0.307-0.32,0.3-0.672-0.02-1.061c-0.373-0.453-0.96-0.83-1.76-1.129c-0.8-0.301-1.52-0.451-2.16-0.451
	c-1.707,0-3.067,0.598-4.08,1.791c-1.013,1.193-1.52,2.656-1.52,4.391c0,1.787,0.527,3.236,1.58,4.35
	c1.053,1.113,2.473,1.67,4.26,1.67c1.587,0,2.847-0.268,3.78-0.801c0.2-0.107,0.3-0.373,0.3-0.799V387.361z M114.027,381.24v-0.219
	v-0.221c0-0.027-0.003-0.084-0.01-0.17c-0.007-0.088-0.017-0.143-0.03-0.17c-0.013-0.027-0.03-0.07-0.05-0.131
	c-0.02-0.059-0.05-0.1-0.09-0.119s-0.083-0.047-0.13-0.08s-0.103-0.053-0.17-0.061c-0.067-0.006-0.147-0.01-0.24-0.01
	c-0.093,0-0.177,0.01-0.25,0.029c-0.073,0.021-0.133,0.041-0.18,0.061c-0.047,0.02-0.087,0.057-0.12,0.109
	c-0.033,0.055-0.057,0.098-0.07,0.131c-0.013,0.033-0.023,0.098-0.03,0.189c-0.007,0.094-0.01,0.16-0.01,0.201v0.229v0.25v8.281
	l-4.92-8.881c-0.147-0.268-0.283-0.438-0.41-0.51c-0.127-0.072-0.343-0.109-0.65-0.109c-0.613,0-0.92,0.232-0.92,0.699v10.32v0.24
	v0.24c0,0.039,0.003,0.107,0.01,0.199c0.007,0.094,0.02,0.152,0.04,0.18s0.047,0.07,0.08,0.131c0.033,0.061,0.073,0.098,0.12,0.109
	c0.047,0.014,0.11,0.031,0.19,0.051c0.08,0.02,0.167,0.029,0.26,0.029c0.093,0,0.177-0.01,0.25-0.029
	c0.073-0.02,0.133-0.037,0.18-0.051c0.047-0.012,0.087-0.049,0.12-0.109c0.033-0.061,0.06-0.104,0.08-0.131s0.033-0.086,0.04-0.18
	c0.007-0.092,0.01-0.16,0.01-0.199v-0.24v-0.24v-8.801l5.2,9.34c0.133,0.24,0.267,0.41,0.4,0.512c0.133,0.1,0.327,0.148,0.58,0.148
	c0.48,0,0.72-0.199,0.72-0.6V381.24z M102.257,390.891c-0.06-0.1-0.163-0.168-0.31-0.199c-0.146-0.033-0.26-0.055-0.34-0.061
	c-0.08-0.008-0.226-0.01-0.44-0.01h-2.2v-8.801h2.2h0.36c0.054,0,0.154-0.01,0.3-0.029c0.147-0.02,0.244-0.053,0.29-0.1
	c0.047-0.049,0.097-0.117,0.15-0.211c0.054-0.094,0.08-0.213,0.08-0.359c0-0.467-0.24-0.701-0.72-0.701h-6.82
	c-0.493,0-0.74,0.234-0.74,0.701c0,0.146,0.027,0.266,0.08,0.359c0.054,0.094,0.104,0.162,0.15,0.211
	c0.047,0.047,0.144,0.08,0.29,0.1c0.147,0.02,0.247,0.029,0.3,0.029h0.36h2.2v8.801h-2.2c-0.28,0-0.476,0.002-0.59,0.01
	c-0.113,0.006-0.24,0.062-0.38,0.17c-0.14,0.107-0.21,0.273-0.21,0.5c0,0.172,0.03,0.311,0.09,0.41s0.164,0.17,0.31,0.209
	c0.147,0.041,0.264,0.064,0.35,0.07c0.087,0.008,0.23,0.01,0.43,0.01h5.92c0.267,0,0.464-0.006,0.59-0.02
	c0.127-0.014,0.257-0.072,0.39-0.18c0.134-0.107,0.2-0.273,0.2-0.5C102.347,391.127,102.317,390.99,102.257,390.891 M86.748,386.361
	h-1.82v-4.541h1.82c2.04,0,3.06,0.754,3.06,2.26C89.808,385.6,88.788,386.361,86.748,386.361 M90.238,381.34
	c-0.82-0.613-2.024-0.92-3.61-0.92h-2.56c-0.454,0-0.68,0.26-0.68,0.781v9.859v0.141c0,0.252,0.01,0.439,0.03,0.559
	c0.02,0.121,0.086,0.23,0.2,0.33c0.113,0.102,0.296,0.15,0.55,0.15c0.253,0,0.436-0.061,0.55-0.18
	c0.113-0.119,0.176-0.24,0.19-0.359c0.013-0.121,0.02-0.334,0.02-0.641v-3.42h1.7c3.226,0,4.84-1.199,4.84-3.6
	C91.468,382.854,91.058,381.953,90.238,381.34 M80.438,381.08c0.046-0.107,0.05-0.236,0.01-0.389c-0.04-0.154-0.16-0.299-0.36-0.432
	c-0.094-0.066-0.184-0.111-0.27-0.139c-0.087-0.027-0.16-0.051-0.22-0.07s-0.12-0.014-0.18,0.02c-0.06,0.033-0.107,0.057-0.14,0.07
	c-0.034,0.014-0.077,0.062-0.13,0.15c-0.054,0.086-0.087,0.139-0.1,0.16c-0.014,0.02-0.05,0.09-0.11,0.209
	c-0.06,0.121-0.097,0.193-0.11,0.221l-2.72,5.18l-2.72-5.199c-0.12-0.24-0.2-0.391-0.24-0.451c-0.04-0.061-0.114-0.139-0.22-0.24
	c-0.107-0.1-0.224-0.137-0.35-0.109c-0.127,0.027-0.284,0.094-0.47,0.199c-0.094,0.055-0.174,0.107-0.24,0.16
	c-0.067,0.053-0.107,0.117-0.12,0.191c-0.014,0.072-0.027,0.127-0.04,0.16c-0.014,0.031,0,0.1,0.04,0.199s0.066,0.162,0.08,0.189
	c0.013,0.027,0.056,0.104,0.13,0.23c0.073,0.127,0.116,0.209,0.13,0.25l3.24,5.939v3.48v0.141c0,0.252,0.01,0.439,0.03,0.559
	c0.02,0.121,0.086,0.23,0.2,0.33c0.113,0.102,0.296,0.15,0.55,0.15c0.28,0,0.473-0.061,0.58-0.18c0.106-0.119,0.16-0.453,0.16-1
	V387.6l3.28-5.939C80.288,381.381,80.391,381.188,80.438,381.08 M69.028,380.42h-8.4c-0.52,0-0.78,0.234-0.78,0.701
	s0.26,0.699,0.78,0.699h3.44v9.24v0.141c0,0.252,0.01,0.439,0.03,0.559c0.02,0.121,0.086,0.23,0.2,0.33
	c0.113,0.102,0.296,0.15,0.55,0.15c0.28,0,0.473-0.061,0.58-0.18c0.106-0.119,0.16-0.453,0.16-1v-9.24h3.44
	c0.52,0,0.78-0.232,0.78-0.699S69.548,380.42,69.028,380.42 M54.838,390.191c-0.553,0.486-1.243,0.729-2.07,0.729
	c-0.84,0-1.533-0.242-2.08-0.729c-0.547-0.488-0.923-1.068-1.13-1.74c-0.207-0.674-0.31-1.424-0.31-2.25c0-0.828,0.1-1.578,0.3-2.25
	c0.2-0.674,0.577-1.254,1.13-1.74c0.553-0.488,1.25-0.73,2.09-0.73c0.827,0,1.517,0.242,2.07,0.73c0.553,0.486,0.933,1.07,1.14,1.75
	s0.31,1.426,0.31,2.24c0,0.812-0.103,1.559-0.31,2.24C55.771,389.121,55.391,389.703,54.838,390.191 M52.768,380.1
	c-1.653,0-2.947,0.594-3.88,1.781s-1.4,2.627-1.4,4.32c0,1.666,0.473,3.1,1.42,4.299c0.947,1.201,2.233,1.801,3.86,1.801
	c1.64,0,2.93-0.594,3.87-1.779c0.94-1.188,1.41-2.629,1.41-4.32c0-1.693-0.47-3.133-1.41-4.32S54.408,380.1,52.768,380.1
	 M44.908,380.42h-8.4c-0.52,0-0.78,0.234-0.78,0.701s0.26,0.699,0.78,0.699h3.44v9.24v0.141c0,0.252,0.01,0.439,0.03,0.559
	c0.02,0.121,0.087,0.23,0.2,0.33c0.113,0.102,0.297,0.15,0.55,0.15c0.28,0,0.473-0.061,0.58-0.18s0.16-0.453,0.16-1v-9.24h3.44
	c0.52,0,0.78-0.232,0.78-0.699S45.428,380.42,44.908,380.42 M30.719,390.191c-0.554,0.486-1.244,0.729-2.07,0.729
	c-0.84,0-1.534-0.242-2.08-0.729c-0.547-0.488-0.924-1.068-1.13-1.74c-0.207-0.674-0.31-1.424-0.31-2.25c0-0.828,0.1-1.578,0.3-2.25
	c0.2-0.674,0.576-1.254,1.13-1.74c0.553-0.488,1.25-0.73,2.09-0.73c0.826,0,1.516,0.242,2.07,0.73c0.553,0.486,0.933,1.07,1.14,1.75
	c0.206,0.68,0.31,1.426,0.31,2.24c0,0.812-0.104,1.559-0.31,2.24C31.652,389.121,31.271,389.703,30.719,390.191 M28.649,380.1
	c-1.654,0-2.947,0.594-3.88,1.781c-0.934,1.188-1.4,2.627-1.4,4.32c0,1.666,0.473,3.1,1.42,4.299
	c0.946,1.201,2.233,1.801,3.86,1.801c1.64,0,2.93-0.594,3.87-1.779c0.94-1.188,1.41-2.629,1.41-4.32c0-1.693-0.47-3.133-1.41-4.32
	S30.289,380.1,28.649,380.1 M16.329,385.68h-2.02v-3.939h2.08c1.786,0,2.68,0.66,2.68,1.98
	C19.069,385.027,18.155,385.68,16.329,385.68 M18.989,387.621c-0.2-0.32-0.48-0.594-0.84-0.82c0.773-0.188,1.4-0.547,1.88-1.08
	s0.72-1.188,0.72-1.961c0-1.199-0.467-2.105-1.4-2.719c-0.64-0.414-1.754-0.621-3.34-0.621h-2.54c-0.454,0-0.68,0.26-0.68,0.781
	v9.859v0.141c0,0.252,0.01,0.439,0.03,0.559c0.02,0.121,0.086,0.23,0.2,0.33c0.113,0.102,0.296,0.15,0.55,0.15
	c0.28,0,0.473-0.061,0.58-0.18c0.106-0.119,0.16-0.453,0.16-1v-4.08h1.3c0.32,0,0.603,0.07,0.85,0.211
	c0.246,0.139,0.436,0.289,0.57,0.449c0.133,0.16,0.306,0.4,0.52,0.721l2.08,3.139c0.146,0.227,0.243,0.371,0.29,0.43
	c0.046,0.061,0.126,0.139,0.24,0.23c0.113,0.094,0.23,0.127,0.35,0.1c0.12-0.025,0.266-0.092,0.44-0.199
	c0.213-0.133,0.34-0.283,0.38-0.449c0.04-0.168,0.03-0.309-0.03-0.42c-0.06-0.113-0.17-0.299-0.33-0.551L18.989,387.621z
	 M5.269,386.361h-1.82v-4.541h1.82c2.04,0,3.06,0.754,3.06,2.26C8.329,385.6,7.309,386.361,5.269,386.361 M8.759,381.34
	c-0.82-0.613-2.023-0.92-3.61-0.92h-2.56c-0.453,0-0.68,0.26-0.68,0.781v9.859v0.141c0,0.252,0.01,0.439,0.03,0.559
	c0.02,0.121,0.087,0.23,0.2,0.33c0.113,0.102,0.297,0.15,0.55,0.15c0.253,0,0.437-0.061,0.55-0.18
	c0.113-0.119,0.177-0.24,0.19-0.359c0.013-0.121,0.02-0.334,0.02-0.641v-3.42h1.7c3.227,0,4.84-1.199,4.84-3.6
	C9.989,382.854,9.579,381.953,8.759,381.34"/>
</svg>
