<?xml version="1.0" encoding="utf-8"?>
<!-- Generator: Adobe Illustrator 16.0.0, SVG Export Plug-In . SVG Version: 6.00 Build 0)  -->
<!DOCTYPE svg PUBLIC "-//W3C//DTD SVG 1.1//EN" "http://www.w3.org/Graphics/SVG/1.1/DTD/svg11.dtd">
<svg version="1.1" id="Layer_1" xmlns="http://www.w3.org/2000/svg" xmlns:xlink="http://www.w3.org/1999/xlink" x="0px" y="0px"
	 width="167.334px" height="155px" viewBox="-12.5 0 167.334 155" enable-background="new -12.5 0 167.334 155"
	 xml:space="preserve">
<g>
	<polyline fill="none" stroke="#F0F0F0" points="137.472,121.006 71.959,37.514 6.448,121.006 	"/>
	<line fill="none" stroke="#F0F0F0" x1="6.056" y1="120.723" x2="137.863" y2="120.723"/>
	<g>
		<defs>
			<rect id="SVGID_1_" x="-20.727" y="14.951" width="191.787" height="125.098"/>
		</defs>
		<clipPath id="SVGID_2_">
			<use xlink:href="#SVGID_1_"  overflow="visible"/>
		</clipPath>
		<path clip-path="url(#SVGID_2_)" fill="#141414" d="M10.746,138.094c11.449,0,20.731-9.281,20.731-20.73
			s-9.282-20.732-20.731-20.732c-11.449,0-20.73,9.283-20.73,20.732S-0.703,138.094,10.746,138.094"/>
		<circle clip-path="url(#SVGID_2_)" fill="none" stroke="#F0F0F0" stroke-width="3.911" cx="10.746" cy="117.362" r="20.731"/>
		<path clip-path="url(#SVGID_2_)" fill="#141414" d="M132.448,136.188c11.449,0,20.73-9.281,20.73-20.732
			c0-11.449-9.281-20.73-20.73-20.73s-20.731,9.281-20.731,20.73C111.717,126.906,120.999,136.188,132.448,136.188"/>
		<circle clip-path="url(#SVGID_2_)" fill="none" stroke="#F0F0F0" stroke-width="3.911" cx="132.448" cy="115.456" r="20.731"/>
		<path clip-path="url(#SVGID_2_)" fill="#141414" d="M71.232,59.844c11.449,0,20.731-9.28,20.731-20.73
			c0-11.449-9.282-20.731-20.731-20.731c-11.448,0-20.73,9.282-20.73,20.731C50.502,50.563,59.784,59.844,71.232,59.844"/>
		<circle clip-path="url(#SVGID_2_)" fill="none" stroke="#F0F0F0" stroke-width="3.911" cx="71.232" cy="39.113" r="20.731"/>
	</g>
	<g>
		<path fill="#F0F0F0" d="M71.092,35.881l-2.129,1.875l-1.275-1.471l3.465-2.925h2.1v10.62h-2.16V35.881z"/>
	</g>
	<g>
		<path fill="#F0F0F0" d="M129.593,117.51l4.125-3.705c0.21-0.191,0.42-0.406,0.63-0.646c0.21-0.238,0.314-0.52,0.314-0.84
			c0-0.359-0.13-0.643-0.39-0.848c-0.26-0.203-0.565-0.307-0.915-0.307c-0.42,0-0.748,0.131-0.982,0.391
			c-0.235,0.26-0.367,0.58-0.397,0.959l-2.25-0.164c0.03-0.551,0.145-1.027,0.345-1.434c0.2-0.404,0.465-0.742,0.795-1.012
			s0.718-0.473,1.163-0.607c0.444-0.135,0.927-0.203,1.447-0.203c0.479,0,0.93,0.068,1.35,0.203s0.785,0.334,1.096,0.6
			c0.31,0.266,0.552,0.598,0.728,0.998c0.175,0.4,0.262,0.865,0.262,1.395c0,0.34-0.035,0.648-0.104,0.922
			c-0.07,0.275-0.168,0.525-0.293,0.75c-0.125,0.227-0.272,0.434-0.442,0.623s-0.354,0.375-0.555,0.555l-3.226,2.775h4.71v1.98
			h-7.409V117.51z"/>
	</g>
	<g>
		<path fill="#F0F0F0" d="M9.623,116.52h0.734c0.211,0,0.415-0.016,0.615-0.045s0.383-0.088,0.548-0.172
			c0.165-0.086,0.298-0.205,0.397-0.361c0.1-0.154,0.15-0.357,0.15-0.607c0-0.318-0.128-0.584-0.383-0.795
			c-0.256-0.209-0.568-0.314-0.938-0.314c-0.351,0-0.641,0.096-0.87,0.285c-0.23,0.189-0.38,0.426-0.45,0.705l-2.475-0.51
			c0.119-0.461,0.3-0.854,0.539-1.178c0.24-0.324,0.525-0.588,0.855-0.787c0.33-0.201,0.697-0.348,1.103-0.443
			c0.405-0.094,0.833-0.143,1.282-0.143c0.471,0,0.923,0.059,1.357,0.172c0.436,0.115,0.818,0.297,1.148,0.541
			s0.592,0.553,0.787,0.922c0.195,0.371,0.293,0.811,0.293,1.32c0,0.59-0.156,1.096-0.465,1.516
			c-0.311,0.42-0.761,0.689-1.351,0.811v0.045c0.319,0.039,0.603,0.135,0.847,0.283c0.246,0.15,0.453,0.336,0.623,0.557
			c0.17,0.219,0.301,0.469,0.391,0.75c0.09,0.279,0.135,0.574,0.135,0.885c0,0.529-0.104,0.994-0.308,1.395
			c-0.205,0.4-0.479,0.732-0.825,0.998c-0.345,0.264-0.75,0.463-1.215,0.592c-0.465,0.131-0.957,0.195-1.478,0.195
			c-0.95,0-1.768-0.221-2.452-0.66c-0.686-0.439-1.139-1.135-1.357-2.086l2.369-0.555c0.08,0.381,0.242,0.682,0.488,0.9
			c0.244,0.221,0.607,0.33,1.087,0.33c0.49,0,0.853-0.127,1.088-0.383c0.235-0.254,0.353-0.582,0.353-0.982
			c0-0.299-0.062-0.531-0.188-0.697c-0.125-0.164-0.287-0.287-0.488-0.367c-0.199-0.08-0.425-0.127-0.674-0.143
			c-0.25-0.016-0.501-0.023-0.75-0.023H9.623V116.52z"/>
	</g>
</g>
</svg>
