<?xml version="1.0" encoding="utf-8"?>
<!-- Generator: Adobe Illustrator 16.0.0, SVG Export Plug-In . SVG Version: 6.00 Build 0)  -->
<!DOCTYPE svg PUBLIC "-//W3C//DTD SVG 1.1//EN" "http://www.w3.org/Graphics/SVG/1.1/DTD/svg11.dtd">
<svg version="1.1" id="Layer_1" xmlns="http://www.w3.org/2000/svg" xmlns:xlink="http://www.w3.org/1999/xlink" x="0px" y="0px"
	 width="150px" height="300px" viewBox="0 0 150 300" enable-background="new 0 0 150 300" xml:space="preserve">
<path fill="none" stroke="#EFF0F0" stroke-width="1.9" stroke-miterlimit="10" d="M8.221,20.335l50.618,67.004 M58.269,19.863
	v68.502 M8.221,19.863v68.502"/>
<path fill="#F1F0F0" d="M8.013,48.994c2.061,0,3.731,1.671,3.731,3.732c0,2.06-1.67,3.731-3.731,3.731s-3.732-1.671-3.732-3.731
	C4.281,50.665,5.952,48.994,8.013,48.994"/>
<path fill="#F1F0F0" d="M8.013,17.2c2.061,0,3.731,1.671,3.731,3.732s-1.67,3.731-3.731,3.731s-3.732-1.67-3.732-3.731
	S5.952,17.2,8.013,17.2"/>
<path fill="#F1F0F0" d="M8.013,32.329c2.061,0,3.731,1.67,3.731,3.732c0,2.06-1.67,3.731-3.731,3.731s-3.732-1.671-3.732-3.731
	C4.281,33.999,5.952,32.329,8.013,32.329"/>
<path fill="#F1F0F0" d="M8.013,65.084c2.061,0,3.731,1.67,3.731,3.731c0,2.06-1.67,3.731-3.731,3.731s-3.731-1.671-3.731-3.731
	C4.282,66.754,5.952,65.084,8.013,65.084"/>
<path fill="#F1F0F0" d="M8.013,82.381c2.061,0,3.731,1.671,3.731,3.731c0,2.061-1.67,3.732-3.731,3.732s-3.731-1.671-3.731-3.732
	C4.282,84.052,5.952,82.381,8.013,82.381"/>
<path fill="#F1F0F0" d="M58.269,48.994c2.061,0,3.731,1.671,3.731,3.732c0,2.06-1.67,3.731-3.731,3.731s-3.732-1.671-3.732-3.731
	C54.537,50.665,56.208,48.994,58.269,48.994"/>
<path fill="#F1F0F0" d="M58.269,17.798c2.061,0,3.731,1.671,3.731,3.732s-1.67,3.731-3.731,3.731s-3.732-1.67-3.732-3.731
	S56.208,17.798,58.269,17.798"/>
<path fill="#F1F0F0" d="M58.269,32.329C60.33,32.329,62,34,62,36.061s-1.67,3.731-3.731,3.731s-3.732-1.67-3.732-3.731
	S56.208,32.329,58.269,32.329"/>
<path fill="#F1F0F0" d="M58.269,65.084c2.061,0,3.731,1.67,3.731,3.731c0,2.06-1.67,3.731-3.731,3.731s-3.731-1.671-3.731-3.731
	C54.538,66.754,56.208,65.084,58.269,65.084"/>
<path fill="#F1F0F0" d="M58.269,82.979C60.33,82.979,62,84.65,62,86.71c0,2.061-1.67,3.732-3.731,3.732s-3.731-1.671-3.731-3.732
	C54.538,84.65,56.208,82.979,58.269,82.979"/>
<path fill="#F1F0F0" d="M19.794,32.329c2.061,0,3.731,1.67,3.731,3.732c0,2.06-1.67,3.731-3.731,3.731
	c-2.061,0-3.732-1.671-3.732-3.731C16.062,33.999,17.733,32.329,19.794,32.329"/>
<path fill="#F1F0F0" d="M31.52,48.994c2.061,0,3.731,1.67,3.731,3.732c0,2.06-1.67,3.732-3.731,3.732
	c-2.061,0-3.732-1.672-3.732-3.732C27.788,50.664,29.459,48.994,31.52,48.994"/>
<path fill="#F1F0F0" d="M45.88,65.083c2.061,0,3.731,1.671,3.731,3.732s-1.67,3.732-3.731,3.732s-3.732-1.671-3.732-3.732
	S43.819,65.083,45.88,65.083"/>
<ellipse fill="none" stroke="#EFF0F0" stroke-width="1.9" stroke-miterlimit="10" cx="115.616" cy="53.341" rx="24.616" ry="35.191"/>
<path fill="#F1F0F0" d="M125.769,17.359c2.061,0,3.731,1.671,3.731,3.732s-1.671,3.732-3.731,3.732
	c-2.062,0-3.731-1.671-3.731-3.732S123.707,17.359,125.769,17.359"/>
<path fill="#F1F0F0" d="M104.255,17.834c1.921,0,3.479,1.671,3.479,3.732s-1.559,3.732-3.479,3.732s-3.479-1.671-3.479-3.732
	S102.334,17.834,104.255,17.834"/>
<path fill="#F1F0F0" d="M94.64,31.555c2.062,0,3.731,1.671,3.731,3.732c0,2.061-1.67,3.732-3.731,3.732
	c-2.061,0-3.731-1.671-3.731-3.732C90.908,33.227,92.579,31.555,94.64,31.555"/>
<path fill="#F1F0F0" d="M137.469,31.555c2.061,0,3.731,1.671,3.731,3.732s-1.671,3.732-3.731,3.732
	c-2.062,0-3.732-1.671-3.732-3.732S135.407,31.555,137.469,31.555"/>
<path fill="#F1F0F0" d="M90.932,48.221c2.062,0,3.732,1.671,3.732,3.732s-1.671,3.732-3.732,3.732c-2.061,0-3.731-1.671-3.731-3.732
	S88.871,48.221,90.932,48.221"/>
<path fill="#F1F0F0" d="M140.216,48.221c2.062,0,3.732,1.671,3.732,3.732s-1.671,3.732-3.732,3.732
	c-2.061,0-3.731-1.671-3.731-3.732S138.155,48.221,140.216,48.221"/>
<path fill="#F1F0F0" d="M93.689,64.311c2.061,0,3.731,1.671,3.731,3.732s-1.671,3.732-3.731,3.732c-2.062,0-3.731-1.671-3.731-3.732
	S91.628,64.311,93.689,64.311"/>
<path fill="#F1F0F0" d="M137.943,64.785c2.061,0,3.731,1.671,3.731,3.732c0,2.062-1.671,3.733-3.731,3.733
	c-2.062,0-3.732-1.671-3.732-3.733C134.211,66.457,135.882,64.785,137.943,64.785"/>
<path fill="#F1F0F0" d="M105.205,82.128c1.921,0,3.479,1.671,3.479,3.732c0,2.062-1.558,3.733-3.479,3.733s-3.479-1.671-3.479-3.733
	C101.726,83.799,103.284,82.128,105.205,82.128"/>
<path fill="#F1F0F0" d="M125.77,82.604c2.061,0,3.73,1.671,3.73,3.732c0,2.062-1.67,3.733-3.73,3.733
	c-2.062,0-3.732-1.671-3.732-3.733C122.037,84.274,123.708,82.604,125.77,82.604"/>
<path fill="none" stroke="#EFF0F0" stroke-width="1.9" d="M52.268,119.906H15.077v66.136 M15.213,151.378h35.473"/>
<path fill="#F1F0F0" d="M15.016,130.301c2.061,0,3.732,1.671,3.732,3.732s-1.671,3.731-3.732,3.731s-3.732-1.67-3.732-3.731
	S12.955,130.301,15.016,130.301"/>
<path fill="#F1F0F0" d="M15.164,146.966c2.061,0,3.732,1.671,3.732,3.731c0,2.062-1.671,3.732-3.732,3.732s-3.732-1.671-3.732-3.732
	C11.432,148.637,13.103,146.966,15.164,146.966"/>
<path fill="#F1F0F0" d="M14.468,163.056c2.061,0,3.732,1.67,3.732,3.732c0,2.06-1.671,3.73-3.732,3.73s-3.732-1.671-3.732-3.73
	C10.736,164.726,12.407,163.056,14.468,163.056"/>
<path fill="#F1F0F0" d="M15.016,182.11c2.061,0,3.732,1.671,3.732,3.732s-1.671,3.732-3.732,3.732s-3.732-1.671-3.732-3.732
	S12.955,182.11,15.016,182.11"/>
<path fill="#F1F0F0" d="M52.269,146.966c2.061,0,3.732,1.671,3.732,3.731c0,2.062-1.671,3.732-3.732,3.732s-3.732-1.671-3.732-3.732
	C48.537,148.637,50.208,146.966,52.269,146.966"/>
<path fill="#F1F0F0" d="M33.673,146.966c2.061,0,3.732,1.671,3.732,3.731c0,2.062-1.671,3.732-3.732,3.732s-3.732-1.671-3.732-3.732
	C29.941,148.637,31.612,146.966,33.673,146.966"/>
<path fill="#F1F0F0" d="M15.508,116.331c2.061,0,3.732,1.671,3.732,3.732c0,2.061-1.671,3.732-3.732,3.732s-3.732-1.671-3.732-3.732
	C11.776,118.002,13.447,116.331,15.508,116.331"/>
<path fill="#F1F0F0" d="M50.686,115.8c2.061,0,3.732,1.671,3.732,3.732c0,2.061-1.671,3.732-3.732,3.732s-3.732-1.671-3.732-3.732
	C46.954,117.471,48.625,115.8,50.686,115.8"/>
<path fill="#F1F0F0" d="M33.672,116.175c2.061,0,3.732,1.67,3.732,3.731s-1.671,3.732-3.732,3.732s-3.731-1.671-3.731-3.732
	S31.611,116.175,33.672,116.175"/>
<ellipse fill="none" stroke="#EFF0F0" stroke-width="1.9" stroke-miterlimit="10" cx="115.616" cy="151.941" rx="24.616" ry="35.19"/>
<path fill="#F1F0F0" d="M125.769,115.959c2.061,0,3.731,1.671,3.731,3.732s-1.671,3.732-3.731,3.732
	c-2.062,0-3.731-1.671-3.731-3.732S123.707,115.959,125.769,115.959"/>
<path fill="#F1F0F0" d="M104.255,116.434c1.921,0,3.479,1.671,3.479,3.732s-1.559,3.732-3.479,3.732s-3.479-1.671-3.479-3.732
	S102.334,116.434,104.255,116.434"/>
<path fill="#F1F0F0" d="M94.64,130.155c2.062,0,3.731,1.671,3.731,3.732s-1.67,3.732-3.731,3.732c-2.061,0-3.731-1.671-3.731-3.732
	S92.579,130.155,94.64,130.155"/>
<path fill="#F1F0F0" d="M137.469,130.155c2.061,0,3.731,1.671,3.731,3.732s-1.671,3.732-3.731,3.732
	c-2.062,0-3.732-1.671-3.732-3.732S135.407,130.155,137.469,130.155"/>
<path fill="#F1F0F0" d="M90.932,146.82c2.062,0,3.732,1.671,3.732,3.732c0,2.061-1.671,3.731-3.732,3.731
	c-2.061,0-3.731-1.671-3.731-3.731C87.2,148.491,88.871,146.82,90.932,146.82"/>
<path fill="#F1F0F0" d="M140.216,146.82c2.062,0,3.732,1.671,3.732,3.732c0,2.061-1.671,3.731-3.732,3.731
	c-2.061,0-3.731-1.671-3.731-3.731C136.484,148.491,138.155,146.82,140.216,146.82"/>
<path fill="#F1F0F0" d="M93.689,162.91c2.061,0,3.731,1.671,3.731,3.732c0,2.061-1.671,3.731-3.731,3.731
	c-2.062,0-3.731-1.671-3.731-3.731C89.958,164.581,91.628,162.91,93.689,162.91"/>
<path fill="#F1F0F0" d="M137.943,163.386c2.061,0,3.731,1.671,3.731,3.731c0,2.062-1.671,3.733-3.731,3.733
	c-2.062,0-3.732-1.671-3.732-3.733C134.211,165.057,135.882,163.386,137.943,163.386"/>
<path fill="#F1F0F0" d="M105.205,180.729c1.921,0,3.479,1.671,3.479,3.731c0,2.062-1.558,3.733-3.479,3.733
	s-3.479-1.671-3.479-3.733C101.726,182.399,103.284,180.729,105.205,180.729"/>
<path fill="#F1F0F0" d="M125.77,181.203c2.061,0,3.73,1.671,3.73,3.732s-1.67,3.732-3.73,3.732c-2.062,0-3.732-1.671-3.732-3.732
	S123.708,181.203,125.77,181.203"/>
<path fill="none" stroke="#EFF0F0" stroke-width="1.9" d="M32.006,247.037l25.127,36.466 M8.627,247.45h29.148l-0.109-0.049
	c2.541,0,4.961-0.432,7.165-1.213c2.202-0.781,4.185-1.911,5.849-3.307c1.666-1.397,3.013-3.061,3.947-4.906
	c0.931-1.848,1.446-3.877,1.446-6.007c0-2.133-0.515-4.163-1.446-6.01c-0.934-1.846-2.281-3.508-3.947-4.904
	c-1.665-1.397-3.648-2.527-5.85-3.309c-2.203-0.78-4.623-1.213-7.165-1.213H8.518v66.97"/>
<path fill="#F1F0F0" d="M27.461,244.423c2.061,0,3.732,1.671,3.732,3.732c0,2.061-1.671,3.731-3.732,3.731
	c-2.061,0-3.732-1.671-3.732-3.731C23.729,246.094,25.4,244.423,27.461,244.423"/>
<path fill="#F1F0F0" d="M8.332,244.424c2.06,0,3.731,1.671,3.731,3.731s-1.671,3.731-3.731,3.731c-2.061,0-3.731-1.671-3.731-3.731
	S6.271,244.424,8.332,244.424"/>
<path fill="#F1F0F0" d="M46.697,242.049c2.061,0,3.731,1.671,3.731,3.731s-1.67,3.731-3.731,3.731s-3.731-1.671-3.731-3.731
	S44.636,242.049,46.697,242.049"/>
<path fill="#F1F0F0" d="M8.332,213.257c2.06,0,3.731,1.672,3.731,3.732c0,2.062-1.671,3.731-3.731,3.731
	c-2.061,0-3.731-1.67-3.731-3.731C4.601,214.929,6.271,213.257,8.332,213.257"/>
<path fill="#F1F0F0" d="M27.461,213.258c2.06,0,3.731,1.672,3.731,3.731c0,2.062-1.671,3.731-3.731,3.731
	c-2.061,0-3.73-1.67-3.73-3.731C23.731,214.93,25.4,213.258,27.461,213.258"/>
<path fill="#F1F0F0" d="M45.939,214.207c2.061,0,3.732,1.671,3.732,3.731c0,2.062-1.671,3.732-3.732,3.732s-3.732-1.671-3.732-3.732
	C42.207,215.878,43.878,214.207,45.939,214.207"/>
<path fill="#F1F0F0" d="M8.332,227.758c2.06,0,3.731,1.672,3.731,3.732c0,2.062-1.671,3.731-3.731,3.731
	c-2.061,0-3.731-1.67-3.731-3.731C4.601,229.43,6.271,227.758,8.332,227.758"/>
<path fill="#F1F0F0" d="M56.072,227.758c2.06,0,3.731,1.672,3.731,3.732s-1.671,3.731-3.731,3.731c-2.061,0-3.732-1.671-3.732-3.731
	S54.011,227.758,56.072,227.758"/>
<path fill="#F1F0F0" d="M8.332,260.514c2.06,0,3.731,1.67,3.731,3.731c0,2.06-1.671,3.73-3.731,3.73
	c-2.061,0-3.731-1.671-3.731-3.73C4.601,262.184,6.271,260.514,8.332,260.514"/>
<path fill="#F1F0F0" d="M8.332,278.438c2.06,0,3.731,1.671,3.731,3.731s-1.671,3.731-3.731,3.731c-2.061,0-3.731-1.671-3.731-3.731
	S6.271,278.438,8.332,278.438"/>
<path fill="#F1F0F0" d="M44.286,260.514c2.06,0,3.731,1.671,3.731,3.73c0,2.062-1.671,3.732-3.731,3.732
	c-2.061,0-3.731-1.671-3.731-3.732C40.555,262.185,42.225,260.514,44.286,260.514"/>
<path fill="#F1F0F0" d="M55.948,278.438c2.061,0,3.732,1.671,3.732,3.732c0,2.061-1.671,3.731-3.732,3.731
	c-2.06,0-3.731-1.671-3.731-3.731C52.217,280.108,53.888,278.438,55.948,278.438"/>
<path fill="none" stroke="#EFF0F0" stroke-width="1.9" stroke-miterlimit="10" d="M141.683,215.839l-25.27,31.563 M90.472,216.094
	l25.269,31.563 M140.52,215.449v68.502 M90.472,215.449v68.502"/>
<path fill="#F1F0F0" d="M90.264,244.01c2.061,0,3.731,1.671,3.731,3.731s-1.671,3.731-3.731,3.731c-2.06,0-3.731-1.671-3.731-3.731
	S88.204,244.01,90.264,244.01"/>
<path fill="#F1F0F0" d="M90.264,212.958c2.061,0,3.731,1.671,3.731,3.732c0,2.061-1.671,3.73-3.731,3.73
	c-2.06,0-3.731-1.67-3.731-3.73C86.532,214.629,88.204,212.958,90.264,212.958"/>
<path fill="#F1F0F0" d="M90.264,227.914c2.061,0,3.731,1.67,3.731,3.732c0,2.06-1.671,3.73-3.731,3.73
	c-2.06,0-3.731-1.671-3.731-3.73C86.532,229.584,88.204,227.914,90.264,227.914"/>
<path fill="#F1F0F0" d="M90.264,260.67c2.061,0,3.731,1.67,3.731,3.731c0,2.06-1.671,3.73-3.731,3.73
	c-2.06,0-3.731-1.671-3.731-3.73C86.532,262.34,88.204,260.67,90.264,260.67"/>
<path fill="#F1F0F0" d="M90.264,278.14c2.061,0,3.731,1.671,3.731,3.73c0,2.062-1.671,3.732-3.731,3.732
	c-2.06,0-3.731-1.671-3.731-3.732C86.532,279.811,88.204,278.14,90.264,278.14"/>
<path fill="#F1F0F0" d="M140.519,244.607c2.062,0,3.731,1.671,3.731,3.732c0,2.06-1.67,3.73-3.731,3.73
	c-2.06,0-3.73-1.671-3.73-3.73C136.788,246.278,138.459,244.607,140.519,244.607"/>
<path fill="#F1F0F0" d="M140.519,213.557c2.062,0,3.731,1.671,3.731,3.731c0,2.062-1.67,3.731-3.731,3.731
	c-2.06,0-3.73-1.67-3.73-3.731C136.788,215.228,138.459,213.557,140.519,213.557"/>
<path fill="#F1F0F0" d="M140.519,227.914c2.062,0,3.731,1.671,3.731,3.732c0,2.061-1.67,3.73-3.731,3.73
	c-2.06,0-3.73-1.67-3.73-3.73C136.788,229.585,138.459,227.914,140.519,227.914"/>
<path fill="#F1F0F0" d="M140.519,260.67c2.062,0,3.731,1.67,3.731,3.731c0,2.06-1.67,3.73-3.731,3.73c-2.06,0-3.73-1.671-3.73-3.73
	C136.788,262.34,138.459,260.67,140.519,260.67"/>
<path fill="#F1F0F0" d="M140.519,278.737c2.062,0,3.731,1.671,3.731,3.731s-1.67,3.731-3.731,3.731c-2.06,0-3.73-1.671-3.73-3.731
	S138.459,278.737,140.519,278.737"/>
<path fill="#F1F0F0" d="M102.451,227.914c2.062,0,3.731,1.67,3.731,3.732c0,2.06-1.67,3.73-3.731,3.73
	c-2.061,0-3.731-1.671-3.731-3.73C98.72,229.584,100.391,227.914,102.451,227.914"/>
<path fill="#F1F0F0" d="M116.077,244.58c2.06,0,3.73,1.67,3.73,3.731s-1.671,3.732-3.73,3.732c-2.061,0-3.731-1.671-3.731-3.732
	S114.017,244.58,116.077,244.58"/>
<path fill="#F1F0F0" d="M132.485,231.646c0,2.061-1.672,3.73-3.732,3.73c-2.062,0-3.732-1.67-3.732-3.73
	c0-2.062,1.671-3.732,3.732-3.732C130.813,227.914,132.485,229.585,132.485,231.646"/>
</svg>
