<?xml version="1.0" encoding="utf-8"?>
<!-- Generator: Adobe Illustrator 16.0.0, SVG Export Plug-In . SVG Version: 6.00 Build 0)  -->
<!DOCTYPE svg PUBLIC "-//W3C//DTD SVG 1.1//EN" "http://www.w3.org/Graphics/SVG/1.1/DTD/svg11.dtd">
<svg version="1.1" id="Layer_1" xmlns="http://www.w3.org/2000/svg" xmlns:xlink="http://www.w3.org/1999/xlink" x="0px" y="0px"
	 width="150px" height="300px" viewBox="0 0 150 300" enable-background="new 0 0 150 300" xml:space="preserve">
<path fill="#F1F0F0" d="M8.487,51.172c2.893,0,5.238,2.345,5.238,5.238c0,2.892-2.345,5.237-5.238,5.237S3.25,59.302,3.25,56.41
	C3.25,53.517,5.594,51.172,8.487,51.172"/>
<circle fill="none" stroke="#161616" stroke-width="4.5" stroke-miterlimit="10" cx="8.487" cy="56.409" r="5.237"/>
<path fill="#F1F0F0" d="M8.487,12.03c2.893,0,5.238,2.345,5.238,5.237c0,2.893-2.345,5.238-5.238,5.238S3.25,20.16,3.25,17.268
	C3.25,14.375,5.594,12.03,8.487,12.03"/>
<circle fill="none" stroke="#161616" stroke-width="4.5" stroke-miterlimit="10" cx="8.487" cy="17.268" r="5.238"/>
<path fill="#F1F0F0" d="M8.487,25.692c2.893,0,5.238,2.345,5.238,5.238c0,2.892-2.345,5.237-5.238,5.237S3.25,33.822,3.25,30.93
	C3.25,28.037,5.594,25.692,8.487,25.692"/>
<circle fill="none" stroke="#161616" stroke-width="4.5" stroke-miterlimit="10" cx="8.487" cy="30.93" r="5.237"/>
<path fill="#F1F0F0" d="M8.487,65.106c2.893,0,5.238,2.345,5.238,5.237c0,2.893-2.345,5.238-5.238,5.238S3.25,73.236,3.25,70.343
	C3.25,67.451,5.594,65.106,8.487,65.106"/>
<circle fill="none" stroke="#161616" stroke-width="4.5" stroke-miterlimit="10" cx="8.487" cy="70.344" r="5.238"/>
<path fill="#F1F0F0" d="M8.487,78.603c2.893,0,5.238,2.345,5.238,5.238c0,2.892-2.345,5.237-5.238,5.237S3.25,86.733,3.25,83.841
	C3.25,80.948,5.594,78.603,8.487,78.603"/>
<circle fill="none" stroke="#161616" stroke-width="4.5" stroke-miterlimit="10" cx="8.487" cy="83.841" r="5.238"/>
<path fill="#F1F0F0" d="M33.724,46.333c2.892,0,5.237,2.345,5.237,5.237s-2.345,5.237-5.237,5.237s-5.237-2.345-5.237-5.237
	S30.832,46.333,33.724,46.333"/>
<circle fill="none" stroke="#161616" stroke-width="4.5" stroke-miterlimit="10" cx="33.724" cy="51.57" r="5.237"/>
<path fill="#F1F0F0" d="M17.674,22.47c2.893,0,5.238,2.345,5.238,5.238c0,2.892-2.345,5.237-5.238,5.237
	c-2.893,0-5.238-2.345-5.238-5.237C12.436,24.815,14.781,22.47,17.674,22.47"/>
<circle fill="none" stroke="#161616" stroke-width="4.5" stroke-miterlimit="10" cx="17.674" cy="27.708" r="5.238"/>
<path fill="#F1F0F0" d="M49.187,69.921c2.893,0,5.238,2.345,5.238,5.238c0,2.892-2.345,5.238-5.238,5.238s-5.237-2.346-5.237-5.238
	C43.949,72.267,46.293,69.921,49.187,69.921"/>
<circle fill="none" stroke="#161616" stroke-width="4.5" stroke-miterlimit="10" cx="49.187" cy="75.159" r="5.238"/>
<path fill="#F1F0F0" d="M59.168,78.603c2.893,0,5.238,2.346,5.238,5.238c0,2.893-2.345,5.239-5.238,5.239s-5.238-2.346-5.238-5.239
	C53.93,80.949,56.275,78.603,59.168,78.603"/>
<circle fill="none" stroke="#161616" stroke-width="4.5" stroke-miterlimit="10" cx="59.168" cy="83.842" r="5.239"/>
<path fill="#F1F0F0" d="M59.168,51.172c2.893,0,5.238,2.344,5.238,5.238c0,2.893-2.345,5.237-5.238,5.237s-5.238-2.344-5.238-5.237
	C53.93,53.516,56.275,51.172,59.168,51.172"/>
<circle fill="none" stroke="#161616" stroke-width="4.5" stroke-miterlimit="10" cx="59.168" cy="56.409" r="5.237"/>
<path fill="#F1F0F0" d="M59.168,38.765c2.893,0,5.238,2.345,5.238,5.238s-2.345,5.238-5.238,5.238s-5.238-2.345-5.238-5.238
	S56.275,38.765,59.168,38.765"/>
<circle fill="none" stroke="#161616" stroke-width="4.5" stroke-miterlimit="10" cx="59.168" cy="44.003" r="5.238"/>
<path fill="#F1F0F0" d="M59.168,25.692c2.893,0,5.238,2.345,5.238,5.238s-2.345,5.238-5.238,5.238s-5.238-2.345-5.238-5.238
	S56.275,25.692,59.168,25.692"/>
<circle fill="none" stroke="#161616" stroke-width="4.5" stroke-miterlimit="10" cx="59.168" cy="30.93" r="5.238"/>
<path fill="#F1F0F0" d="M59.168,12.03c2.893,0,5.238,2.345,5.238,5.238s-2.345,5.238-5.238,5.238s-5.238-2.345-5.238-5.238
	S56.275,12.03,59.168,12.03"/>
<circle fill="none" stroke="#161616" stroke-width="4.5" stroke-miterlimit="10" cx="59.168" cy="17.268" r="5.238"/>
<path fill="#F1F0F0" d="M8.487,38.765c2.893,0,5.238,2.345,5.238,5.238c0,2.892-2.345,5.237-5.238,5.237S3.25,46.895,3.25,44.003
	C3.25,41.11,5.594,38.765,8.487,38.765"/>
<circle fill="none" stroke="#161616" stroke-width="4.5" stroke-miterlimit="10" cx="8.487" cy="44.002" r="5.238"/>
<path fill="#F1F0F0" d="M25.514,34.417c2.892,0,5.237,2.345,5.237,5.237c0,2.892-2.345,5.237-5.237,5.237s-5.237-2.345-5.237-5.237
	C20.277,36.762,22.623,34.417,25.514,34.417"/>
<circle fill="none" stroke="#161616" stroke-width="4.5" stroke-miterlimit="10" cx="25.514" cy="39.654" r="5.237"/>
<path fill="#F1F0F0" d="M41.458,58.333c2.893,0,5.238,2.345,5.238,5.238s-2.345,5.238-5.238,5.238s-5.238-2.345-5.238-5.238
	C36.22,60.679,38.564,58.333,41.458,58.333"/>
<circle fill="none" stroke="#161616" stroke-width="4.5" stroke-miterlimit="10" cx="41.458" cy="63.572" r="5.238"/>
<path fill="#F1F0F0" d="M59.168,65.106c2.893,0,5.238,2.345,5.238,5.238c0,2.893-2.345,5.238-5.238,5.238s-5.238-2.345-5.238-5.238
	C53.93,67.451,56.275,65.106,59.168,65.106"/>
<circle fill="none" stroke="#161616" stroke-width="4.5" stroke-miterlimit="10" cx="59.168" cy="70.344" r="5.238"/>
<path fill="#161616" d="M117.742,10.823c1.752,0,3.172,1.42,3.172,3.171c0,1.752-1.42,3.172-3.172,3.172
	c-1.751,0-3.172-1.42-3.172-3.172C114.57,12.243,115.991,10.823,117.742,10.823"/>
<path fill="#161616" d="M127.697,13.18c1.752,0,3.172,1.42,3.172,3.172s-1.42,3.172-3.172,3.172s-3.172-1.42-3.172-3.172
	S125.945,13.18,127.697,13.18"/>
<path fill="#161616" d="M135.033,19.336c1.752,0,3.172,1.42,3.172,3.172s-1.42,3.172-3.172,3.172s-3.172-1.42-3.172-3.172
	S133.281,19.336,135.033,19.336"/>
<path fill="#161616" d="M140.234,27.934c1.752,0,3.172,1.42,3.172,3.172s-1.42,3.172-3.172,3.172s-3.172-1.42-3.172-3.172
	S138.482,27.934,140.234,27.934"/>
<path fill="#161616" d="M142.922,37.232c1.752,0,3.172,1.42,3.172,3.172c0,1.752-1.42,3.172-3.172,3.172s-3.172-1.42-3.172-3.172
	C139.75,38.652,141.17,37.232,142.922,37.232"/>
<path fill="#161616" d="M144.249,47.26c1.752,0,3.172,1.42,3.172,3.172s-1.42,3.172-3.172,3.172s-3.172-1.42-3.172-3.172
	S142.497,47.26,144.249,47.26"/>
<path fill="#161616" d="M143.309,57.708c1.752,0,3.172,1.42,3.172,3.172s-1.42,3.172-3.172,3.172s-3.172-1.42-3.172-3.172
	S141.557,57.708,143.309,57.708"/>
<path fill="#161616" d="M140.257,66.912c1.752,0,3.173,1.42,3.173,3.172s-1.421,3.172-3.173,3.172s-3.172-1.42-3.172-3.172
	S138.505,66.912,140.257,66.912"/>
<path fill="#161616" d="M134.734,75.397c1.75,0,3.17,1.42,3.17,3.171c0,1.752-1.42,3.172-3.17,3.172
	c-1.752,0-3.172-1.42-3.172-3.172C131.562,76.817,132.982,75.397,134.734,75.397"/>
<path fill="#161616" d="M126.876,81.726c1.752,0,3.172,1.42,3.172,3.172c0,1.751-1.42,3.171-3.172,3.171
	c-1.751,0-3.171-1.42-3.171-3.171C123.705,83.146,125.125,81.726,126.876,81.726"/>
<path fill="#161616" d="M117.749,83.945c1.751,0,3.171,1.42,3.171,3.171c0,1.752-1.42,3.172-3.171,3.172
	c-1.752,0-3.172-1.42-3.172-3.172C114.577,85.365,115.997,83.945,117.749,83.945"/>
<path fill="#161616" d="M107.831,81.351c1.752,0,3.172,1.42,3.172,3.172s-1.42,3.172-3.172,3.172c-1.753,0-3.173-1.42-3.173-3.172
	S106.078,81.351,107.831,81.351"/>
<path fill="#161616" d="M100.494,75.195c1.752,0,3.172,1.42,3.172,3.172s-1.42,3.172-3.172,3.172s-3.172-1.42-3.172-3.172
	S98.742,75.195,100.494,75.195"/>
<path fill="#161616" d="M95.293,66.599c1.752,0,3.172,1.42,3.172,3.171c0,1.752-1.42,3.172-3.172,3.172
	c-1.751,0-3.171-1.42-3.171-3.172C92.122,68.019,93.542,66.599,95.293,66.599"/>
<path fill="#161616" d="M92.605,57.3c1.752,0,3.172,1.42,3.172,3.172c0,1.752-1.42,3.172-3.172,3.172s-3.172-1.42-3.172-3.172
	C89.434,58.72,90.854,57.3,92.605,57.3"/>
<path fill="#161616" d="M91.279,47.271c1.752,0,3.172,1.42,3.172,3.172s-1.42,3.172-3.172,3.172s-3.172-1.42-3.172-3.172
	S89.527,47.271,91.279,47.271"/>
<path fill="#161616" d="M92.221,36.824c1.752,0,3.172,1.42,3.172,3.172s-1.42,3.172-3.172,3.172c-1.753,0-3.173-1.42-3.173-3.172
	S90.468,36.824,92.221,36.824"/>
<path fill="#161616" d="M95.271,27.621c1.752,0,3.172,1.42,3.172,3.172c0,1.751-1.42,3.171-3.172,3.171s-3.172-1.42-3.172-3.171
	C92.1,29.041,93.521,27.621,95.271,27.621"/>
<path fill="#161616" d="M100.794,19.135c1.752,0,3.172,1.42,3.172,3.172s-1.42,3.172-3.172,3.172c-1.753,0-3.173-1.42-3.173-3.172
	S99.041,19.135,100.794,19.135"/>
<path fill="#161616" d="M108.65,12.808c1.752,0,3.172,1.42,3.172,3.172c0,1.751-1.42,3.171-3.172,3.171s-3.172-1.42-3.172-3.171
	C105.479,14.228,106.898,12.808,108.65,12.808"/>
<path fill="none" stroke="#C8C8C8" stroke-width="2" d="M53.111,115.442H15.462v69.617 M15.606,147.912h35.84"/>
<path fill="#161616" d="M15.971,126.091c2.893,0,5.238,2.345,5.238,5.237c0,2.893-2.345,5.238-5.238,5.238
	c-2.893,0-5.237-2.345-5.237-5.238C10.734,128.436,13.078,126.091,15.971,126.091"/>
<path fill="#161616" d="M15.971,142.675c2.893,0,5.238,2.345,5.238,5.237c0,2.893-2.345,5.236-5.238,5.236
	c-2.893,0-5.237-2.344-5.237-5.236C10.734,145.02,13.078,142.675,15.971,142.675"/>
<path fill="#161616" d="M16.178,161.249c2.893,0,5.238,2.345,5.238,5.237c0,2.892-2.345,5.236-5.238,5.236
	c-2.893,0-5.237-2.345-5.237-5.236C10.941,163.594,13.285,161.249,16.178,161.249"/>
<path fill="#161616" d="M15.764,179.109c2.893,0,5.238,2.347,5.238,5.238c0,2.895-2.345,5.238-5.238,5.238s-5.238-2.345-5.238-5.238
	C10.525,181.456,12.871,179.109,15.764,179.109"/>
<path fill="#161616" d="M51.812,142.675c2.893,0,5.237,2.345,5.237,5.237c0,2.893-2.344,5.236-5.237,5.236s-5.238-2.344-5.238-5.236
	C46.574,145.02,48.919,142.675,51.812,142.675"/>
<path fill="#161616" d="M33.839,142.675c2.893,0,5.237,2.345,5.237,5.237c0,2.893-2.344,5.236-5.237,5.236s-5.237-2.344-5.237-5.236
	C28.602,145.02,30.946,142.675,33.839,142.675"/>
<path fill="#161616" d="M16.455,110.306c2.893,0,5.238,2.345,5.238,5.238s-2.345,5.238-5.238,5.238s-5.238-2.345-5.238-5.238
	S13.562,110.306,16.455,110.306"/>
<path fill="#161616" d="M52.295,110.306c2.893,0,5.238,2.345,5.238,5.238s-2.345,5.238-5.238,5.238s-5.238-2.345-5.238-5.238
	S49.402,110.306,52.295,110.306"/>
<path fill="#161616" d="M34.322,110.307c2.893,0,5.237,2.345,5.237,5.237s-2.344,5.237-5.237,5.237
	c-2.892,0-5.237-2.345-5.237-5.237S31.43,110.307,34.322,110.307"/>
<path fill="#161616" d="M91.17,144.59c-2.895,0-5.238,2.345-5.238,5.238c0,2.893,2.344,5.236,5.238,5.236s5.237-2.344,5.237-5.236
	C96.407,146.935,94.062,144.59,91.17,144.59 M91.17,146.09c2.061,0,3.737,1.677,3.737,3.738c0,2.061-1.677,3.736-3.737,3.736
	c-2.062,0-3.738-1.676-3.738-3.736C87.432,147.767,89.107,146.09,91.17,146.09"/>
<path fill="#161616" d="M144.762,144.59c-2.892,0-5.236,2.345-5.236,5.238c0,2.893,2.345,5.236,5.236,5.236
	c2.893,0,5.238-2.344,5.238-5.236C150,146.935,147.654,144.59,144.762,144.59 M144.762,146.09c2.062,0,3.738,1.677,3.738,3.738
	c0,2.061-1.678,3.736-3.738,3.736c-2.06,0-3.736-1.676-3.736-3.736C141.023,147.767,142.701,146.09,144.762,146.09"/>
<path fill="#161616" d="M94.893,125.59c-2.893,0-5.238,2.345-5.238,5.238s2.345,5.237,5.238,5.237c2.893,0,5.237-2.344,5.237-5.237
	S97.784,125.59,94.893,125.59 M94.893,127.09c2.061,0,3.737,1.677,3.737,3.738s-1.678,3.737-3.737,3.737
	c-2.062,0-3.738-1.676-3.738-3.737S92.831,127.09,94.893,127.09"/>
<path fill="#161616" d="M108.055,111.328c-2.895,0-5.238,2.345-5.238,5.238c0,2.892,2.345,5.237,5.238,5.237
	c2.893,0,5.236-2.345,5.236-5.237C113.291,113.673,110.945,111.328,108.055,111.328 M108.055,112.828
	c2.061,0,3.736,1.677,3.736,3.738s-1.678,3.737-3.736,3.737c-2.062,0-3.738-1.676-3.738-3.737S105.992,112.828,108.055,112.828"/>
<path fill="#161616" d="M127.053,111.328c-2.893,0-5.236,2.345-5.236,5.238c0,2.892,2.345,5.238,5.236,5.238
	c2.893,0,5.238-2.345,5.238-5.238S129.945,111.328,127.053,111.328 M127.053,112.828c2.061,0,3.738,1.677,3.738,3.738
	s-1.678,3.738-3.738,3.738c-2.06,0-3.736-1.677-3.736-3.738S124.992,112.828,127.053,112.828"/>
<path fill="#161616" d="M141.227,125.59c-2.894,0-5.238,2.345-5.238,5.238s2.345,5.237,5.238,5.237c2.895,0,5.237-2.345,5.237-5.237
	C146.464,127.935,144.119,125.59,141.227,125.59 M141.227,127.09c2.062,0,3.737,1.677,3.737,3.738s-1.677,3.737-3.737,3.737
	c-2.062,0-3.738-1.676-3.738-3.737S139.165,127.09,141.227,127.09"/>
<path fill="#161616" d="M141.227,163.591c-2.893,0-5.238,2.345-5.238,5.237s2.346,5.236,5.238,5.236
	c2.892,0,5.237-2.344,5.237-5.236S144.118,163.591,141.227,163.591 M141.227,165.091c2.062,0,3.737,1.677,3.737,3.737
	s-1.677,3.736-3.737,3.736c-2.062,0-3.738-1.676-3.738-3.736S139.165,165.091,141.227,165.091"/>
<path fill="#161616" d="M127.055,178.091c-2.895,0-5.238,2.345-5.238,5.237s2.345,5.236,5.238,5.236
	c2.893,0,5.235-2.344,5.235-5.236S129.945,178.091,127.055,178.091 M127.055,179.591c2.061,0,3.735,1.677,3.735,3.737
	s-1.676,3.736-3.735,3.736c-2.062,0-3.738-1.676-3.738-3.736S124.992,179.591,127.055,179.591"/>
<path fill="#161616" d="M108.055,178.091c-2.894,0-5.238,2.345-5.238,5.236c0,2.894,2.345,5.237,5.238,5.237
	c2.893,0,5.236-2.344,5.236-5.237C113.291,180.436,110.945,178.091,108.055,178.091 M108.055,179.591
	c2.061,0,3.736,1.677,3.736,3.736c0,2.062-1.678,3.737-3.736,3.737c-2.061,0-3.738-1.676-3.738-3.737
	C104.314,181.268,105.993,179.591,108.055,179.591"/>
<path fill="#161616" d="M94.893,163.591c-2.894,0-5.238,2.345-5.238,5.237s2.345,5.236,5.238,5.236c2.895,0,5.237-2.344,5.237-5.236
	S97.785,163.591,94.893,163.591 M94.893,165.091c2.062,0,3.737,1.677,3.737,3.737s-1.677,3.736-3.737,3.736
	c-2.062,0-3.738-1.676-3.738-3.736S92.831,165.091,94.893,165.091"/>
<path fill="none" stroke="#C8C8C8" stroke-width="4" d="M33.823,247.201l26.451,37.385 M9.214,247.635h30.681l-0.116-0.052
	c2.675,0,5.224-0.454,7.542-1.276c2.319-0.822,4.406-2.012,6.16-3.48c1.753-1.471,3.171-3.221,4.152-5.164
	c0.981-1.944,1.522-4.081,1.522-6.323c0-2.244-0.541-4.381-1.522-6.325c-0.981-1.941-2.399-3.691-4.152-5.162
	c-1.754-1.472-3.842-2.66-6.16-3.482c-2.318-0.822-4.867-1.276-7.542-1.276H9.099v69.495"/>
<path fill="#161616" d="M30.04,243.594c2.17,0,3.929,1.76,3.929,3.928c0,2.17-1.759,3.931-3.929,3.931
	c-2.169,0-3.929-1.761-3.929-3.931C26.111,245.354,27.871,243.594,30.04,243.594"/>
<path fill="#161616" d="M8.903,243.594c2.169,0,3.928,1.76,3.928,3.93c0,2.168-1.759,3.928-3.928,3.928s-3.928-1.76-3.928-3.928
	C4.975,245.354,6.734,243.594,8.903,243.594"/>
<path fill="#161616" d="M48.288,242.094c2.169,0,3.928,1.76,3.928,3.928c0,2.17-1.759,3.929-3.928,3.929s-3.928-1.759-3.928-3.929
	C44.36,243.854,46.119,242.094,48.288,242.094"/>
<path fill="#161616" d="M8.903,211.251c2.169,0,3.928,1.759,3.928,3.929c0,2.168-1.759,3.928-3.928,3.928s-3.928-1.76-3.928-3.928
	C4.975,213.01,6.734,211.251,8.903,211.251"/>
<path fill="#161616" d="M30.04,211.252c2.169,0,3.928,1.759,3.928,3.928c0,2.17-1.759,3.928-3.928,3.928s-3.927-1.758-3.927-3.928
	C26.113,213.011,27.871,211.252,30.04,211.252"/>
<path fill="#161616" d="M48.49,212.25c2.169,0,3.928,1.759,3.928,3.93c0,2.168-1.759,3.928-3.928,3.928
	c-2.17,0-3.929-1.76-3.929-3.928C44.561,214.009,46.32,212.25,48.49,212.25"/>
<path fill="#161616" d="M8.903,226.662c2.169,0,3.928,1.759,3.928,3.928s-1.759,3.928-3.928,3.928s-3.928-1.759-3.928-3.928
	S6.734,226.662,8.903,226.662"/>
<path fill="#161616" d="M59.155,227.41c2.169,0,3.928,1.758,3.928,3.928c0,2.169-1.759,3.93-3.928,3.93
	c-2.169,0-3.928-1.761-3.928-3.93C55.228,229.168,56.986,227.41,59.155,227.41"/>
<path fill="#161616" d="M8.903,262.134c2.169,0,3.928,1.759,3.928,3.929c0,2.168-1.759,3.928-3.928,3.928s-3.928-1.76-3.928-3.928
	C4.975,263.893,6.734,262.134,8.903,262.134"/>
<path fill="#161616" d="M8.903,280.361c2.169,0,3.928,1.759,3.928,3.929s-1.759,3.928-3.928,3.928s-3.928-1.758-3.928-3.928
	S6.734,280.361,8.903,280.361"/>
<path fill="#161616" d="M45.749,260.393c2.169,0,3.928,1.758,3.928,3.928s-1.759,3.929-3.928,3.929s-3.928-1.759-3.928-3.929
	S43.58,260.393,45.749,260.393"/>
<path fill="#161616" d="M59.026,279.273c2.169,0,3.928,1.759,3.928,3.928s-1.759,3.928-3.928,3.928s-3.928-1.759-3.928-3.928
	S56.857,279.273,59.026,279.273"/>
<path fill="#161616" d="M108.532,241.223c2.893,0,5.237,2.346,5.237,5.237s-2.346,5.237-5.237,5.237s-5.237-2.346-5.237-5.237
	S105.641,241.223,108.532,241.223"/>
<path fill="#161616" d="M126.284,242.672c2.894,0,5.237,2.346,5.237,5.237s-2.345,5.237-5.237,5.237
	c-2.894,0-5.236-2.346-5.236-5.237S123.393,242.672,126.284,242.672"/>
<path fill="#161616" d="M100.412,224.934c2.893,0,5.238,2.346,5.238,5.237s-2.346,5.237-5.238,5.237s-5.237-2.346-5.237-5.237
	S97.52,224.934,100.412,224.934"/>
<path fill="#161616" d="M135.004,226.466c2.895,0,5.238,2.347,5.238,5.238s-2.346,5.237-5.238,5.237s-5.236-2.346-5.236-5.237
	S132.111,226.466,135.004,226.466"/>
<path fill="#161616" d="M117.566,257.141c2.893,0,5.238,2.344,5.238,5.236c0,2.895-2.347,5.238-5.238,5.238
	c-2.893,0-5.238-2.346-5.238-5.238S114.674,257.141,117.566,257.141"/>
<path fill="#161616" d="M144.268,242.364c2.894,0,5.237,2.345,5.237,5.235c0,2.894-2.345,5.237-5.237,5.237
	c-2.892,0-5.236-2.345-5.236-5.237C139.029,244.709,141.376,242.364,144.268,242.364"/>
<path fill="#161616" d="M144.268,210.469c2.894,0,5.237,2.346,5.237,5.237s-2.345,5.237-5.237,5.237
	c-2.892,0-5.236-2.346-5.236-5.237S141.376,210.469,144.268,210.469"/>
<path fill="#161616" d="M144.268,226.062c2.894,0,5.237,2.346,5.237,5.237s-2.345,5.236-5.237,5.236
	c-2.892,0-5.236-2.345-5.236-5.236C139.029,228.408,141.376,226.062,144.268,226.062"/>
<path fill="#161616" d="M144.268,260.664c2.894,0,5.237,2.345,5.237,5.236c0,2.893-2.345,5.236-5.237,5.236
	c-2.892,0-5.236-2.345-5.236-5.236C139.029,263.009,141.376,260.664,144.268,260.664"/>
<path fill="#161616" d="M144.268,278.525c2.894,0,5.237,2.345,5.237,5.236c0,2.893-2.345,5.236-5.237,5.236
	c-2.892,0-5.236-2.346-5.236-5.236C139.029,280.87,141.376,278.525,144.268,278.525"/>
<path fill="#161616" d="M144.268,218.816c2.894,0,5.237,2.345,5.237,5.238c0,2.891-2.345,5.235-5.237,5.235
	c-2.892,0-5.236-2.345-5.236-5.235C139.029,221.161,141.376,218.816,144.268,218.816"/>
<path fill="#161616" d="M144.268,234.76c2.894,0,5.237,2.346,5.237,5.236c0,2.893-2.345,5.236-5.237,5.236
	c-2.892,0-5.236-2.344-5.236-5.236C139.029,237.104,141.376,234.76,144.268,234.76"/>
<path fill="#161616" d="M144.268,251.668c2.894,0,5.237,2.346,5.237,5.236c0,2.893-2.345,5.236-5.237,5.236
	c-2.892,0-5.236-2.345-5.236-5.236C139.029,254.014,141.376,251.668,144.268,251.668"/>
<path fill="#161616" d="M144.268,269.543c2.894,0,5.237,2.346,5.237,5.236c0,2.893-2.345,5.236-5.237,5.236
	c-2.892,0-5.236-2.345-5.236-5.236C139.029,271.889,141.376,269.543,144.268,269.543"/>
<path fill="#161616" d="M91.663,242.363c2.894,0,5.237,2.346,5.237,5.238c0,2.892-2.346,5.236-5.237,5.236s-5.237-2.346-5.237-5.236
	C86.426,244.709,88.771,242.363,91.663,242.363"/>
<path fill="#161616" d="M91.663,210.469c2.894,0,5.237,2.346,5.237,5.237s-2.346,5.237-5.237,5.237s-5.237-2.346-5.237-5.237
	S88.771,210.469,91.663,210.469"/>
<path fill="#161616" d="M91.663,226.062c2.894,0,5.237,2.346,5.237,5.237s-2.346,5.237-5.237,5.237s-5.237-2.346-5.237-5.237
	S88.771,226.062,91.663,226.062"/>
<path fill="#161616" d="M91.663,260.663c2.894,0,5.237,2.345,5.237,5.237c0,2.892-2.346,5.236-5.237,5.236s-5.237-2.345-5.237-5.236
	C86.426,263.008,88.771,260.663,91.663,260.663"/>
<path fill="#161616" d="M91.663,278.525c2.894,0,5.237,2.345,5.237,5.236c0,2.893-2.344,5.238-5.237,5.238s-5.237-2.346-5.237-5.236
	C86.426,280.871,88.771,278.525,91.663,278.525"/>
<path fill="#161616" d="M91.663,218.816c2.894,0,5.237,2.346,5.237,5.236c0,2.893-2.346,5.238-5.237,5.238s-5.237-2.346-5.237-5.238
	C86.426,221.162,88.771,218.816,91.663,218.816"/>
<path fill="#161616" d="M91.663,234.759c2.894,0,5.237,2.347,5.237,5.238s-2.346,5.237-5.237,5.237s-5.237-2.346-5.237-5.237
	C86.426,237.104,88.771,234.759,91.663,234.759"/>
<path fill="#161616" d="M91.663,251.668c2.894,0,5.237,2.346,5.237,5.236c0,2.893-2.346,5.238-5.237,5.238s-5.237-2.346-5.237-5.238
	C86.426,254.014,88.771,251.668,91.663,251.668"/>
<path fill="#161616" d="M91.663,269.542c2.894,0,5.237,2.345,5.237,5.237c0,2.892-2.346,5.236-5.237,5.236s-5.237-2.345-5.237-5.236
	C86.426,271.887,88.771,269.542,91.663,269.542"/>
<path fill="#161616" d="M96.493,217.715c2.894,0,5.237,2.346,5.237,5.238s-2.344,5.238-5.237,5.238s-5.237-2.346-5.237-5.238
	S93.602,217.715,96.493,217.715"/>
<path fill="#161616" d="M104.277,233.146c2.893,0,5.236,2.345,5.236,5.236c0,2.893-2.345,5.237-5.236,5.237
	c-2.895,0-5.238-2.345-5.238-5.237C99.039,235.491,101.384,233.146,104.277,233.146"/>
<path fill="#161616" d="M112.438,249.602c2.893,0,5.236,2.344,5.236,5.236s-2.345,5.237-5.236,5.237
	c-2.893,0-5.238-2.345-5.238-5.237S109.544,249.602,112.438,249.602"/>
<path fill="#161616" d="M122.098,250.083c2.895,0,5.238,2.345,5.238,5.237c0,2.892-2.345,5.236-5.238,5.236
	c-2.893,0-5.236-2.345-5.236-5.236C116.861,252.428,119.205,250.083,122.098,250.083"/>
<path fill="#161616" d="M130.633,234.941c2.893,0,5.238,2.346,5.238,5.238c0,2.891-2.346,5.237-5.238,5.237
	c-2.892,0-5.238-2.347-5.238-5.237C125.395,237.287,127.74,234.941,130.633,234.941"/>
<path fill="#161616" d="M138.869,218.253c2.893,0,5.238,2.345,5.238,5.238c0,2.893-2.346,5.237-5.238,5.237
	s-5.238-2.346-5.238-5.237C133.631,220.598,135.977,218.253,138.869,218.253"/>
</svg>
