<?xml version="1.0" encoding="utf-8"?>
<!-- Generator: Adobe Illustrator 16.0.0, SVG Export Plug-In . SVG Version: 6.00 Build 0)  -->
<!DOCTYPE svg PUBLIC "-//W3C//DTD SVG 1.1//EN" "http://www.w3.org/Graphics/SVG/1.1/DTD/svg11.dtd">
<svg version="1.1" id="Layer_1" xmlns="http://www.w3.org/2000/svg" xmlns:xlink="http://www.w3.org/1999/xlink" x="0px" y="0px"
	 width="925px" height="200px" viewBox="0 0 925 200" enable-background="new 0 0 925 200" xml:space="preserve">
<ellipse fill="none" stroke="#F0F0F0" stroke-width="4" stroke-miterlimit="10" cx="240.386" cy="99.396" rx="51.823" ry="74.086"/>
<ellipse fill="none" stroke="#F0F0F0" stroke-width="4" stroke-miterlimit="10" cx="530.304" cy="99.396" rx="51.823" ry="74.086"/>
<line fill="none" stroke="#F0F0F0" stroke-width="4" x1="348.417" y1="97.904" x2="423.097" y2="97.904"/>
<polyline fill="none" stroke="#F0F0F0" stroke-width="4" points="426.427,31.647 348.13,31.647 348.13,170.881 "/>
<path fill="none" stroke="#F0F0F0" stroke-width="4" d="M637.586,93.988h61.363l-0.229-0.103c5.35,0,10.443-0.91,15.084-2.554
	c4.637-1.645,8.811-4.023,12.314-6.963c3.506-2.94,6.342-6.44,8.309-10.328c1.961-3.888,3.045-8.162,3.045-12.647
	c0-4.487-1.084-8.762-3.045-12.649c-1.967-3.886-4.803-7.386-8.309-10.327s-7.682-5.32-12.316-6.965
	c-4.639-1.644-9.732-2.552-15.084-2.552h-61.361V169.89 M686.805,93.12l52.898,76.77"/>
<line fill="none" stroke="#F0F0F0" stroke-width="4" stroke-miterlimit="10" x1="29.038" y1="27.288" x2="29.038" y2="171.502"/>
<line fill="none" stroke="#F0F0F0" stroke-width="4" stroke-miterlimit="10" x1="134.401" y1="27.288" x2="134.401" y2="171.502"/>
<line fill="none" stroke="#F0F0F0" stroke-width="4" stroke-miterlimit="10" x1="29.038" y1="28.282" x2="135.602" y2="169.344"/>
<line fill="none" stroke="#F0F0F0" stroke-width="4" stroke-miterlimit="10" x1="791.037" y1="27.288" x2="791.037" y2="171.502"/>
<line fill="none" stroke="#F0F0F0" stroke-width="4" stroke-miterlimit="10" x1="896.4" y1="27.288" x2="896.4" y2="171.502"/>
<line fill="none" stroke="#F0F0F0" stroke-width="4" stroke-miterlimit="10" x1="791.037" y1="28.645" x2="844.234" y2="95.094"/>
<line fill="none" stroke="#F0F0F0" stroke-width="4" stroke-miterlimit="10" x1="898.85" y1="28.109" x2="845.652" y2="94.559"/>
<circle fill="#F0F0F0" cx="348.002" cy="61.387" r="7.856"/>
<circle fill="#F0F0F0" cx="348.313" cy="96.472" r="7.857"/>
<circle fill="#F0F0F0" cx="346.847" cy="130.345" r="7.856"/>
<circle fill="#F0F0F0" cx="348.002" cy="170.461" r="7.857"/>
<circle fill="#F0F0F0" cx="426.428" cy="96.472" r="7.857"/>
<circle fill="#F0F0F0" cx="387.279" cy="96.472" r="7.857"/>
<circle fill="#F0F0F0" cx="349.038" cy="31.977" r="7.857"/>
<circle fill="#F0F0F0" cx="423.097" cy="30.86" r="7.857"/>
<circle fill="#F0F0F0" cx="387.278" cy="31.647" r="7.855"/>
<circle fill="#F0F0F0" cx="677.236" cy="95.472" r="7.857"/>
<circle fill="#F0F0F0" cx="636.963" cy="95.472" r="7.856"/>
<circle fill="#F0F0F0" cx="717.732" cy="90.472" r="7.856"/>
<circle fill="#F0F0F0" cx="636.963" cy="29.859" r="7.856"/>
<circle fill="#F0F0F0" cx="677.236" cy="29.86" r="7.855"/>
<circle fill="#F0F0F0" cx="716.137" cy="31.859" r="7.857"/>
<circle fill="#F0F0F0" cx="636.963" cy="60.387" r="7.856"/>
<circle fill="#F0F0F0" cx="737.469" cy="60.387" r="7.856"/>
<circle fill="#F0F0F0" cx="636.963" cy="129.345" r="7.855"/>
<circle fill="#F0F0F0" cx="636.963" cy="167.082" r="7.855"/>
<circle fill="#F0F0F0" cx="712.656" cy="129.345" r="7.856"/>
<circle fill="#F0F0F0" cx="737.209" cy="167.081" r="7.856"/>
<circle fill="#F0F0F0" cx="549.678" cy="30.772" r="7.857"/>
<ellipse fill="#F0F0F0" cx="507.887" cy="31.772" rx="7.324" ry="7.857"/>
<circle fill="#F0F0F0" cx="486.145" cy="61.387" r="7.857"/>
<circle fill="#F0F0F0" cx="575.311" cy="61.387" r="7.857"/>
<circle fill="#F0F0F0" cx="478.338" cy="96.472" r="7.857"/>
<circle fill="#F0F0F0" cx="582.096" cy="96.472" r="7.857"/>
<circle fill="#F0F0F0" cx="483.143" cy="130.345" r="7.857"/>
<circle fill="#F0F0F0" cx="576.309" cy="130.346" r="7.857"/>
<ellipse fill="#F0F0F0" cx="510.887" cy="166.129" rx="7.324" ry="7.857"/>
<circle fill="#F0F0F0" cx="551.68" cy="167.129" r="7.857"/>
<circle fill="#F0F0F0" cx="261.76" cy="31.5" r="7.857"/>
<ellipse fill="#F0F0F0" cx="216.469" cy="32.5" rx="7.324" ry="7.857"/>
<circle fill="#F0F0F0" cx="196.227" cy="61.387" r="7.857"/>
<circle fill="#F0F0F0" cx="286.392" cy="61.387" r="7.857"/>
<circle fill="#F0F0F0" cx="188.42" cy="96.472" r="7.857"/>
<circle fill="#F0F0F0" cx="292.177" cy="96.472" r="7.857"/>
<circle fill="#F0F0F0" cx="194.225" cy="130.345" r="7.857"/>
<circle fill="#F0F0F0" cx="287.391" cy="131.346" r="7.857"/>
<ellipse fill="#F0F0F0" cx="218.469" cy="167.857" rx="7.324" ry="7.857"/>
<circle fill="#F0F0F0" cx="261.762" cy="168.857" r="7.857"/>
<circle fill="#F0F0F0" cx="28.6" cy="96.472" r="7.856"/>
<circle fill="#F0F0F0" cx="28.6" cy="29.538" r="7.856"/>
<circle fill="#F0F0F0" cx="28.6" cy="61.387" r="7.856"/>
<circle fill="#F0F0F0" cx="28.6" cy="130.345" r="7.855"/>
<circle fill="#F0F0F0" cx="28.6" cy="166.761" r="7.855"/>
<circle fill="#F0F0F0" cx="134.401" cy="96.472" r="7.856"/>
<circle fill="#F0F0F0" cx="134.401" cy="30.796" r="7.856"/>
<circle fill="#F0F0F0" cx="134.401" cy="61.387" r="7.856"/>
<circle fill="#F0F0F0" cx="134.401" cy="130.345" r="7.855"/>
<circle fill="#F0F0F0" cx="134.401" cy="168.02" r="7.855"/>
<circle fill="#F0F0F0" cx="53.401" cy="61.387" r="7.856"/>
<circle fill="#F0F0F0" cx="78.088" cy="96.473" r="7.856"/>
<circle fill="#F0F0F0" cx="108.32" cy="130.346" r="7.856"/>
<circle fill="#F0F0F0" cx="790.6" cy="95.272" r="7.856"/>
<circle fill="#F0F0F0" cx="790.6" cy="29.901" r="7.856"/>
<circle fill="#F0F0F0" cx="790.6" cy="61.387" r="7.856"/>
<circle fill="#F0F0F0" cx="790.6" cy="130.345" r="7.855"/>
<circle fill="#F0F0F0" cx="790.6" cy="167.124" r="7.855"/>
<circle fill="#F0F0F0" cx="896.4" cy="96.531" r="7.856"/>
<circle fill="#F0F0F0" cx="896.4" cy="31.16" r="7.856"/>
<circle fill="#F0F0F0" cx="896.4" cy="61.387" r="7.856"/>
<circle fill="#F0F0F0" cx="896.4" cy="130.345" r="7.855"/>
<circle fill="#F0F0F0" cx="896.4" cy="168.383" r="7.855"/>
<circle fill="#F0F0F0" cx="816.258" cy="61.387" r="7.856"/>
<circle fill="#F0F0F0" cx="844.943" cy="96.473" r="7.856"/>
<circle fill="#F0F0F0" cx="871.63" cy="61.388" r="7.856"/>
</svg>
