<?xml version="1.0" encoding="utf-8"?>
<!-- Generator: Adobe Illustrator 16.0.0, SVG Export Plug-In . SVG Version: 6.00 Build 0)  -->
<!DOCTYPE svg PUBLIC "-//W3C//DTD SVG 1.1//EN" "http://www.w3.org/Graphics/SVG/1.1/DTD/svg11.dtd">
<svg version="1.1" id="Layer_1" xmlns="http://www.w3.org/2000/svg" xmlns:xlink="http://www.w3.org/1999/xlink" x="0px" y="0px"
	 width="150px" height="155px" viewBox="0 0 150 155" enable-background="new 0 0 150 155" xml:space="preserve">
<g>
	<path fill="none" stroke="#FAFAFA" stroke-width="4" d="M46.482,72.823h34.805l-0.132-0.059c3.035,0,5.926-0.515,8.557-1.448
		c2.63-0.933,4.998-2.283,6.986-3.951c1.989-1.668,3.599-3.654,4.711-5.859c1.112-2.206,1.728-4.63,1.728-7.175
		c0-2.546-0.615-4.97-1.728-7.176c-1.112-2.205-2.722-4.191-4.711-5.859c-1.988-1.668-4.356-3.018-6.986-3.951
		c-2.631-0.932-5.521-1.448-8.557-1.448H46.35v78.85 M74.399,72.329l30.006,42.418"/>
	<circle fill="none" stroke="#FAFAFA" stroke-width="4" cx="75.2" cy="77.2" r="70.56"/>
</g>
</svg>
