<?xml version="1.0" encoding="utf-8"?>
<!-- Generator: Adobe Illustrator 16.0.0, SVG Export Plug-In . SVG Version: 6.00 Build 0)  -->
<!DOCTYPE svg PUBLIC "-//W3C//DTD SVG 1.1//EN" "http://www.w3.org/Graphics/SVG/1.1/DTD/svg11.dtd">
<svg version="1.1" id="Layer_1" xmlns="http://www.w3.org/2000/svg" xmlns:xlink="http://www.w3.org/1999/xlink" x="0px" y="0px"
	 width="455px" height="455px" viewBox="0 0 455 455" enable-background="new 0 0 455 455" xml:space="preserve">
<path fill="none" stroke="#F0F0F0" stroke-width="10" d="M137.815,219.743h108.028l-0.411-0.182c9.422,0,18.395-1.601,26.557-4.496
	c8.164-2.895,15.514-7.084,21.688-12.261c6.172-5.178,11.168-11.342,14.621-18.186c3.451-6.846,5.361-14.371,5.361-22.27
	c0-7.9-1.91-15.426-5.361-22.272c-3.453-6.843-8.449-13.008-14.621-18.185c-6.174-5.178-13.523-9.367-21.688-12.262
	c-8.162-2.895-17.135-4.496-26.557-4.496H137.404v244.734 M224.465,218.21l93.131,131.657"/>
<circle fill="none" stroke="#F0F0F0" stroke-width="10" cx="227.5" cy="227.5" r="219"/>
</svg>
